<svg xmlns="http://www.w3.org/2000/svg" width="335" height="190" viewBox="0 0 335 190"><rect width="335" height="190" rx="5" fill="#fff"/><g transform="translate(5 -44)"><line y2="8" transform="translate(70.5 71.5)" fill="none" stroke="#70779c" stroke-width="1"/><g transform="translate(24.796 78)"><path d="M3.2,9.6a.829.829,0,0,0,.79.827v.753a1.206,1.206,0,0,0,1.2,1.2H7.017V27.558H6.907a1.206,1.206,0,0,0-1.2,1.2v.751H4.874a.88.88,0,0,0-.879.879v1.146a.88.88,0,0,0,.879.879H18.1a.475.475,0,1,0,0-.95H4.944V30.463H33.477v1.006H20.319a.475.475,0,1,0,0,.95H33.548a.88.88,0,0,0,.879-.879V30.393a.88.88,0,0,0-.879-.879h-.829v-.751a1.206,1.206,0,0,0-1.2-1.2H31.4V20.824a.475.475,0,0,0-.95,0v6.734h-2.12V12.381h2.12v6.227a.475.475,0,1,0,.95,0V12.381h1.818a1.206,1.206,0,0,0,1.2-1.2v-.753a.829.829,0,0,0,.79-.827V8.589a.826.826,0,0,0-.447-.736h0L19.96.182a1.632,1.632,0,0,0-1.5,0L3.651,7.853a.826.826,0,0,0-.447.736V9.6Zm28.31,18.91a.258.258,0,0,1,.255.255v.751H6.652v-.751a.258.258,0,0,1,.255-.255Zm-23.548-.95V12.381h2.12V27.558Zm5.84-13.205V25.586H11.036V14.353Zm-2.771-.95V12.381h2.771V13.4Zm2.771,13.133v1.022H11.036V26.536Zm.95,1.022V12.381h2.12V27.558ZM20.6,14.353V25.586H17.825V14.353Zm-2.771-.95V12.381H20.6V13.4ZM20.6,26.536v1.022H17.825V26.536Zm.95,1.022V12.381h2.12V27.558Zm5.84-13.205V25.586H24.615V14.353Zm-2.771-.95V12.381h2.771V13.4Zm2.771,13.133v1.022H24.615V26.536Zm6.092-15.36a.258.258,0,0,1-.255.255H5.2a.258.258,0,0,1-.255-.255v-.751H33.477v.751ZM4.154,8.663,18.9,1.025a.681.681,0,0,1,.626,0L34.268,8.663v.813H4.154V8.663Z" fill="#5f6893"/><path d="M221.455,61.989a2.335,2.335,0,1,0-2.335-2.335A2.338,2.338,0,0,0,221.455,61.989Zm0-3.72a1.385,1.385,0,1,1-1.385,1.385A1.387,1.387,0,0,1,221.455,58.269Z" transform="translate(-202.244 -53.69)" fill="#5f6893"/></g><g transform="translate(3346 -315)" fill="none"><path d="M-3334,410.5a32.5,32.5,0,0,1,32.5-32.5,32.345,32.345,0,0,1,18.144,5.533A10.475,10.475,0,0,1-3275.5,380a10.5,10.5,0,0,1,10.5,10.5,10.5,10.5,0,0,1-5.774,9.379A32.455,32.455,0,0,1-3269,410.5a32.5,32.5,0,0,1-32.5,32.5A32.5,32.5,0,0,1-3334,410.5Z" stroke="none"/><path d="M -3301.499755859375 379 C -3305.752685546875 379 -3309.8779296875 379.8327026367188 -3313.760986328125 381.4749450683594 C -3317.51171875 383.0614013671875 -3320.880615234375 385.332763671875 -3323.773681640625 388.2259826660156 C -3326.6669921875 391.119140625 -3328.938232421875 394.4879760742188 -3330.52490234375 398.2388610839844 C -3332.1669921875 402.1216735839844 -3332.999755859375 406.2468872070312 -3332.999755859375 410.4999084472656 C -3332.999755859375 414.7529296875 -3332.1669921875 418.8781433105469 -3330.52490234375 422.7609558105469 C -3328.938232421875 426.5118408203125 -3326.6669921875 429.8806762695312 -3323.773681640625 432.7738647460938 C -3320.880615234375 435.6670532226562 -3317.51171875 437.9384155273438 -3313.760986328125 439.5248718261719 C -3309.8779296875 441.1671142578125 -3305.752685546875 441.9998168945312 -3301.499755859375 441.9998168945312 C -3297.2470703125 441.9998168945312 -3293.121826171875 441.1671142578125 -3289.239013671875 439.5248718261719 C -3285.48828125 437.9384155273438 -3282.119384765625 435.6670532226562 -3279.226318359375 432.7738647460938 C -3276.3330078125 429.8806457519531 -3274.0615234375 426.5118103027344 -3272.47509765625 422.7609558105469 C -3270.832763671875 418.8781127929688 -3270 414.7528991699219 -3270 410.4999084472656 C -3270 406.9718322753906 -3270.57861328125 403.5085144042969 -3271.7197265625 400.2061767578125 L -3272.005126953125 399.3805541992188 L -3271.225341796875 398.9868774414062 C -3269.6787109375 398.2060241699219 -3268.373291015625 397.0163879394531 -3267.44970703125 395.5465393066406 C -3266.50146484375 394.0371704101562 -3266.000244140625 392.2921447753906 -3266.000244140625 390.5001220703125 C -3266.000244140625 385.2616271972656 -3270.26171875 380.9998168945312 -3275.499755859375 380.9998168945312 C -3278.213623046875 380.9998168945312 -3280.80419921875 382.1649475097656 -3282.607666015625 384.1964416503906 L -3283.188720703125 384.85107421875 L -3283.91455078125 384.3617248535156 C -3289.116943359375 380.8540649414062 -3295.197998046875 379 -3301.499755859375 379 M -3301.499755859375 378 C -3294.780029296875 378 -3288.537353515625 380.038818359375 -3283.35546875 383.5325927734375 C -3281.431884765625 381.3656311035156 -3278.625244140625 379.9998168945312 -3275.499755859375 379.9998168945312 C -3269.700927734375 379.9998168945312 -3265.000244140625 384.701416015625 -3265.000244140625 390.5001220703125 C -3265.000244140625 394.5992736816406 -3267.349365234375 398.1502075195312 -3270.774658203125 399.8795471191406 C -3269.62451171875 403.2078247070312 -3269 406.7804870605469 -3269 410.4999084472656 C -3269 428.4495239257812 -3283.551025390625 442.9998168945312 -3301.499755859375 442.9998168945312 C -3319.449462890625 442.9998168945312 -3333.999755859375 428.4495239257812 -3333.999755859375 410.4999084472656 C -3333.999755859375 392.5503234863281 -3319.449462890625 378 -3301.499755859375 378 Z" stroke="none" fill="#70779c"/></g><g transform="translate(60 65)" fill="none"><path d="M10.5,0A10.5,10.5,0,1,1,0,10.5,10.5,10.5,0,0,1,10.5,0Z" stroke="none"/><path d="M 10.5 1 C 5.261679649353027 1 1 5.261679649353027 1 10.5 C 1 15.73831939697266 5.261679649353027 20 10.5 20 C 15.73831939697266 20 20 15.73831939697266 20 10.5 C 20 5.261679649353027 15.73831939697266 1 10.5 1 M 10.5 0 C 16.29899024963379 0 21 4.701009750366211 21 10.5 C 21 16.29899024963379 16.29899024963379 21 10.5 21 C 4.701009750366211 21 0 16.29899024963379 0 10.5 C 0 4.701009750366211 4.701009750366211 0 10.5 0 Z" stroke="none" fill="#70779c"/></g><line y2="8" transform="translate(74.5 75.5) rotate(90)" fill="none" stroke="#70779c" stroke-width="1"/><text transform="translate(165 83)" fill="#343c62" font-size="18" font-family="Helvetica"><tspan x="-73.556" y="0">Add Bank Account</tspan></text></g><text transform="translate(200 179)" fill="#5f6893" font-size="14" font-family="Helvetica"><tspan x="-109.105" y="0">You can add up to 2 bank accounts</tspan></text><line x2="274" transform="translate(32.5 153.5)" fill="none" stroke="#5f6893" stroke-width="1"/><g transform="translate(-16 -5)"><g transform="matrix(0.017, 1, -1, 0.017, 322.88, 14.704)" fill="#fff"><path d="M 126.0436477661133 34.5 L 1.956349492073059 34.5 L 64 0.5698786377906799 L 126.0436477661133 34.5 Z" stroke="none"/><path d="M 64 1.139766693115234 L 3.912712097167969 34 L 124.087287902832 34 L 64 1.139766693115234 M 64 0 L 128 35 L 0 35 L 64 0 Z" stroke="none" fill="#707070"/></g><rect width="12" height="141" transform="translate(288 5)" fill="#fff"/></g></svg>