<svg xmlns="http://www.w3.org/2000/svg" xmlns:xlink="http://www.w3.org/1999/xlink" width="28" height="21" viewBox="0 0 28 21"><defs><clipPath id="a"><rect width="24.53" height="15.547" fill="#5f6893"/></clipPath></defs><g transform="translate(-7 -8)"><g transform="translate(7 8)"><g clip-path="url(#a)"><path d="M23.169,6.421a5.465,5.465,0,0,0-2.541-1.643c-.787-1.12-1.872-2.7-2.091-3.025a2.365,2.365,0,0,0-1.568-1L12.594.048a3.7,3.7,0,0,0-2.2.32C10.17.475,9.916.6,9.642.725a.589.589,0,0,0,.5,1.065c.277-.131.534-.253.759-.362a2.522,2.522,0,0,1,1.5-.219l4.375.71a1.181,1.181,0,0,1,.785.5c.164.241.814,1.19,1.463,2.125a5.442,5.442,0,0,0-1.6.241c-.444-.337-.86-.715-1.286-1.074a.6.6,0,0,0-.283-.13L14.136,3.3a.59.59,0,0,0-.483.139L10.9,5.839a.651.651,0,0,0-.1.115,1.769,1.769,0,0,0,.106,2.01l.009.01A1.523,1.523,0,0,0,11.97,8.5l2.249.149A4.638,4.638,0,0,1,17.125,10.1a.873.873,0,0,1,.218.528c-.018.273-.359.261-.56.247-1.545-.1-3.086-.264-4.634-.325-.956-.038-1.9.026-2.859.073a3.838,3.838,0,0,1-2.1-.5L4.865,8.77a2.5,2.5,0,0,0-.645-.291V3.359l1.7.112a.579.579,0,0,0,.138-.017,11.554,11.554,0,0,0,1.532-.531.589.589,0,0,0-.442-1.091,11.87,11.87,0,0,1-1.282.457L4.22,2.179v-.14A1.086,1.086,0,0,0,3.135.953H1.086A1.088,1.088,0,0,0,0,2.039V9.458a1.088,1.088,0,0,0,1.086,1.086H3.135a1.088,1.088,0,0,0,1.05-.811L6.6,11.14a5.012,5.012,0,0,0,2.75.661,38.366,38.366,0,0,1,4.486.06,5.5,5.5,0,1,0,9.335-5.44M3.044,9.367H1.177V2.129H3.044Zm11.124-1.9-2.119-.141c-.318-.021-.394-.416-.294-.664L14.219,4.5l1.286.211.715.6a5.5,5.5,0,0,0-2.052,2.148M18.5,10.757a1.676,1.676,0,0,0,0-.339c.3.168.613.314.905.487a.765.765,0,0,1,.463.82.821.821,0,0,1-.788.575,1.307,1.307,0,0,1-.952-.376,1.119,1.119,0,0,1-.148-.2,2.38,2.38,0,0,0,.353-.416,1.569,1.569,0,0,0,.163-.555m4.84-.425a4.326,4.326,0,0,1-8.2,1.616s1.944.1,2.039.091l-.036.54a.094.094,0,0,0,.087.1l.425.028a.094.094,0,0,0,.1-.086l.013-.2c-.008.121.773.357.89.383l-.04.682a.2.2,0,0,0,.187.212l.292.02a.2.2,0,0,0,.214-.186l.048-.682a1.522,1.522,0,0,0,1.5-1.856,1.973,1.973,0,0,0-.976-1.145,7,7,0,0,1-1.345-.827.686.686,0,0,1,.544-1.178,1.034,1.034,0,0,1,.791.373,1.8,1.8,0,0,1,.316.9.093.093,0,0,0,.086.083l.324.021a.091.091,0,0,0,.1-.086L20.8,7.549a.092.092,0,0,0-.085-.1l-.4-.027a.092.092,0,0,0-.1.087l-.014.2a1.852,1.852,0,0,0-.572-.31l.045-.6a.2.2,0,0,0-.187-.215l-.306-.021a.2.2,0,0,0-.214.187l-.035.53a1.431,1.431,0,0,0-1.618,1.39,6.354,6.354,0,0,0-1.92-.987,4.326,4.326,0,0,1,7.944,2.645" transform="translate(0 0)" fill="#5f6893"/></g></g><g transform="translate(17 24)" fill="none" stroke="#5f6893" stroke-width="1"><ellipse cx="9" cy="2.5" rx="9" ry="2.5" stroke="none"/><ellipse cx="9" cy="2.5" rx="8.5" ry="2" fill="none"/></g></g></svg>