<svg xmlns="http://www.w3.org/2000/svg" width="101.098" height="41.51" viewBox="0 0 101.098 41.51"><path d="M18.472,5.352A6.211,6.211,0,0,1,13.5,7.7a7.042,7.042,0,0,1,1.777-5.154A7.423,7.423,0,0,1,20.21,0a7.5,7.5,0,0,1-1.738,5.352M20.19,8.077c-2.745-.158-5.095,1.56-6.4,1.56-1.323,0-3.318-1.481-5.49-1.442A8.111,8.111,0,0,0,1.41,12.382C-1.552,17.477.64,25.021,3.5,29.168c1.4,2.054,3.081,4.305,5.292,4.226,2.093-.079,2.923-1.363,5.45-1.363,2.547,0,3.278,1.363,5.49,1.323,2.291-.039,3.732-2.054,5.134-4.108a18.013,18.013,0,0,0,2.291-4.72A7.441,7.441,0,0,1,22.7,17.753a7.6,7.6,0,0,1,3.614-6.359A7.826,7.826,0,0,0,20.19,8.077M36.048,2.35V33.137h4.779V22.611h6.616c6.043,0,10.289-4.147,10.289-10.15S53.564,2.35,47.6,2.35Zm4.779,4.029h5.51c4.147,0,6.517,2.212,6.517,6.1S50.484,18.6,46.317,18.6h-5.49Zm25.633,27a7.907,7.907,0,0,0,7.05-3.93h.1v3.693h4.424V17.813c0-4.443-3.555-7.307-9.025-7.307-5.075,0-8.827,2.9-8.966,6.892h4.305c.355-1.9,2.113-3.14,4.522-3.14,2.923,0,4.562,1.363,4.562,3.871v1.7l-5.964.355c-5.549.336-8.551,2.607-8.551,6.556C58.916,30.728,62.017,33.374,66.46,33.374Zm1.284-3.653c-2.547,0-4.167-1.224-4.167-3.1,0-1.935,1.56-3.061,4.542-3.239l5.312-.336v1.738C73.431,27.667,70.982,29.721,67.744,29.721ZM83.937,41.51c4.661,0,6.853-1.777,8.768-7.169L101.1,10.8H96.24L90.612,28.99h-.1L84.885,10.8h-5l8.1,22.414-.434,1.363c-.731,2.311-1.916,3.2-4.029,3.2-.375,0-1.106-.039-1.4-.079v3.693a13.164,13.164,0,0,0,1.817.118Z" transform="translate(0)"/></svg>