<svg xmlns="http://www.w3.org/2000/svg" width="137.543" height="28.72" viewBox="0 0 137.543 28.72"><g transform="translate(0 0)"><path d="M28.287,17.834A14.355,14.355,0,1,1,17.83.43a14.356,14.356,0,0,1,10.457,17.4Z" transform="translate(0 0)" fill="#f7931a"/><path d="M29.273,18.461c.286-1.911-1.169-2.938-3.158-3.623l.645-2.588-1.576-.393-.628,2.52c-.414-.1-.84-.2-1.262-.3l.633-2.537-1.575-.393-.646,2.587c-.343-.078-.679-.155-1.006-.236l0-.008-2.173-.543-.419,1.683s1.169.268,1.144.285a.838.838,0,0,1,.734.916l-.735,2.949a1.3,1.3,0,0,1,.164.053l-.166-.041-1.03,4.131a.573.573,0,0,1-.722.374c.016.023-1.145-.286-1.145-.286l-.782,1.8,2.05.511c.381.1.755.2,1.123.29l-.652,2.618,1.574.393.646-2.59c.43.117.847.224,1.256.326l-.643,2.578,1.576.393.652-2.613c2.687.508,4.707.3,5.557-2.127a2.764,2.764,0,0,0-1.448-3.821A2.513,2.513,0,0,0,29.273,18.461Zm-3.6,5.048c-.487,1.957-3.781.9-4.849.634l.865-3.468C22.758,20.941,26.182,21.469,25.674,23.509Zm.487-5.076c-.444,1.78-3.186.875-4.075.654l.784-3.146C23.759,16.163,26.624,16.576,26.161,18.433Z" transform="translate(-8.584 -6.147)" fill="#fff"/><path d="M78.2,8.694a6.855,6.855,0,0,1,3.016.618,6.072,6.072,0,0,1,2.113,1.672,7.042,7.042,0,0,1,1.234,2.472,11.289,11.289,0,0,1,.4,3.053A12.43,12.43,0,0,1,81.5,25.142a11.882,11.882,0,0,1-3.78,2.614A11.539,11.539,0,0,1,73,28.72c-.219,0-.6-.006-1.148-.018a16.781,16.781,0,0,1-1.869-.162A21.935,21.935,0,0,1,67.75,28.1a11.2,11.2,0,0,1-2.236-.8L71.8.882,77.433.01,75.182,9.385a8.755,8.755,0,0,1,1.452-.508A6.451,6.451,0,0,1,78.2,8.694ZM73.472,24.252a4.935,4.935,0,0,0,2.4-.618,6.313,6.313,0,0,0,1.947-1.654,8.342,8.342,0,0,0,1.289-2.345,7.989,7.989,0,0,0,.473-2.728A5.368,5.368,0,0,0,79,14.182a2.285,2.285,0,0,0-2.145-.981,6.727,6.727,0,0,0-1.325.181,3.308,3.308,0,0,0-1.474.765l-2.4,9.957c.144.026.272.05.381.073a2.844,2.844,0,0,0,.342.054,3.946,3.946,0,0,0,.438.021h.653ZM90.8,28.214H85.418L89.96,9.1h5.416ZM93.414,6.77A3.338,3.338,0,0,1,91.379,6.1a2.374,2.374,0,0,1-.911-2.054,3.418,3.418,0,0,1,.308-1.434A3.837,3.837,0,0,1,91.6,1.447a4.024,4.024,0,0,1,1.18-.782A3.6,3.6,0,0,1,94.213.375a3.338,3.338,0,0,1,2.034.671A2.4,2.4,0,0,1,97.155,3.1a3.4,3.4,0,0,1-.309,1.437A3.783,3.783,0,0,1,96.029,5.7a3.951,3.951,0,0,1-1.18.78,3.543,3.543,0,0,1-1.435.289Zm6.676-2.434,5.634-.873L104.341,9.1h6.034l-1.09,4.433h-6l-1.6,6.686a7.561,7.561,0,0,0-.254,1.562,2.854,2.854,0,0,0,.18,1.255,1.577,1.577,0,0,0,.781.816,3.574,3.574,0,0,0,1.617.293,8.605,8.605,0,0,0,1.692-.165,12,12,0,0,0,1.651-.454l.4,4.145a19.3,19.3,0,0,1-2.362.689,13.6,13.6,0,0,1-3.017.29,8.353,8.353,0,0,1-3.89-.742,4.321,4.321,0,0,1-1.963-2.038,6.476,6.476,0,0,1-.508-2.96,19.16,19.16,0,0,1,.508-3.526Zm10.047,16.245a13.422,13.422,0,0,1,.8-4.653,11.446,11.446,0,0,1,2.292-3.819,10.73,10.73,0,0,1,3.617-2.579,11.557,11.557,0,0,1,4.741-.945,12.526,12.526,0,0,1,2.925.31,11.845,11.845,0,0,1,2.346.817L125,13.931c-.485-.2-.988-.37-1.508-.527a6.561,6.561,0,0,0-1.908-.237,5.33,5.33,0,0,0-4.271,1.852A7.426,7.426,0,0,0,115.733,20a5.121,5.121,0,0,0,.8,3,3.35,3.35,0,0,0,2.943,1.144,9.435,9.435,0,0,0,2.036-.217,10.028,10.028,0,0,0,1.746-.545l.4,4.324a19.466,19.466,0,0,1-2.254.711,12.528,12.528,0,0,1-2.945.306,9.937,9.937,0,0,1-3.816-.653,7.266,7.266,0,0,1-2.579-1.763,6.644,6.644,0,0,1-1.473-2.6,10.667,10.667,0,0,1-.457-3.124Zm23.9,8.14a8.8,8.8,0,0,1-3.345-.583,6.175,6.175,0,0,1-2.342-1.635,7.065,7.065,0,0,1-1.4-2.489,10.054,10.054,0,0,1-.47-3.177,14.028,14.028,0,0,1,.706-4.364,12.355,12.355,0,0,1,2.092-3.924,11.17,11.17,0,0,1,3.378-2.857,9.3,9.3,0,0,1,4.577-1.107,8.841,8.841,0,0,1,3.329.583A6.22,6.22,0,0,1,142.92,10.8a7.1,7.1,0,0,1,1.4,2.49,10.079,10.079,0,0,1,.473,3.179,14.491,14.491,0,0,1-.688,4.364,12.6,12.6,0,0,1-2.036,3.924,10.667,10.667,0,0,1-3.361,2.851,9.543,9.543,0,0,1-4.671,1.109Zm2.688-15.554a3.4,3.4,0,0,0-2.106.689,5.938,5.938,0,0,0-1.525,1.746,8.617,8.617,0,0,0-.93,2.308,9.949,9.949,0,0,0-.307,2.38,5.8,5.8,0,0,0,.58,2.837,2.223,2.223,0,0,0,2.109,1.016,3.381,3.381,0,0,0,2.109-.692,5.965,5.965,0,0,0,1.525-1.744,8.641,8.641,0,0,0,.93-2.308,10.082,10.082,0,0,0,.307-2.38,5.753,5.753,0,0,0-.583-2.836,2.222,2.222,0,0,0-2.109-1.016ZM150.65,28.214h-5.384L149.809,9.1h5.419ZM153.263,6.77A3.332,3.332,0,0,1,151.23,6.1a2.382,2.382,0,0,1-.91-2.054,3.412,3.412,0,0,1,.31-1.434,3.788,3.788,0,0,1,.819-1.164,4.016,4.016,0,0,1,1.181-.782,3.579,3.579,0,0,1,1.433-.289,3.339,3.339,0,0,1,2.036.671A2.4,2.4,0,0,1,157.01,3.1a3.445,3.445,0,0,1-.312,1.437,3.772,3.772,0,0,1-.815,1.164,3.991,3.991,0,0,1-1.18.78A3.555,3.555,0,0,1,153.263,6.77Zm5.841,3.2c.408-.119.864-.263,1.36-.419s1.054-.3,1.675-.433a20.054,20.054,0,0,1,2.07-.329,23.274,23.274,0,0,1,2.6-.129q4.255,0,5.872,2.473t.565,6.759l-2.474,10.321h-5.415l2.4-10.1c.146-.631.261-1.241.346-1.837a4.353,4.353,0,0,0-.019-1.562,1.871,1.871,0,0,0-.67-1.092,2.6,2.6,0,0,0-1.619-.417,10.932,10.932,0,0,0-2.143.221l-3.526,14.79H154.7Z" transform="translate(-36.115 -0.005)" fill="#4d4d4d"/></g></svg>