<svg xmlns="http://www.w3.org/2000/svg" width="312.273" height="211.378" viewBox="0 0 312.273 211.378"><g transform="translate(-102.079 -107.183)"><path d="M202.991,308.194c-27.847-29.47-30.905-136.165,28.454-127.892,31.246,4.355,89.833-7.706,129.3-21.171,38.374-13.092,15.108,86.729-28.454,127.892S230.838,337.664,202.991,308.194Z" transform="translate(-30.257 -18.797)" fill="#ffe3cb"/><path d="M202.557,312.344c14.855,15.721,37.855,21.953,64.761,17.548,26.857-4.4,54.4-18.872,77.564-40.758,17.413-16.454,33.794-43.777,43.817-73.087,9.575-28,11.491-52.075,5-62.831-3.628-6.012-9.836-7.725-17.954-4.955l.224.655c7.883-2.689,13.649-1.122,17.137,4.658,6.388,10.585,4.448,34.438-5.064,62.249-9.988,29.209-26.3,56.426-43.637,72.808-23.062,21.791-50.479,36.2-77.2,40.577-26.672,4.368-49.453-1.791-64.146-17.34Z" transform="translate(-37.199 -14.73)" fill="#ffe3cb"/><path d="M353.981,275.022A192.526,192.526,0,0,0,363.9,256.5V199.974H207.524c-20.244,11.908-26.252,45.052-22.8,75.048h59.86c-1.015-9.317,6.473-16.641,13.7-16.269,6.815.351,13.265,7.544,12.223,16.269Z" transform="translate(-30.258 -34.353)" fill="#fceede"/><path d="M202.557,312.344c14.855,15.721,37.855,21.953,64.761,17.548,26.857-4.4,54.4-18.872,77.564-40.758,17.413-16.454,33.794-43.777,43.817-73.087,9.575-28,11.491-52.075,5-62.831-3.628-6.012-9.836-7.725-17.954-4.955l.224.655c7.883-2.689,13.649-1.122,17.137,4.658,6.388,10.585,4.448,34.438-5.064,62.249-9.988,29.209-26.3,56.426-43.637,72.808-23.062,21.791-50.479,36.2-77.2,40.577-26.672,4.368-49.453-1.791-64.146-17.34Z" transform="translate(-37.199 -14.73)" fill="#ffe3cb"/><path d="M541.207,390.526a73.646,73.646,0,0,1-1.016-10.505,77.472,77.472,0,0,1,.416-10.56,56.358,56.358,0,0,1,2.159-10.347,45.69,45.69,0,0,1,1.927-4.925,37.623,37.623,0,0,1,2.637-4.573,39.611,39.611,0,0,0-4.266,9.591c-.485,1.684-.922,3.382-1.261,5.1s-.6,3.454-.793,5.2a82.8,82.8,0,0,0-.508,10.507q.024,2.633.2,5.264C540.816,387.031,540.965,388.783,541.207,390.526Z" transform="translate(-162.185 -89.753)" fill="#50661a"/><path d="M524.753,360.964s-18.5,2.331-26.557-5.61c-5.976-5.892-.292-16.034,7.9-14.2C511.577,342.379,518.34,347.252,524.753,360.964Z" transform="translate(-145.731 -86.539)" fill="#5e7c24"/><path d="M525.826,362.93c-2.6-.791-5.154-1.716-7.671-2.741s-4.982-2.17-7.4-3.427q-1.8-.956-3.538-2.036a35.59,35.59,0,0,1-3.36-2.323,25.081,25.081,0,0,1-3.023-2.75,12.165,12.165,0,0,1-2.222-3.407,12.071,12.071,0,0,0,2.367,3.272,25.184,25.184,0,0,0,3.067,2.637,51.726,51.726,0,0,0,6.9,4.249c2.384,1.283,4.848,2.413,7.33,3.5q1.863.813,3.754,1.563C523.285,361.977,524.548,362.471,525.826,362.93Z" transform="translate(-146.804 -88.505)" fill="#50661a"/><path d="M509.265,351.626l.018-2.73c-.005-.907,0-1.813-.051-2.716a23.724,23.724,0,0,0-.24-2.692l-.126-.661c-.045-.22-.122-.429-.18-.646a4.77,4.77,0,0,0-.244-.625,5.463,5.463,0,0,0-.363-.571,4.6,4.6,0,0,1,1.219,2.444,18.331,18.331,0,0,1,.338,2.734c.018.916.019,1.832-.043,2.744A22.945,22.945,0,0,1,509.265,351.626Z" transform="translate(-150.309 -86.557)" fill="#50661a"/><path d="M496.134,356.666c1.088-.189,2.161-.345,3.209-.587a9.649,9.649,0,0,0,1.522-.479,2.2,2.2,0,0,0,1.189-1,1.909,1.909,0,0,1-1.044,1.284,6.2,6.2,0,0,1-1.574.592,10.005,10.005,0,0,1-3.3.192Z" transform="translate(-145.886 -91.597)" fill="#50661a"/><path d="M501.446,363.445a30.8,30.8,0,0,0,4.3-.863,8.063,8.063,0,0,0,1.971-.845,2.817,2.817,0,0,0,1.311-1.633,2.552,2.552,0,0,1-1.13,1.893,6.568,6.568,0,0,1-2.034.974A12.751,12.751,0,0,1,501.446,363.445Z" transform="translate(-147.853 -93.635)" fill="#50661a"/><path d="M517.875,356.041q.463-1.356.85-2.723c.251-.914.5-1.828.661-2.758a16.352,16.352,0,0,0,.253-5.632,9.487,9.487,0,0,1,.432,2.84,16.981,16.981,0,0,1-.288,2.87,22.451,22.451,0,0,1-.763,2.774,17.7,17.7,0,0,1-1.146,2.629Z" transform="translate(-153.935 -88.017)" fill="#50661a"/><path d="M513.478,368.746c.59-.155,1.161-.348,1.72-.555a9.609,9.609,0,0,0,1.6-.76,5.889,5.889,0,0,0,1.353-1.1,4.775,4.775,0,0,0,.845-1.552,3.434,3.434,0,0,1-.6,1.746,4.8,4.8,0,0,1-1.394,1.251,6.685,6.685,0,0,1-1.712.713A6.89,6.89,0,0,1,513.478,368.746Z" transform="translate(-152.307 -95.368)" fill="#50661a"/><path d="M527.907,351.543a9,9,0,0,1,.87,2.42,10.391,10.391,0,0,1,.2,2.584,8.431,8.431,0,0,1-.543,2.538,7.617,7.617,0,0,1-1.312,2.214,11.557,11.557,0,0,0,1.017-2.316,9.235,9.235,0,0,0,.433-2.459,11.879,11.879,0,0,0-.1-2.506A15.209,15.209,0,0,0,527.907,351.543Z" transform="translate(-157.36 -90.466)" fill="#50661a"/><path d="M526.466,371.45c.673-.337,1.334-.626,1.968-.966a7.842,7.842,0,0,0,1.775-1.227,3.332,3.332,0,0,1-1.585,1.585A5.172,5.172,0,0,1,526.466,371.45Z" transform="translate(-157.116 -97.025)" fill="#50661a"/><path d="M535.767,361.457a9.058,9.058,0,0,1,.636,2.876,6.465,6.465,0,0,1-.071,1.489,2.862,2.862,0,0,1-.564,1.375,4.536,4.536,0,0,0,.25-1.41,12.605,12.605,0,0,0-.019-1.43C535.948,363.4,535.833,362.441,535.767,361.457Z" transform="translate(-160.559 -94.137)" fill="#50661a"/><path d="M532.411,354.2s-14.417-11.831-14.191-23.138c.168-8.391,11.44-11.239,15.742-4.033C536.843,331.854,537.956,340.116,532.411,354.2Z" transform="translate(-154.062 -79.869)" fill="#c4ce6e"/><path d="M536.251,354.231a79.1,79.1,0,0,1-3.366-7.424q-1.5-3.793-2.627-7.729-.543-1.97-.947-3.978a33.9,33.9,0,0,1-.61-4.049,25.137,25.137,0,0,1-.052-4.1,11.713,11.713,0,0,1,1-3.953,12.563,12.563,0,0,0-.693,3.971,25.169,25.169,0,0,0,.225,4.028,52.78,52.78,0,0,0,1.682,7.91c.7,2.611,1.573,5.174,2.473,7.728q.675,1.916,1.417,3.809C535.228,351.717,535.74,352.972,536.251,354.231Z" transform="translate(-157.902 -79.899)" fill="#8b9d36"/><path d="M529.631,334.434c1.279-1.316,2.6-2.555,3.851-3.847.626-.646,1.23-1.309,1.8-2a11.541,11.541,0,0,0,.763-1.093,4.712,4.712,0,0,0,.307-.591,6.3,6.3,0,0,0,.193-.648,4.423,4.423,0,0,1-.863,2.618,15.365,15.365,0,0,1-1.745,2.152A21.144,21.144,0,0,1,529.631,334.434Z" transform="translate(-158.287 -81.104)" fill="#8b9d36"/><path d="M520.121,329.2c.948.6,1.8,1.246,2.695,1.833a11.785,11.785,0,0,0,1.362.786,2.341,2.341,0,0,0,1.516.257,1.851,1.851,0,0,1-1.679.207,5.733,5.733,0,0,1-1.545-.724,8.216,8.216,0,0,1-2.348-2.358Z" transform="translate(-154.767 -82.196)" fill="#8b9d36"/><path d="M518.309,338.237c1.225.846,2.39,1.717,3.636,2.428a8.721,8.721,0,0,0,1.931.861,2.931,2.931,0,0,0,2.07-.086,2.49,2.49,0,0,1-2.17.567,6.3,6.3,0,0,1-2.143-.8,11.043,11.043,0,0,1-1.818-1.325A9.927,9.927,0,0,1,518.309,338.237Z" transform="translate(-154.096 -85.54)" fill="#8b9d36"/><path d="M531.666,344.475c.856-.434,1.69-.888,2.522-1.336s1.647-.921,2.436-1.431a26.706,26.706,0,0,0,2.291-1.627,17.056,17.056,0,0,0,2.033-1.968,8.671,8.671,0,0,1-1.7,2.334,14.612,14.612,0,0,1-2.281,1.792A17.241,17.241,0,0,1,531.666,344.475Z" transform="translate(-159.041 -85.494)" fill="#8b9d36"/><path d="M522.469,350.869c.55.281,1.087.546,1.627.79a11.079,11.079,0,0,0,1.641.608,6.4,6.4,0,0,0,1.688.248,5.452,5.452,0,0,0,1.716-.367,3.182,3.182,0,0,1-1.668.856,4.615,4.615,0,0,1-1.905-.131,6.227,6.227,0,0,1-1.706-.784A5.826,5.826,0,0,1,522.469,350.869Z" transform="translate(-155.636 -90.217)" fill="#8b9d36"/><path d="M542.41,348.244a8.893,8.893,0,0,1-2.822,4.306,9.866,9.866,0,0,1-1.067.773c-.188.113-.389.206-.582.31a3.308,3.308,0,0,1-.6.265,6.967,6.967,0,0,1-2.546.488,13.565,13.565,0,0,0,2.344-.936,10.431,10.431,0,0,0,2.048-1.381,13.942,13.942,0,0,0,1.748-1.767A18.919,18.919,0,0,0,542.41,348.244Z" transform="translate(-160.197 -89.245)" fill="#8b9d36"/><path d="M530.194,361.442c.754.181,1.416.438,2.09.658a13.208,13.208,0,0,0,2.076.552,2.3,2.3,0,0,1-1.135.25,3.987,3.987,0,0,1-1.141-.205,4.749,4.749,0,0,1-1.029-.5A3.423,3.423,0,0,1,530.194,361.442Z" transform="translate(-158.496 -94.131)" fill="#8b9d36"/><path d="M542.331,360.436a5.982,5.982,0,0,1-.657,1.339,8.018,8.018,0,0,1-.912,1.178,5.793,5.793,0,0,1-1.159.965,2.612,2.612,0,0,1-1.439.466,5.611,5.611,0,0,0,1.143-.858c.342-.321.677-.653,1-1C540.963,361.834,541.589,361.11,542.331,360.436Z" transform="translate(-161.447 -93.759)" fill="#8b9d36"/><path d="M523.644,391.229s-18.638.67-25.951-7.957c-5.427-6.4,1.14-16,9.134-13.441C512.179,371.542,518.48,377,523.644,391.229Z" transform="translate(-145.728 -97.08)" fill="#c4ce6e"/><path d="M525.009,392.86a79.106,79.106,0,0,1-7.436-3.339c-2.424-1.233-4.786-2.592-7.084-4.056q-1.711-1.118-3.343-2.356a33.9,33.9,0,0,1-3.137-2.632,25.13,25.13,0,0,1-2.751-3.039,11.712,11.712,0,0,1-1.865-3.626,12.56,12.56,0,0,0,2.109,3.436,25.178,25.178,0,0,0,2.835,2.871,52.8,52.8,0,0,0,6.5,4.818c2.251,1.5,4.6,2.839,6.968,4.157q1.774.989,3.583,1.918C522.578,391.652,523.793,392.254,525.009,392.86Z" transform="translate(-147.093 -98.711)" fill="#8b9d36"/><path d="M509.523,380.123c.088-1.833.255-3.633.341-5.433.042-.9.056-1.8.024-2.688a11.545,11.545,0,0,0-.151-1.324,4.722,4.722,0,0,0-.161-.647,6.311,6.311,0,0,0-.284-.614,4.423,4.423,0,0,1,1.085,2.534,15.36,15.36,0,0,1,.116,2.768,21.144,21.144,0,0,1-.97,5.4Z" transform="translate(-150.757 -97.084)" fill="#8b9d36"/><path d="M495.886,384.282c1.1-.18,2.178-.259,3.233-.409a11.791,11.791,0,0,0,1.541-.312,2.341,2.341,0,0,0,1.307-.811,1.852,1.852,0,0,1-1.122,1.266,5.74,5.74,0,0,1-1.638.479A8.218,8.218,0,0,1,495.886,384.282Z" transform="translate(-145.795 -102.02)" fill="#8b9d36"/><path d="M500.505,391.595c1.478-.177,2.928-.294,4.333-.586a8.718,8.718,0,0,0,2.018-.633,2.93,2.93,0,0,0,1.495-1.434A2.49,2.49,0,0,1,507.1,390.8a6.3,6.3,0,0,1-2.133.822,11.042,11.042,0,0,1-2.239.209,9.932,9.932,0,0,1-2.221-.239Z" transform="translate(-147.505 -104.312)" fill="#8b9d36"/><path d="M517.122,385.382c.355-.892.68-1.784,1.007-2.671s.625-1.781.88-2.685a26.74,26.74,0,0,0,.641-2.736,17.061,17.061,0,0,0,.222-2.821,8.672,8.672,0,0,1,.266,2.878,14.6,14.6,0,0,1-.524,2.853A17.24,17.24,0,0,1,517.122,385.382Z" transform="translate(-153.656 -98.954)" fill="#8b9d36"/><path d="M511.983,397.84c.6-.153,1.177-.31,1.743-.484a11.074,11.074,0,0,0,1.633-.63,6.394,6.394,0,0,0,1.43-.931,5.45,5.45,0,0,0,1.044-1.41,3.181,3.181,0,0,1-.685,1.745,4.617,4.617,0,0,1-1.515,1.163,6.23,6.23,0,0,1-1.8.541,5.827,5.827,0,0,1-1.852.007Z" transform="translate(-151.754 -106.327)" fill="#8b9d36"/><path d="M527.586,381.744a8.892,8.892,0,0,1,.733,5.1,9.871,9.871,0,0,1-.288,1.286c-.066.209-.155.412-.231.618a3.317,3.317,0,0,1-.276.6,6.967,6.967,0,0,1-1.586,2.051,13.574,13.574,0,0,0,1.138-2.253,10.432,10.432,0,0,0,.621-2.391,13.946,13.946,0,0,0,.141-2.481A18.91,18.91,0,0,0,527.586,381.744Z" transform="translate(-156.92 -101.647)" fill="#8b9d36"/><path d="M524.772,401.6c.684-.363,1.351-.608,2-.89a13.209,13.209,0,0,0,1.921-.96,2.3,2.3,0,0,1-.686.939,3.984,3.984,0,0,1-.991.6,4.737,4.737,0,0,1-1.1.307,3.421,3.421,0,0,1-1.146,0Z" transform="translate(-156.488 -108.313)" fill="#8b9d36"/><path d="M534.741,392.28a5.989,5.989,0,0,1,.393,1.439,8.038,8.038,0,0,1,.1,1.487,5.785,5.785,0,0,1-.23,1.49,2.611,2.611,0,0,1-.77,1.3,5.61,5.61,0,0,0,.289-1.4c.044-.467.075-.937.082-1.412C534.64,394.233,534.631,393.277,534.741,392.28Z" transform="translate(-159.99 -105.548)" fill="#8b9d36"/><path d="M541.815,362.322s18.6,1.35,26.224-7c5.656-6.2-.556-16.027-8.638-13.765C553.991,343.067,547.5,348.291,541.815,362.322Z" transform="translate(-162.798 -86.645)" fill="#5e7c24"/><path d="M541.815,364.086c1.251-.525,2.487-1.086,3.714-1.663s2.453-1.154,3.666-1.759c2.421-1.216,4.822-2.475,7.135-3.882a51.747,51.747,0,0,0,6.665-4.608,25.2,25.2,0,0,0,2.924-2.8,12.07,12.07,0,0,0,2.19-3.392,12.17,12.17,0,0,1-2.039,3.52,25.1,25.1,0,0,1-2.874,2.906,35.612,35.612,0,0,1-3.233,2.5q-1.674,1.169-3.426,2.22-3.513,2.078-7.208,3.813C546.872,362.1,544.367,363.16,541.815,364.086Z" transform="translate(-162.798 -88.409)" fill="#50661a"/><path d="M572.459,351.923a22.981,22.981,0,0,1-.472-2.7c-.11-.908-.158-1.822-.188-2.738a18.339,18.339,0,0,1,.193-2.748,4.6,4.6,0,0,1,1.088-2.5,5.477,5.477,0,0,0-.333.589,4.749,4.749,0,0,0-.211.637c-.046.22-.112.433-.145.655l-.09.667a23.72,23.72,0,0,0-.1,2.7c0,.9.049,1.809.092,2.715Z" transform="translate(-173.899 -86.65)" fill="#50661a"/><path d="M583.116,356.446a10,10,0,0,1-3.307-.018,6.2,6.2,0,0,1-1.6-.508,1.909,1.909,0,0,1-1.111-1.227,2.2,2.2,0,0,0,1.24.938,9.627,9.627,0,0,0,1.545.4C580.94,356.216,582.02,356.315,583.116,356.446Z" transform="translate(-175.859 -91.633)" fill="#50661a"/><path d="M577.2,363.548a12.755,12.755,0,0,1-4.432-.242,6.569,6.569,0,0,1-2.083-.865,2.553,2.553,0,0,1-1.229-1.831,2.817,2.817,0,0,0,1.4,1.562,8.061,8.061,0,0,0,2.013.74,30.807,30.807,0,0,0,4.335.635Z" transform="translate(-173.03 -93.823)" fill="#50661a"/><path d="M563.638,356.842a17.686,17.686,0,0,1-1.283-2.565,22.441,22.441,0,0,1-.908-2.73,16.982,16.982,0,0,1-.439-2.851,9.488,9.488,0,0,1,.282-2.859,16.352,16.352,0,0,0,.55,5.611c.212.92.507,1.82.806,2.719S563.28,355.957,563.638,356.842Z" transform="translate(-169.899 -88.354)" fill="#50661a"/><path d="M566.671,369.413a6.894,6.894,0,0,1-1.828-.159,6.694,6.694,0,0,1-1.747-.621,4.8,4.8,0,0,1-1.458-1.175,3.434,3.434,0,0,1-.686-1.712,4.775,4.775,0,0,0,.926,1.505,5.9,5.9,0,0,0,1.409,1.024,9.62,9.62,0,0,0,1.639.675C565.493,369.127,566.073,369.29,566.671,369.413Z" transform="translate(-169.883 -95.725)" fill="#50661a"/><path d="M553.629,352.849a15.209,15.209,0,0,0-.433,2.5,11.875,11.875,0,0,0,.028,2.508,9.227,9.227,0,0,0,.562,2.433,11.548,11.548,0,0,0,1.138,2.259,7.614,7.614,0,0,1-1.427-2.141,8.425,8.425,0,0,1-.676-2.506,10.386,10.386,0,0,1,.066-2.591,9,9,0,0,1,.741-2.463Z" transform="translate(-166.854 -90.95)" fill="#50661a"/><path d="M554.885,372.744a5.168,5.168,0,0,1-2.187-.493,3.331,3.331,0,0,1-1.667-1.5,7.837,7.837,0,0,0,1.838,1.131C553.52,372.19,554.2,372.443,554.885,372.744Z" transform="translate(-166.21 -97.578)" fill="#50661a"/><path d="M546.982,363.141c-.014.985-.078,1.947-.077,2.907a12.6,12.6,0,0,0,.057,1.429,4.532,4.532,0,0,0,.324,1.395,2.861,2.861,0,0,1-.636-1.343,6.469,6.469,0,0,1-.15-1.483A9.059,9.059,0,0,1,546.982,363.141Z" transform="translate(-164.532 -94.76)" fill="#50661a"/><path d="M540.692,391.316s18.6,1.35,26.224-7c5.656-6.2-.556-16.027-8.638-13.765C552.868,372.06,546.372,377.285,540.692,391.316Z" transform="translate(-162.382 -97.379)" fill="#8b9d36"/><path d="M540.692,393.08c1.237-.561,2.473-1.118,3.692-1.713q1.839-.866,3.651-1.786c2.411-1.231,4.81-2.487,7.115-3.9a52.773,52.773,0,0,0,6.667-4.578,25.168,25.168,0,0,0,2.937-2.765,12.561,12.561,0,0,0,2.233-3.357,11.714,11.714,0,0,1-2,3.555,25.128,25.128,0,0,1-2.86,2.936,33.924,33.924,0,0,1-3.231,2.516q-1.675,1.176-3.426,2.232c-2.35,1.379-4.76,2.651-7.228,3.795a79.128,79.128,0,0,1-7.553,3.066Z" transform="translate(-162.382 -99.143)" fill="#5e7c24"/><path d="M571.269,380.917a21.144,21.144,0,0,1-.772-5.435,15.366,15.366,0,0,1,.217-2.762,4.423,4.423,0,0,1,1.177-2.493,6.334,6.334,0,0,0-.306.6,4.723,4.723,0,0,0-.185.64,11.558,11.558,0,0,0-.2,1.317c-.065.891-.083,1.787-.074,2.687C571.146,377.277,571.247,379.082,571.269,380.917Z" transform="translate(-173.416 -97.384)" fill="#5e7c24"/><path d="M581.992,385.44a8.217,8.217,0,0,1-3.327.093,5.738,5.738,0,0,1-1.619-.539,1.852,1.852,0,0,1-1.075-1.306,2.341,2.341,0,0,0,1.276.858,11.773,11.773,0,0,0,1.529.368C579.826,385.1,580.895,385.22,581.992,385.44Z" transform="translate(-175.443 -102.367)" fill="#5e7c24"/><path d="M576.073,392.542a9.937,9.937,0,0,1-2.229.158,11.042,11.042,0,0,1-2.23-.291,6.3,6.3,0,0,1-2.1-.9,2.489,2.489,0,0,1-1.183-1.905,2.931,2.931,0,0,0,1.442,1.488,8.723,8.723,0,0,0,1.993.706C573.158,392.141,574.6,392.311,576.073,392.542Z" transform="translate(-172.614 -104.558)" fill="#5e7c24"/><path d="M562.466,385.836a17.238,17.238,0,0,1-2.3-5.268,14.612,14.612,0,0,1-.42-2.87,8.669,8.669,0,0,1,.371-2.866,17.045,17.045,0,0,0,.119,2.827,26.776,26.776,0,0,0,.54,2.757c.221.913.5,1.813.781,2.715S562.144,384.932,562.466,385.836Z" transform="translate(-169.434 -99.088)" fill="#5e7c24"/><path d="M565.547,398.407a5.827,5.827,0,0,1-1.85-.075,6.225,6.225,0,0,1-1.777-.606,4.615,4.615,0,0,1-1.472-1.217,3.182,3.182,0,0,1-.62-1.769,5.452,5.452,0,0,0,.992,1.448,6.4,6.4,0,0,0,1.395.982,11.093,11.093,0,0,0,1.609.69C564.382,398.054,564.955,398.232,565.547,398.407Z" transform="translate(-169.467 -106.459)" fill="#5e7c24"/><path d="M552.436,381.843a18.9,18.9,0,0,0-.344,2.512,13.947,13.947,0,0,0,.051,2.485,10.427,10.427,0,0,0,.534,2.412,13.558,13.558,0,0,0,1.055,2.292,6.965,6.965,0,0,1-1.51-2.107,3.321,3.321,0,0,1-.254-.607c-.069-.208-.15-.414-.209-.626a9.893,9.893,0,0,1-.241-1.3A8.892,8.892,0,0,1,552.436,381.843Z" transform="translate(-166.369 -101.684)" fill="#5e7c24"/><path d="M553.762,401.738a3.42,3.42,0,0,1-1.145-.045,4.746,4.746,0,0,1-1.09-.347,3.984,3.984,0,0,1-.968-.637,2.3,2.3,0,0,1-.651-.964,13.213,13.213,0,0,0,1.885,1.03C552.433,401.081,553.091,401.35,553.762,401.738Z" transform="translate(-165.794 -108.312)" fill="#5e7c24"/><path d="M545.793,392.135c.074,1,.03,1.956.035,2.908-.01.475,0,.947.031,1.415a5.612,5.612,0,0,0,.238,1.41,2.611,2.611,0,0,1-.722-1.329,5.787,5.787,0,0,1-.176-1.5,8.029,8.029,0,0,1,.15-1.482,5.985,5.985,0,0,1,.445-1.423Z" transform="translate(-164.051 -105.494)" fill="#5e7c24"/><path d="M549.435,333.252s-5.157-17.923,1.446-27.1c4.9-6.814,15.8-2.762,15.25,5.613C565.765,317.367,561.992,324.8,549.435,333.252Z" transform="translate(-164.909 -72.386)" fill="#8b9d36"/><path d="M550.562,333.89A79.1,79.1,0,0,1,552,325.867c.61-2.651,1.358-5.271,2.222-7.855q.671-1.93,1.478-3.813a33.9,33.9,0,0,1,1.8-3.68,25.139,25.139,0,0,1,2.283-3.4,11.711,11.711,0,0,1,3.067-2.687,12.564,12.564,0,0,0-2.824,2.877,25.17,25.17,0,0,0-2.1,3.445,52.787,52.787,0,0,0-3.1,7.467c-.907,2.546-1.641,5.153-2.349,7.766q-.531,1.961-.995,3.941C551.146,331.239,550.855,332.564,550.562,333.89Z" transform="translate(-166.036 -73.024)" fill="#5e7c24"/><path d="M560.326,315.784c1.8-.357,3.587-.631,5.354-.983.882-.177,1.755-.38,2.614-.627a11.539,11.539,0,0,0,1.248-.467,4.723,4.723,0,0,0,.588-.313,6.3,6.3,0,0,0,.527-.424,4.423,4.423,0,0,1-2.2,1.666,15.359,15.359,0,0,1-2.658.782A21.138,21.138,0,0,1,560.326,315.784Z" transform="translate(-169.651 -76.186)" fill="#5e7c24"/><path d="M558.191,303.775c.442,1.028.778,2.05,1.179,3.038a11.8,11.8,0,0,0,.675,1.42,2.341,2.341,0,0,0,1.1,1.071,1.851,1.851,0,0,1-1.5-.782,5.734,5.734,0,0,1-.861-1.473,8.217,8.217,0,0,1-.6-3.275Z" transform="translate(-168.86 -72.782)" fill="#5e7c24"/><path d="M551.574,310.185c.529,1.391.993,2.77,1.617,4.062a8.722,8.722,0,0,0,1.1,1.8,2.932,2.932,0,0,0,1.753,1.1,2.49,2.49,0,0,1-2.108-.764,6.3,6.3,0,0,1-1.313-1.871,11.036,11.036,0,0,1-.745-2.122A9.927,9.927,0,0,1,551.574,310.185Z" transform="translate(-166.411 -75.155)" fill="#5e7c24"/><path d="M556.91,325.98c.951.129,1.9.228,2.835.331s1.879.176,2.818.2a26.761,26.761,0,0,0,2.809-.04,17.062,17.062,0,0,0,2.79-.467,8.67,8.67,0,0,1-2.728.954,14.622,14.622,0,0,1-2.9.181A17.239,17.239,0,0,1,556.91,325.98Z" transform="translate(-168.387 -81.003)" fill="#5e7c24"/><path d="M547.831,322.947c.294.544.586,1.067.891,1.574a11.084,11.084,0,0,0,1.006,1.432,6.4,6.4,0,0,0,1.249,1.162,5.454,5.454,0,0,0,1.621.672,3.182,3.182,0,0,1-1.859-.242,4.613,4.613,0,0,1-1.494-1.189,6.226,6.226,0,0,1-.96-1.614,5.827,5.827,0,0,1-.455-1.8Z" transform="translate(-165.025 -79.88)" fill="#5e7c24"/><path d="M563.691,334.643a8.891,8.891,0,0,1-4.767,1.944,9.876,9.876,0,0,1-1.317.031c-.219-.014-.437-.051-.655-.075a3.312,3.312,0,0,1-.646-.124,6.967,6.967,0,0,1-2.374-1.043,13.57,13.57,0,0,0,2.461.559,10.42,10.42,0,0,0,2.47.025,13.957,13.957,0,0,0,2.442-.463,18.928,18.928,0,0,0,2.387-.855Z" transform="translate(-167.284 -84.21)" fill="#5e7c24"/><path d="M548.193,336.036c.518.576.917,1.164,1.348,1.728a13.209,13.209,0,0,0,1.4,1.632,2.3,2.3,0,0,1-1.077-.438,3.986,3.986,0,0,1-.823-.816,4.738,4.738,0,0,1-.564-.995A3.421,3.421,0,0,1,548.193,336.036Z" transform="translate(-165.159 -84.726)" fill="#5e7c24"/><path d="M557.44,343.486a5.991,5.991,0,0,1-1.3.729,8.022,8.022,0,0,1-1.42.452,5.789,5.789,0,0,1-1.5.137,2.612,2.612,0,0,1-1.449-.433,5.612,5.612,0,0,0,1.428-.058c.464-.07.927-.154,1.391-.261C555.52,343.86,556.446,343.619,557.44,343.486Z" transform="translate(-166.483 -87.483)" fill="#5e7c24"/><path d="M520.856,406.316v3.367a1.167,1.167,0,0,0,1.155,1.178h23.146a1.167,1.167,0,0,0,1.155-1.178v-3.1a1.167,1.167,0,0,0-1.142-1.178l-23.146-.264a1.167,1.167,0,0,0-1.168,1.178Z" transform="translate(-155.039 -110.308)" fill="#d6694b"/><path d="M522.611,414.226l.823,17.378H544.49l1.368-17.378Z" transform="translate(-155.689 -113.673)" fill="#e19974"/><circle cx="17.655" cy="17.655" r="17.655" transform="translate(304.259 107.814)" fill="#748ce2"/><path d="M440.406,143.756a18.286,18.286,0,1,1,2.835-36.35h0a18.286,18.286,0,0,1-2.835,36.35Zm-.02-35.314a17.036,17.036,0,1,0,2.658.209,17.037,17.037,0,0,0-2.658-.209Z" transform="translate(-118.482)" fill="#3b5a9e"/><path d="M460.231,137.808a.331.331,0,0,1-.049,0l-11.246-1.771a.315.315,0,0,1,.1-.622l11.246,1.771a.315.315,0,0,1-.049.626Z" transform="translate(-128.314 -10.449)" fill="#3b5a9e"/><path d="M451.723,132.681a.315.315,0,0,1-.3-.219l-4.014-12.59a.315.315,0,0,1,.6-.192l4.014,12.59a.315.315,0,0,1-.2.4A.322.322,0,0,1,451.723,132.681Z" transform="translate(-127.842 -4.545)" fill="#3b5a9e"/><path d="M185.044,179.568h-46.38a1.26,1.26,0,0,1-1.26-1.26V128.1a1.26,1.26,0,0,1,1.26-1.26h54.973a1.26,1.26,0,0,1,1.26,1.26v41.991Z" transform="translate(-13.078 -7.277)" fill="#ffba55"/><path d="M221.641,204.993a1.26,1.26,0,0,0,1.26-1.26v-8.22l-9.852,9.48Z" transform="translate(-41.083 -32.701)" fill="#ffba55"/><path d="M152.493,129.776a.945.945,0,0,1-.945-.945v-9.069a.945.945,0,1,1,1.889,0v9.069a.945.945,0,0,1-.945.945Z" transform="translate(-18.314 -4.308)" fill="#e6952a"/><path d="M142.493,129.776a.945.945,0,0,1-.945-.945v-9.069a.945.945,0,1,1,1.889,0v9.069a.945.945,0,0,1-.945.945Z" transform="translate(-14.612 -4.308)" fill="#e6952a"/><path d="M162.493,129.776a.945.945,0,0,1-.945-.945v-9.069a.945.945,0,1,1,1.889,0v9.069a.945.945,0,0,1-.945.945Z" transform="translate(-22.017 -4.308)" fill="#e6952a"/><path d="M172.493,129.776a.945.945,0,0,1-.945-.945v-9.069a.945.945,0,1,1,1.889,0v9.069a.945.945,0,0,1-.945.945Z" transform="translate(-25.719 -4.308)" fill="#e6952a"/><path d="M182.493,129.776a.945.945,0,0,1-.945-.945v-9.069a.945.945,0,1,1,1.889,0v9.069a.945.945,0,0,1-.945.945Z" transform="translate(-29.421 -4.308)" fill="#e6952a"/><path d="M192.493,129.776a.945.945,0,0,1-.945-.945v-9.069a.945.945,0,1,1,1.889,0v9.069a.945.945,0,0,1-.945.945Z" transform="translate(-33.123 -4.308)" fill="#e6952a"/><path d="M202.493,129.776a.945.945,0,0,1-.945-.945v-9.069a.945.945,0,1,1,1.889,0v9.069a.945.945,0,0,1-.945.945Z" transform="translate(-36.825 -4.308)" fill="#e6952a"/><path d="M212.493,129.776a.945.945,0,0,1-.945-.945v-9.069a.945.945,0,0,1,1.889,0v9.069a.945.945,0,0,1-.945.945Z" transform="translate(-40.528 -4.308)" fill="#e6952a"/><path d="M222.493,129.776a.945.945,0,0,1-.945-.945v-9.069a.945.945,0,1,1,1.889,0v9.069a.945.945,0,0,1-.945.945Z" transform="translate(-44.23 -4.308)" fill="#e6952a"/><path d="M222.831,195.442l-9.852.091.088,9.479Z" transform="translate(-41.057 -32.675)" fill="#e6952a"/><circle cx="4.081" cy="4.081" r="4.081" transform="translate(154.344 131.149)" fill="#e6952a"/><circle cx="4.081" cy="4.081" r="4.081" transform="translate(165.668 131.149)" fill="#e6952a"/><circle cx="4.081" cy="4.081" r="4.081" transform="translate(130.783 141.226)" fill="#e6952a"/><circle cx="4.081" cy="4.081" r="4.081" transform="translate(142.693 141.226)" fill="#e6952a"/><circle cx="4.081" cy="4.081" r="4.081" transform="translate(154.344 141.226)" fill="#e6952a"/><circle cx="4.081" cy="4.081" r="4.081" transform="translate(165.668 141.226)" fill="#e6952a"/><circle cx="4.081" cy="4.081" r="4.081" transform="translate(130.783 151.302)" fill="#e6952a"/><circle cx="4.081" cy="4.081" r="4.081" transform="translate(142.693 151.302)" fill="#e6952a"/><circle cx="4.081" cy="4.081" r="4.081" transform="translate(154.344 151.302)" fill="#e6952a"/><circle cx="4.081" cy="4.081" r="4.081" transform="translate(165.668 151.302)" fill="#e6952a"/><circle cx="4.081" cy="4.081" r="4.081" transform="translate(130.783 160.749)" fill="#e6952a"/><path d="M169.282,177.379A23.743,23.743,0,0,1,172,181.164c.389.669.77,1.343,1.109,2.042a16.861,16.861,0,0,1,.913,2.158,16.889,16.889,0,0,1-1.458-1.834c-.451-.632-.861-1.289-1.262-1.951a23.758,23.758,0,0,1-2.022-4.2Z" transform="translate(-24.88 -25.988)" fill="#af2f2f"/><path d="M174.026,177.379a23.762,23.762,0,0,1-2.023,4.2c-.4.662-.812,1.318-1.262,1.951a16.888,16.888,0,0,1-1.459,1.834,16.861,16.861,0,0,1,.913-2.158c.34-.7.72-1.373,1.109-2.042a23.743,23.743,0,0,1,2.721-3.785Z" transform="translate(-24.88 -25.988)" fill="#af2f2f"/><path d="M413.722,442.079H102.709a.63.63,0,0,1,0-1.26H413.722a.63.63,0,1,1,0,1.26Z" transform="translate(0 -123.518)" fill="#935b50"/><path d="M170.24,206.645v-6.671h26.916l.088,6.716Z" transform="translate(-25.234 -34.353)" fill="#fcd095"/><path d="M213.067,206.69l-.088-6.716h8.867Z" transform="translate(-41.057 -34.353)" fill="#efa54d"/><path d="M213.118,206.69h9.809v-6.716H220.32Z" transform="translate(-41.109 -34.353)" fill="#fcd095"/><path d="M320.473,354.089h37.953V332.9H320.542Z" transform="translate(-80.853 -83.564)" fill="#935b50"/><path d="M312.985,302.744h45.3c2.522,0,3.307-2.045,3.307-4.567V262.1c0-2.522-.785-4.567-3.307-4.567h-45.3c-2.522,0-3.307,2.045-3.307,4.567v36.08C309.678,300.7,310.463,302.744,312.985,302.744Z" transform="translate(-76.857 -55.661)" fill="#ef8870"/><rect width="61.01" height="6.271" rx="1.611" transform="translate(289.284 270.524) rotate(180)" fill="#d6694b"/><rect width="52.79" height="3.958" rx="1.611" transform="translate(285.265 274.482) rotate(180)" fill="#935b50"/><rect width="5.845" height="20.562" transform="translate(261.884 295.044) rotate(180)" fill="#d6694b"/><path d="M324.512,408.612l-37.48,13.2v-4.749l37.48-11.589h5.846l37.51,11.589v4.749l-37.51-13.2Z" transform="translate(-68.473 -110.434)" fill="#935b50"/><rect width="8.585" height="6.211" rx="1.611" transform="translate(263.254 299.793) rotate(180)" fill="#e19974"/><rect width="5.571" height="9.864" rx="2.014" transform="translate(304.526 316.396) rotate(180)" fill="#d6694b"/><rect width="5.571" height="9.864" rx="2.014" transform="translate(213.427 306.532)" fill="#d6694b"/><path d="M289.094,258.781s-6.258-15.984-6.485-16.03-1.812-.222,1.03,8.112c0,0-2.131-.154-3.181,3.813a4.318,4.318,0,0,0,.748,3.717c.991,1.3,2.435,2.918,3.532,3.01Z" transform="translate(-65.987 -50.186)" fill="#f9ad9b"/><path d="M422.871,410.83l2.209,6.35a35.759,35.759,0,0,0,17.091,8.11s3.148,1.446,3.148,3.728H414.28V417.18l-.958-6.074Z" transform="translate(-115.228 -112.416)" fill="#f9977a"/><path d="M445.118,437.256h-30.2a.771.771,0,0,0-.771.771v0a.771.771,0,0,0,.771.771h31.131S446.941,437.865,445.118,437.256Z" transform="translate(-115.534 -122.199)" fill="#d6694b"/><path d="M447.472,435.049a5.417,5.417,0,0,1,1.292-3.8,3.236,3.236,0,0,0-2.735-.979,9.767,9.767,0,0,0-.882,1.932,4.344,4.344,0,0,0-.19,3.23Z" transform="translate(-126.85 -119.605)" fill="#d6694b"/><path d="M435.068,424.243s-3.022,4.363-1.45,8.072h-2.955s-1.2-6.144,1.982-9.563C432.645,422.752,434.624,422.8,435.068,424.243Z" transform="translate(-121.566 -116.829)" fill="#d6694b"/><path d="M353.586,400.906l.157,6.721a44.963,44.963,0,0,0,14.982,13.343s2.554,2.341,1.855,4.513l-29.546-9.511,3.628-11.268.95-6.076Z" transform="translate(-88.465 -107.898)" fill="#f9977a"/><path d="M370.443,433.226,341.7,423.973a.771.771,0,0,0-.971.5v0a.771.771,0,0,0,.5.971l29.634,9.54S371.992,434.364,370.443,433.226Z" transform="translate(-88.338 -117.267)" fill="#d6694b"/><path d="M372.707,431.979a5.417,5.417,0,0,1,2.393-3.218,3.236,3.236,0,0,0-2.3-1.77,9.768,9.768,0,0,0-1.431,1.569,4.344,4.344,0,0,0-1.171,3.016Z" transform="translate(-99.251 -118.399)" fill="#d6694b"/><path d="M362.913,418.25s-3.7,3.095-3.34,7.107l-2.812-.905s.228-6.083,4.3-8.363C361.064,416.088,362.932,416.744,362.913,418.25Z" transform="translate(-94.288 -114.362)" fill="#d6694b"/><path d="M356.893,257.454a37.413,37.413,0,0,0,.623,4.119c.151.743.327,1.518.542,2.3.743,2.777,2.979,11.153,9.793,18.062v-6.707a34.471,34.471,0,0,0,5.227,6.921c-.825-.019-1.644-.031-2.463-.044l-2.632-.038c.057.057.113.113.17.164a31.168,31.168,0,0,0,3.841,3.25c3.124,2.242,9.428,5.92,13.95,5.8a5.173,5.173,0,0,0,3.275-1.1c2.148-1.8,2.324-5.624,1.568-8.143-.957-3.193-3.59-4.9-6.424-6.732a19.45,19.45,0,0,0-2.173-1.241c-2.45-1.171-3.388-.812-4.875-2.362-.838-.875-1.5-2.009-2.412-9.251-.132-1.02-.264-2.154-.4-3.432-.643-5.876-.51-6.38-1.1-8.615a20.975,20.975,0,0,0-4.232-8.924c-.825-.964-2.9-3.388-5.089-4.377a3.783,3.783,0,0,0-2.582-.321,3.343,3.343,0,0,0-1.732,1.241,6.225,6.225,0,0,0-.63.995c-.044.088-.088.176-.132.271-.025.057-.05.107-.076.164a11.678,11.678,0,0,0-.428,1.1,27.123,27.123,0,0,0-.989,4.44c-.157,1.064-.284,2.11-.4,3.067-.126,1.052-.271,2.343-.347,3.854a.311.311,0,0,0,0,.076,37.2,37.2,0,0,0,.12,5.467Z" transform="translate(-94.274 -47.945)" fill="#595959"/><path d="M350.568,246.418c-2.188,2.3-11.359.412-7.975-1.359-.942-.147-1.705-.226-2.418-.412-4.733-1.232-9.673-7.805-8.164-12.928,1.315-4.465,7.053-6.21,8.449-6.635a10.872,10.872,0,0,1,10.45,1.833,12.393,12.393,0,0,1,3.834,5.413C355.561,234.415,355.557,241.177,350.568,246.418Z" transform="translate(-85.023 -43.424)" fill="#595959"/><path d="M340.469,260.249l-1.837,1.386,2.16,7.653,11.256-.513,3.165-8.017s-6.468-.6-7.641-4.46Z" transform="translate(-87.576 -55.205)" fill="#f9ad9b"/><path d="M342.04,257.384a5.415,5.415,0,0,0,6.574-.58s-1.165,4.925-7.065,3.632A3.508,3.508,0,0,0,342.04,257.384Z" transform="translate(-88.656 -55.393)" fill="#f9977a"/><path d="M337.193,235.185c1.149-5.647,5.21-9.589,9.069-8.8,2.979.606,4.965,3.852,5.189,7.9a1.1,1.1,0,0,1,.925-.134c.838.312,1.015,1.918.394,3.587-.524,1.41-1.448,2.41-2.228,2.5-1.628,4.428-5.11,7.277-8.443,6.6C338.241,246.047,336.044,240.832,337.193,235.185Z" transform="translate(-86.931 -44.093)" fill="#f9ad9b"/><path d="M343.865,239.694a3.208,3.208,0,0,1,.011,2.042,7.417,7.417,0,0,1-.838,1.89c-.187.3-.478.53-.433.8a1.166,1.166,0,0,0,.5.739,2.517,2.517,0,0,0,1.912.256,2.345,2.345,0,0,1-2.031-.083,1.3,1.3,0,0,1-.628-.888.794.794,0,0,1,.162-.562l.293-.416a8.146,8.146,0,0,0,.866-1.8,3.656,3.656,0,0,0,.186-1.974Z" transform="translate(-88.954 -49.058)" fill="#f9977a"/><path d="M351.981,240.7a.272.272,0,0,0,.145-.442,4.573,4.573,0,0,0-3.907-1.573.273.273,0,1,0,.094.537,4.081,4.081,0,0,1,3.4,1.39.273.273,0,0,0,.271.089Z" transform="translate(-91.042 -48.666)" fill="#595959"/><path d="M340.937,238.244a.273.273,0,0,0,.034-.52,5.26,5.26,0,0,0-3.295-.052.273.273,0,1,0,.181.514,4.758,4.758,0,0,1,2.921.048.273.273,0,0,0,.159.01Z" transform="translate(-87.155 -48.22)" fill="#595959"/><path d="M351.214,243.087a4.943,4.943,0,0,0-1.807-.916,2.4,2.4,0,0,0-.98-.018,3.277,3.277,0,0,0-.952.367,2.119,2.119,0,0,1,.9-.57,2.068,2.068,0,0,1,1.09-.045,2.856,2.856,0,0,1,.986.444,3.038,3.038,0,0,1,.762.738Z" transform="translate(-90.85 -49.857)" fill="#595959"/><circle cx="0.611" cy="0.611" r="0.611" transform="translate(257.296 192.12)" fill="#595959"/><circle cx="0.611" cy="0.611" r="0.611" transform="translate(251.478 191.393)" fill="#595959"/><path d="M341.309,242.136a4.943,4.943,0,0,0-1.807-.916,2.4,2.4,0,0,0-.98-.018,3.277,3.277,0,0,0-.952.367,2.119,2.119,0,0,1,.9-.57,2.068,2.068,0,0,1,1.09-.045,2.856,2.856,0,0,1,.986.444A3.037,3.037,0,0,1,341.309,242.136Z" transform="translate(-87.183 -49.505)" fill="#595959"/><path d="M360.572,241.319a2.669,2.669,0,0,0-.432-.543.389.389,0,0,0-.5-.066,1.829,1.829,0,0,0-.457.461c-.147.181-.266.386-.424.576a2.731,2.731,0,0,1,.247-.689,1.408,1.408,0,0,1,.5-.585.571.571,0,0,1,.435-.076.635.635,0,0,1,.351.233,1.374,1.374,0,0,1,.283.688Z" transform="translate(-95.027 -49.313)" fill="#dd765e"/><path d="M359.861,243.251a1.348,1.348,0,0,1-.283-.641,2.341,2.341,0,0,1-.025-.7,2.978,2.978,0,0,1,.155-.68l.132-.321c.059-.1.109-.2.175-.3-.059.461-.15.893-.192,1.33a5.768,5.768,0,0,0-.039.654A2.876,2.876,0,0,0,359.861,243.251Z" transform="translate(-95.316 -49.395)" fill="#dd765e"/><circle cx="1.213" cy="1.213" r="1.213" transform="translate(263.643 194.153)" fill="#fcd095"/><path d="M346.254,252.073s-3.4,2.132-5.336-.231Z" transform="translate(-88.422 -53.555)" fill="#f44b47"/><path d="M343.324,226.58c.849.2,1.318.854,2.257,2.156,1.814,2.514,2.888,5.971,4.144,6.584a.774.774,0,0,0,.459.093c.491-.072.689-.708,1.235-1.6.413-.676.592-.793.832-1.171a5.467,5.467,0,0,0,.246-4.932,5.792,5.792,0,0,0-3.185-2.81,8.459,8.459,0,0,0-6.325.116c-4.212,1.63-6.01,5.8-5.861,5.922C337.3,231.08,340.495,225.9,343.324,226.58Z" transform="translate(-87.015 -43.367)" fill="#595959"/><path d="M326.373,318.771c-2.956,4.207-3.831,10.181-3.949,15.212a9.343,9.343,0,0,0,9.33,9.585h9.357l-4.419,34.637h11.731l8.978-34.611h7.967l13.64,33.66h11.7a209.11,209.11,0,0,0-12.743-46.814,10.032,10.032,0,0,0-9.313-6.289h-12.1l-2.339-4.445Z" transform="translate(-81.575 -78.334)" fill="#8b9d36"/><path d="M284.145,269.885l9.573,22.792a5.791,5.791,0,0,0,8.792,2.406l8.987-6.669.088-.063.006.151.573,9.73,22.269.749.151.006,5.422.183,8.987,3.842a5.933,5.933,0,0,0,.661.6,6.128,6.128,0,0,0,7.161.283,5.644,5.644,0,0,0,1.449-1.4,7.1,7.1,0,0,0,.775-1.36c.812-1.9,1.007-4.541-.088-8.225a56.361,56.361,0,0,0-3.665-8.993A71.129,71.129,0,0,0,348,272.3c-4.4-5.618-9.207-9.541-12.992-8.956a21.247,21.247,0,0,1-5.019,3.955c-3.489,1.921-8.112,2.714-11.563-3.08,0,0-5.441-2.633-18.509,16.494l-7.854-14.642a1.255,1.255,0,0,0-1.656-.535l-.133.063-4.981,2.406-.529.258A1.257,1.257,0,0,0,284.145,269.885ZM346.172,292c-.825-.019-1.644-.031-2.463-.044l-2.632-.038-.132-.132v-6.707A34.472,34.472,0,0,0,346.172,292Z" transform="translate(-67.368 -57.793)" fill="#fcd095"/><path d="M361.924,345.447a34.338,34.338,0,0,0,.957-11.372,15.392,15.392,0,0,0-1.533-5.512,8.486,8.486,0,0,0-4.1-3.928,12.132,12.132,0,0,0-5.659-.8c-1.909.057-3.816.171-5.72.32s-3.8.372-5.688.677a27.07,27.07,0,0,0-5.542,1.409,27.232,27.232,0,0,1,5.559-1.3c1.884-.292,3.782-.487,5.683-.637s3.807-.237,5.713-.281a16.477,16.477,0,0,1,2.842.077,10.381,10.381,0,0,1,2.726.733,8.29,8.29,0,0,1,4.029,3.817,15.238,15.238,0,0,1,1.548,5.445,30.081,30.081,0,0,1,.035,5.7A38.874,38.874,0,0,1,361.924,345.447Z" transform="translate(-86.098 -80.187)" fill="#5e7c24"/><path d="M389.622,355.885a12.874,12.874,0,0,0-.655-2.038,8.339,8.339,0,0,0-1.032-1.877c.29.654.568,1.3.831,1.96C389.049,354.581,389.3,355.243,389.622,355.885Z" transform="translate(-105.829 -90.624)" fill="#5e7c24"/><path d="M352.1,355.537a21.971,21.971,0,0,0,.469-2.2,21.7,21.7,0,0,0,.254-2.236,21.7,21.7,0,0,0-.469,2.2A21.967,21.967,0,0,0,352.1,355.537Z" transform="translate(-92.561 -90.302)" fill="#5e7c24"/><path d="M406.9,341.641a5.62,5.62,0,0,1-1.949-.031,3.886,3.886,0,0,1-1.735-.8,4.5,4.5,0,0,1-1.189-1.5,9.4,9.4,0,0,1-.384-.9l-.276-.947c.051.325.111.651.174.978a9.181,9.181,0,0,0,.335.941,4.431,4.431,0,0,0,1.205,1.6A4.258,4.258,0,0,0,406.9,341.641Z" transform="translate(-110.8 -85.254)" fill="#5e7c24"/><path d="M369.3,343.578a5.62,5.62,0,0,1-1.949-.031,3.885,3.885,0,0,1-1.735-.8,4.5,4.5,0,0,1-1.189-1.5,9.418,9.418,0,0,1-.384-.9l-.276-.947c.051.325.111.651.174.978a9.172,9.172,0,0,0,.335.941,4.432,4.432,0,0,0,1.205,1.6A4.258,4.258,0,0,0,369.3,343.578Z" transform="translate(-96.883 -85.971)" fill="#5e7c24"/><path d="M326.177,289.845a10.748,10.748,0,0,0-.326,2.1,14.2,14.2,0,0,0,.083,2.132,17.793,17.793,0,0,0,1.02,4.142l.007.019.013.013a6.155,6.155,0,0,0,1.711,1.195,5.3,5.3,0,0,0,4.06.218,6.684,6.684,0,0,0,.946-.415c.3-.165.583-.365.874-.545-.3.166-.59.35-.9.5a6.6,6.6,0,0,1-.955.362,5.159,5.159,0,0,1-2,.231,5.722,5.722,0,0,1-3.575-1.69l.02.031a18.648,18.648,0,0,1-1.053-4.08,12.349,12.349,0,0,1,.075-4.212Z" transform="translate(-82.841 -67.625)" fill="#ffba55"/><path d="M409.332,411.764h15.381a.315.315,0,0,0,0-.63H409.332a.315.315,0,0,0,0,.63Z" transform="translate(-113.634 -112.528)" fill="#5e7c24"/><path d="M342.023,413.273H357.4a.315.315,0,1,0,0-.63H342.023a.315.315,0,0,0,0,.63Z" transform="translate(-88.715 -113.087)" fill="#5e7c24"/><path d="M358.5,304.682a7.2,7.2,0,0,0,1.857.254c.1,0,.2,0,.3-.007,0,.069,0,.141,0,.211-.1.006-.2.013-.3.014a6.692,6.692,0,0,1-1.9-.311,8.778,8.778,0,0,1-.9-.347c-.286-.145-.564-.3-.839-.463A11.612,11.612,0,0,0,358.5,304.682Z" transform="translate(-94.273 -72.877)" fill="#ffba55"/><path d="M354.635,317.685s-7.583,3.724-8.385,2.9,2.061-2.967,2.061-2.967l-1.686-1.735-7.672-.264a.754.754,0,0,1-.724-.832h0a.753.753,0,0,1,.444-.611c1.737-.771,10.159-4.594,15.163-1.842Z" transform="translate(-87.426 -75.587)" fill="#f9ad9b"/><path d="M362.622,309.951c.082.749.214,1.43.321,2.147l.579,3.653.095.611c.107.611.176,1.222.308,1.839l.038.189c.006.038.019.076.025.113a1.314,1.314,0,0,0,.775.768,3.053,3.053,0,0,0,1.09.069l1.852-.05.454-.013,2.009-.057-2.1.006h-.5l-1.713.006a3.171,3.171,0,0,1-1.046-.069,1.19,1.19,0,0,1-.7-.705c-.006-.019-.006-.038-.013-.057-.013-.063-.025-.126-.038-.2-.126-.6-.189-1.253-.3-1.864l-.088-.586-.554-3.684c-.095-.705-.227-1.436-.3-2.116a1.19,1.19,0,0,1,.41-.875,1.253,1.253,0,0,1,.938-.271l5.87.044h.3l2.865.025,2.179.012-.007-.008c2.018.011,4.037.023,6.053.014q-3.089-.076-6.166-.126c-.825-.019-1.644-.031-2.463-.044l-2.632-.038-.132-.006-5.87-.088a1.425,1.425,0,0,0-1.07.327A1.36,1.36,0,0,0,362.622,309.951Z" transform="translate(-96.458 -74.564)" fill="#ffba55"/><path d="M310.314,302.4c-1.694-5.721-6.6-9.832-11.711-10.1a11.533,11.533,0,0,0-5.758,1.282l4.129,9.831a5.791,5.791,0,0,0,8.792,2.406l4.558-3.383C310.321,302.423,310.318,302.409,310.314,302.4Z" transform="translate(-70.625 -68.53)" fill="#ffba55"/><rect width="215.392" height="3.568" rx="1.274" transform="translate(347.018 244.129) rotate(180)" fill="#935b50"/><rect width="197.358" height="73.802" transform="translate(337.842 317.931) rotate(180)" fill="#935b50"/><path d="M1.6,0H202.972a1.6,1.6,0,0,1,1.6,1.6V11.672H0V1.6A1.6,1.6,0,0,1,1.6,0Z" transform="translate(341.451 255.801) rotate(180)" fill="#c38f86"/><path d="M394.579,297.261h34.642a3.509,3.509,0,0,0,3.5-3.238l1.795-23.136a3.509,3.509,0,0,0-3.5-3.781H392.784a3.509,3.509,0,0,0-3.5,3.781l1.795,23.136A3.509,3.509,0,0,0,394.579,297.261Z" transform="translate(-106.325 -59.207)" fill="#c2ccf2"/><ellipse cx="3.818" cy="1.389" rx="3.818" ry="1.389" transform="translate(301.757 221.588)" fill="#748ce2"/><rect width="39.883" height="2.615" rx="1.307" transform="translate(325.517 240.669) rotate(180)" fill="#748ce2"/><path d="M359,275.152H264.944l.042-.352a14.92,14.92,0,0,0-3.356-11.356,12.275,12.275,0,0,0-8.57-4.562,12.472,12.472,0,0,0-9.438,4.127,14.8,14.8,0,0,0-3.93,11.794l.038.349H169.74V199.475H359Zm-93.353-.63h92.723V200.1h-188v74.418h68.662a15.423,15.423,0,0,1,4.132-11.946,12.114,12.114,0,0,1,18.948.461,15.545,15.545,0,0,1,3.538,11.484Z" transform="translate(-25.049 -34.168)" fill="#748ce2"/><path d="M281.368,300.86s4.521-6.117,5.616-5.758-.447,3.585-.447,3.585l2.3.753,6.917-3.329a.754.754,0,0,1,1.027.4h0a.753.753,0,0,1-.109.747c-1.181,1.489-7.954,8.545-13.665,8.433Z" transform="translate(-66.376 -69.565)" fill="#f9977a"/><path d="M301.855,412.484l2.156,6.368a44.963,44.963,0,0,0,18.282,8.263s3.136,1.472,3.117,3.754l-31.039-.259.1-11.838-.907-6.082Z" transform="translate(-70.891 -113.028)" fill="#f9977a"/><path d="M325.138,439.069l-30.2-.252a.771.771,0,0,0-.778.765v0a.771.771,0,0,0,.765.778l31.13.26S326.956,439.693,325.138,439.069Z" transform="translate(-71.113 -122.777)" fill="#d6694b"/><path d="M327.494,436.886a5.417,5.417,0,0,1,1.324-3.786,3.236,3.236,0,0,0-2.727-1,9.763,9.763,0,0,0-.9,1.924,4.344,4.344,0,0,0-.217,3.228Z" transform="translate(-82.434 -120.282)" fill="#d6694b"/><path d="M314.6,426.423s-2.608,4.058-1.067,7.78l-2.954-.025s-1.6-5.874,1.611-9.266C312.189,424.912,314.168,424.98,314.6,426.423Z" transform="translate(-77.043 -117.629)" fill="#d6694b"/><path d="M312.141,379.666l2.237,6.34a44.962,44.962,0,0,0,18.386,8.029s3.155,1.432,3.165,3.714l-31.039.136-.052-11.838-.984-6.07Z" transform="translate(-74.7 -100.878)" fill="#f9977a"/><path d="M335.764,405.93l-30.2.133a.771.771,0,0,0-.768.775v0a.771.771,0,0,0,.775.768l31.131-.137S337.59,406.531,335.764,405.93Z" transform="translate(-75.051 -110.601)" fill="#d6694b"/><path d="M338.117,403.788a5.417,5.417,0,0,1,1.275-3.8,3.236,3.236,0,0,0-2.739-.967,9.769,9.769,0,0,0-.873,1.936,4.344,4.344,0,0,0-.176,3.231Z" transform="translate(-86.363 -108.033)" fill="#d6694b"/><path d="M325.1,393.489s-2.556,4.091-.968,7.793l-2.955.013s-1.672-5.853,1.493-9.286C322.674,392.008,324.653,392.051,325.1,393.489Z" transform="translate(-80.952 -105.447)" fill="#d6694b"/><path d="M235.181,334.542l20.491-7.13a10.333,10.333,0,0,1,13.09,6.174,176.16,176.16,0,0,1,8.26,29.769,1.264,1.264,0,0,1-.9,1.429l-6.468,1.862-.64,16.417a1.26,1.26,0,0,1-1.259,1.211h-9.276a1.26,1.26,0,0,1-1.244-1.06l-4.408-27.442-10.188.916s-53.456,10.874-44.985-28.273l22.893,1.147,2.672,2.478A11.856,11.856,0,0,0,235.181,334.542Z" transform="translate(-35.048 -81.319)" fill="#6c7fd8"/><path d="M250.906,367.149c5.471-2.643,10.98-5.2,16.486-7.767l8.285-3.792q4.137-1.906,8.3-3.76l-.039.021a2.3,2.3,0,0,1,1.863-.183,3.23,3.23,0,0,1,1.453,1.073,9.357,9.357,0,0,1,1.488,3.083,31.692,31.692,0,0,1,1.072,6.624,96.89,96.89,0,0,1-.105,13.347c.026-2.224.073-4.446.018-6.666s-.127-4.439-.342-6.644a34.328,34.328,0,0,0-1.165-6.5,8.843,8.843,0,0,0-1.406-2.881,2.663,2.663,0,0,0-1.192-.881,1.728,1.728,0,0,0-1.359.127l-.03.017-.01,0q-4.139,1.9-8.3,3.764l-8.312,3.732C262.055,362.32,256.5,364.777,250.906,367.149Z" transform="translate(-55.098 -90.469)" fill="#4f66d0"/><path d="M319.265,378.99a17.179,17.179,0,0,1-3.155,1.489,16.981,16.981,0,0,1-3.371.9,16.976,16.976,0,0,1,3.155-1.489A17.171,17.171,0,0,1,319.265,378.99Z" transform="translate(-77.99 -100.628)" fill="#4f66d0"/><path d="M291.9,410.595a54.857,54.857,0,0,1,6.237-.315,54.223,54.223,0,0,1,6.237.315,54.209,54.209,0,0,1-6.237.315,54.877,54.877,0,0,1-6.237-.315Z" transform="translate(-70.276 -112.211)" fill="#4f66d0"/><path d="M284.84,370.814a5.116,5.116,0,0,1-1.1-1.536,5.057,5.057,0,0,1-.533-1.812,5.055,5.055,0,0,1,1.1,1.536,5.114,5.114,0,0,1,.533,1.812Z" transform="translate(-67.058 -96.361)" fill="#4f66d0"/><path d="M214.918,261.1l-.612-22.087,16.492.9-.723,13.186a5.241,5.241,0,0,1-5.52,4.946l-.376-.021-.123,3.77Z" transform="translate(-41.549 -48.808)" fill="#f9977a"/><path d="M228.528,269.127l-2.637-.145,2.514,3.915Z" transform="translate(-45.837 -59.901)" fill="#dd765e"/><path d="M222.562,311.8c-1.927-2.078-1.863-3.552-1.882-5.878l-.845-3.063c2.916,6.646,10,5.286,10,5.286,3.548-.115,22.231-10.741,22.231-10.741l-2.018-5.758-19.168,4.641s-3.348-5.924-6.7-12.534-7.288-9.46-7.288-9.46l-10.218-1.534C188.362,274.366,197,308.4,197,308.4c-8.471,39.148,44.985,28.273,44.985,28.273a22.582,22.582,0,0,0,.793-11.471c-.719-3.709-2.717-10.588-3.8-12.223-2.91,0-6.523,3.579-11.5,1.437C224.075,312.948,223.646,312.972,222.562,311.8Z" transform="translate(-34.388 -61.301)" fill="#f73c4f"/><rect width="3.149" height="43.116" transform="translate(176.492 274.536)" fill="#c38f86"/><path d="M251.539,310.121a1.951,1.951,0,0,1-.083,1.058,1.919,1.919,0,0,1-.6.875,1.659,1.659,0,0,1,.684-1.933Z" transform="translate(-55.047 -75.131)" fill="#b02336"/><path d="M233.726,319.25a38.63,38.63,0,0,1-2.825-4.411,38.173,38.173,0,0,1-2.276-4.718,38.179,38.179,0,0,1,2.825,4.411A38.628,38.628,0,0,1,233.726,319.25Z" transform="translate(-46.85 -75.131)" fill="#b02336"/><path d="M223.542,227.765s.425-4.679-4.2-1.49c0,0-2.633-7.113-10.876,2.342,0,0-12.1.39-7.539,10.555a15.46,15.46,0,0,1-2.613,4.08c-3.31,3.827-5.328,3.384-8.162,7.709a13.706,13.706,0,0,0-2.494,6.575,11.3,11.3,0,0,0,1.36,6.348,11.039,11.039,0,0,0,9.522,5.668c4.612-.14,6.942-4.263,9.749-6.8,6.011-5.437,6.23-16.717,6.884-18.651,0,0-3.029-1.875-.537-3.778a2.368,2.368,0,0,1,1.959-.455.949.949,0,0,1,.86.916l3.465-6.527s3.14.928,3.179-2.848C224.1,231.407,227.468,229.66,223.542,227.765Z" transform="translate(-31.669 -43.14)" fill="#160b07"/><path d="M185.089,335.43s-3.949-11.847-.859-36.057c0,0,1.2-8.156,9.272-8.757s13.994,12.48,16.4,25.857,7.726,25.333,25.154,25.665c0,0,23.028,3.937-26,6.169C209.051,348.307,188.093,348.479,185.089,335.43Z" transform="translate(-29.976 -67.903)" fill="#d5efc8"/><path d="M230.389,258.96a1.89,1.89,0,0,0,0-3.779A1.89,1.89,0,0,0,230.389,258.96Z" transform="translate(-46.827 -54.792)" fill="#f73c4f"/><path d="M201.136,433.734h27.207l-13.6-13Z" transform="translate(-36.673 -116.082)" fill="#c38f86"/><rect width="44.083" height="0.63" transform="translate(207.053 205.908) rotate(-43.377)" fill="#748ce2"/><rect width="44.083" height="0.63" transform="translate(208.578 220.799) rotate(-43.377)" fill="#748ce2"/><path d="M289.85,297.118a16.633,16.633,0,0,1,10.036.972,4.966,4.966,0,0,0-1.409,3.341s-.965-1.355-10.051-1.606a1.943,1.943,0,0,1,1.424-2.707Z" transform="translate(-68.926 -70.18)" fill="#8b9d36"/><path d="M290,297.948s5.121-.873,8.921.577a3.033,3.033,0,0,0-1,2.109s-2.337-1.008-8.751-1.2C289.166,299.439,288.389,298.332,290,297.948Z" transform="translate(-69.194 -70.528)" fill="#5e7c24"/><path d="M282.429,299.913s3.853-5.172,4.948-4.813-.447,3.585-.447,3.585l2.3.753a5.427,5.427,0,0,1-4.781,6.232Z" transform="translate(-66.769 -69.564)" fill="#f9977a"/></g></svg>