<svg xmlns="http://www.w3.org/2000/svg" xmlns:xlink="http://www.w3.org/1999/xlink" width="59.16" height="59" viewBox="0 0 59.16 59"><defs><clipPath id="a"><rect width="59.16" height="59" fill="#5f6893" stroke="#f5f5f5" stroke-width="1"/></clipPath></defs><g clip-path="url(#a)"><path d="M34.919,38.284l-3.955-2.152a2.478,2.478,0,0,1-1.295-2.179v-3.1a19.74,19.74,0,0,0,3.293-6.793,3.72,3.72,0,0,0,1.411-2.917V17.39a3.722,3.722,0,0,0-.941-2.463V9.935a8.386,8.386,0,0,0-1.968-6.12C29.531,1.614,26.4.5,22.14.5s-7.391,1.114-9.324,3.314a8.386,8.386,0,0,0-1.968,6.12v4.993a3.722,3.722,0,0,0-.941,2.463v3.752a3.728,3.728,0,0,0,1.411,2.917,19.74,19.74,0,0,0,3.293,6.793v3.1a2.478,2.478,0,0,1-1.295,2.179L4.92,40.7A8.457,8.457,0,0,0,.5,48.13v3.977a.939.939,0,0,0,.938.938H35.892L37.146,54.3a.945.945,0,0,0,1.222.095l1.165-.854a1.839,1.839,0,0,1,1.773-.23A1.817,1.817,0,0,1,42.45,54.68l.262,1.354a.939.939,0,0,0,.925.762h2.606a.939.939,0,0,0,.927-.8l.157-1a1.856,1.856,0,0,1,2.93-1.211l.819.6A.945.945,0,0,0,52.3,54.3l1.838-1.838a.931.931,0,0,0,.114-1.189l-.773-1.138a1.849,1.849,0,0,1,1.254-2.868l1.427-.219a.939.939,0,0,0,.795-.93v-2.6a.943.943,0,0,0-.762-.922l-1.36-.257a1.853,1.853,0,0,1-1.146-2.911l.857-1.16a.938.938,0,0,0-.095-1.219L52.6,35.208a.942.942,0,0,0-1.192-.111l-1.146.77a1.853,1.853,0,0,1-2.874-1.249L47.17,33.2a.939.939,0,0,0-.927-.8H43.637a.939.939,0,0,0-.925.76l-.338,1.752a1.856,1.856,0,0,1-2.863,1.181l-1.479-1a.942.942,0,0,0-1.192.111L35,37.046a.934.934,0,0,0-.092,1.219l.014.019m.689,3.46a2.032,2.032,0,0,1-.995.592l-1.36.257a.943.943,0,0,0-.762.922v2.6a.939.939,0,0,0,.8.927l1.425.219a1.852,1.852,0,0,1,1.254,2.868l-.706,1.035" transform="translate(0.852 0.852)" fill="#5f6893" stroke="#f5f5f5" stroke-width="1"/><path d="M34.919,38.284l-3.955-2.152a2.478,2.478,0,0,1-1.295-2.179v-3.1a19.74,19.74,0,0,0,3.293-6.793,3.72,3.72,0,0,0,1.411-2.917V17.39a3.722,3.722,0,0,0-.941-2.463V9.935a8.386,8.386,0,0,0-1.968-6.12C29.531,1.614,26.4.5,22.14.5s-7.391,1.114-9.324,3.314a8.386,8.386,0,0,0-1.968,6.12v4.993a3.722,3.722,0,0,0-.941,2.463v3.752a3.728,3.728,0,0,0,1.411,2.917,19.74,19.74,0,0,0,3.293,6.793v3.1a2.478,2.478,0,0,1-1.295,2.179L4.92,40.7A8.457,8.457,0,0,0,.5,48.13v3.977a.939.939,0,0,0,.938.938H35.892L37.146,54.3a.945.945,0,0,0,1.222.095l1.165-.854a1.839,1.839,0,0,1,1.773-.23A1.817,1.817,0,0,1,42.45,54.68l.262,1.354a.939.939,0,0,0,.925.762h2.606a.939.939,0,0,0,.927-.8l.157-1a1.856,1.856,0,0,1,2.93-1.211l.819.6A.945.945,0,0,0,52.3,54.3l1.838-1.838a.931.931,0,0,0,.114-1.189l-.773-1.138a1.849,1.849,0,0,1,1.254-2.868l1.427-.219a.939.939,0,0,0,.795-.93v-2.6a.943.943,0,0,0-.762-.922l-1.36-.257a1.853,1.853,0,0,1-1.146-2.911l.857-1.16a.938.938,0,0,0-.095-1.219L52.6,35.208a.942.942,0,0,0-1.192-.111l-1.146.77a1.853,1.853,0,0,1-2.874-1.249L47.17,33.2a.939.939,0,0,0-.927-.8H43.637a.939.939,0,0,0-.925.76l-.338,1.752a1.856,1.856,0,0,1-2.863,1.181l-1.479-1a.942.942,0,0,0-1.192.111L35,37.046a.934.934,0,0,0-.092,1.219l.014.019m.689,3.46a2.032,2.032,0,0,1-.995.592l-1.36.257a.943.943,0,0,0-.762.922v2.6a.939.939,0,0,0,.8.927l1.425.219a1.852,1.852,0,0,1,1.254,2.868l-.706,1.035" transform="translate(0.852 0.852)" fill="#5f6893" stroke="#f5f5f5" stroke-miterlimit="10" stroke-width="1"/><path d="M19.47,23.257a3.913,3.913,0,1,1,3.923-3.912,3.92,3.92,0,0,1-3.923,3.912" transform="translate(26.482 26.284)" fill="#5f6893" stroke="#f5f5f5" stroke-width="1"/><path d="M19.47,23.257a3.913,3.913,0,1,1,3.923-3.912A3.92,3.92,0,0,1,19.47,23.257Z" transform="translate(26.482 26.284)" fill="#5f6893" stroke="#f5f5f5" stroke-miterlimit="10" stroke-width="1"/><path d="M14.543,18.438a2.186,2.186,0,0,0,.633-1.619c0-1-1.673-2.479-2.371-2.574" transform="translate(21.811 24.264)" fill="#5f6893" stroke="#f5f5f5" stroke-width="1"/><path d="M14.543,18.438a2.186,2.186,0,0,0,.633-1.619c0-1-1.673-2.479-2.371-2.574" transform="translate(21.811 24.264)" fill="#5f6893" stroke="#f5f5f5" stroke-miterlimit="10" stroke-width="1"/><path d="M14.52,21.3l-1.406-1.238.762-.857" transform="translate(22.337 32.707)" fill="#5f6893" stroke="#f5f5f5" stroke-width="1"/><path d="M14.52,21.3l-1.406-1.238.762-.857" transform="translate(22.337 32.707)" fill="#5f6893" stroke="#f5f5f5" stroke-miterlimit="10" stroke-width="1"/><line y1="4.379" transform="translate(23.345 8.171)" fill="#30b44a" stroke="#f5f5f5" stroke-width="1"/><line y1="4.379" transform="translate(23.345 8.171)" fill="none" stroke="#f5f5f5" stroke-miterlimit="10" stroke-width="1"/><line y1="4.569" transform="translate(23.345 21.536)" fill="#30b44a" stroke="#f5f5f5" stroke-width="1"/><line y1="4.569" transform="translate(23.345 21.536)" fill="none" stroke="#f5f5f5" stroke-miterlimit="10" stroke-width="1"/><path d="M7.09,12.127c0,1.533,1.876,2.782,4.179,2.782s4.182-1.249,4.182-2.782c0-1.06-.881-2.011-2.3-2.487h-.005c-.933-.327-1.381-.454-1.849-.589-.419-.122-.852-.243-1.676-.519l0,0C8.458,8.137,7.733,7.383,7.733,6.559c0-1.227,1.587-2.228,3.536-2.228s3.536,1,3.536,2.228" transform="translate(12.077 7.377)" fill="#5f6893" stroke="#f5f5f5" stroke-width="1"/><path d="M7.09,12.127c0,1.533,1.876,2.782,4.179,2.782s4.182-1.249,4.182-2.782c0-1.06-.881-2.011-2.3-2.487h-.005c-.933-.327-1.381-.454-1.849-.589-.419-.122-.852-.243-1.676-.519l0,0C8.458,8.137,7.733,7.383,7.733,6.559c0-1.227,1.587-2.228,3.536-2.228s3.536,1,3.536,2.228" transform="translate(12.077 7.377)" fill="#5f6893" stroke="#f5f5f5" stroke-miterlimit="10" stroke-width="1"/></g></svg>