<svg xmlns="http://www.w3.org/2000/svg" width="56.911" height="48.167" viewBox="0 0 56.911 48.167"><g transform="translate(0 -39.336)"><path d="M109.749,42.893V70a3.545,3.545,0,0,1-3.557,3.557H63.013A3.545,3.545,0,0,1,59.456,70v-27.1a3.556,3.556,0,0,1,3.557-3.557h43.18A3.556,3.556,0,0,1,109.749,42.893Z" transform="translate(-52.847)" fill="#6f7070"/><rect width="50.311" height="5.776" transform="translate(6.6 45.806)" fill="#464646"/><g transform="translate(30.534 40.793)"><path d="M287.96,52.44H276.482a1.778,1.778,0,0,0,0,3.557H287.96a1.778,1.778,0,0,0,0-3.557Z" transform="translate(-274.704 -52.44)" fill="#787878"/><path d="M429.481,52.44h-3.11a1.778,1.778,0,0,0,0,3.557h3.11a1.778,1.778,0,0,0,0-3.557Z" transform="translate(-407.932 -52.44)" fill="#787878"/></g><g transform="translate(9.534 46.916)"><path d="M96.226,107.528H87.554a1.778,1.778,0,1,0,0,3.557h8.672a1.778,1.778,0,1,0,0-3.557Z" transform="translate(-85.776 -107.528)" fill="#3e3e3e"/><path d="M215.335,107.528h-3.109a1.778,1.778,0,1,0,0,3.557h3.109a1.778,1.778,0,1,0,0-3.557Z" transform="translate(-196.591 -107.528)" fill="#3e3e3e"/></g><g transform="translate(49.041 56.48)" opacity="0.07"><path d="M449.077,200.209v6.882a3.544,3.544,0,0,1-3.557,3.557h-4.3l1.227-17.073Z" transform="translate(-441.216 -193.576)" fill="#010101"/></g><path d="M46.751,199.014H3.557A3.556,3.556,0,0,1,0,195.457V168.349a3.557,3.557,0,0,1,3.557-3.557H46.751a3.557,3.557,0,0,1,3.557,3.557v27.107A3.557,3.557,0,0,1,46.751,199.014Z" transform="translate(0 -111.511)" fill="#4b9fd8"/><g transform="translate(0 53.281)"><path d="M22.977,164.792A65.767,65.767,0,0,0,.036,195.808,3.465,3.465,0,0,1,0,195.363v-27.1a3.549,3.549,0,0,1,2.757-3.468Z" transform="translate(0 -164.792)" fill="#3a9bd6"/><path d="M245.9,224.655a65.766,65.766,0,0,0,22.941-31.015,3.462,3.462,0,0,1,.036.445v27.1a3.549,3.549,0,0,1-2.757,3.468Z" transform="translate(-218.572 -190.434)" fill="#3a9bd6"/></g><circle cx="4.332" cy="4.332" r="4.332" transform="translate(30.089 58.616)" fill="#fee218"/><circle cx="4.332" cy="4.332" r="4.332" transform="translate(36.31 58.616)" fill="#cd494c"/><g transform="translate(4.693 61.17)"><path d="M52.416,321.437H44a1.778,1.778,0,1,1,0-3.557h8.414a1.778,1.778,0,0,1,0,3.557Z" transform="translate(-42.224 -308.753)" fill="#fff"/><path d="M59.932,239.325H44a1.778,1.778,0,1,1,0-3.557H59.932a1.778,1.778,0,1,1,0,3.557Z" transform="translate(-42.224 -235.768)" fill="#fff"/></g><path d="M49.2,403.549H43.986a1.778,1.778,0,0,1,0-3.557H49.2a1.778,1.778,0,0,1,0,3.557Z" transform="translate(-37.517 -320.569)" fill="#8bd5ec"/><path d="M145.645,403.549h-5.211a1.778,1.778,0,0,1,0-3.557h5.211a1.778,1.778,0,1,1,0,3.557Z" transform="translate(-123.244 -320.569)" fill="#daeff6"/><path d="M242.077,403.549h-5.211a1.778,1.778,0,0,1,0-3.557h5.211a1.778,1.778,0,0,1,0,3.557Z" transform="translate(-208.958 -320.569)" fill="#8bd5ec"/><path d="M338.509,403.549H333.3a1.778,1.778,0,0,1,0-3.557h5.211a1.778,1.778,0,0,1,0,3.557Z" transform="translate(-294.671 -320.569)" fill="#daeff6"/></g></svg>