<svg xmlns="http://www.w3.org/2000/svg" width="38.836" height="38.836" viewBox="0 0 38.836 38.836"><g transform="translate(-4.138 -3.738)"><path d="M23.556,42.574a62.154,62.154,0,0,1-17.8-2.384L4.138,39.7V6.615l1.617-.493a62.143,62.143,0,0,1,17.8-2.384,62.147,62.147,0,0,1,17.8,2.384l1.617.493V39.7l-1.617.493a62.155,62.155,0,0,1-17.8,2.384" transform="translate(0 0)" fill="#fff"/><path d="M54.429,22.047a59.964,59.964,0,0,0-17.135-2.285A59.957,59.957,0,0,0,20.16,22.047v29.7a59.952,59.952,0,0,0,17.135,2.285,59.947,59.947,0,0,0,17.134-2.285v-29.7Z" transform="translate(-13.739 -13.74)" fill="#ffcb05"/><path d="M97.181,75.883a1.71,1.71,0,0,1-.523-.1l-8.825-3.212a1.711,1.711,0,0,1-1.022-2.193l7.568-20.8a1.709,1.709,0,0,1,2.193-1.023l8.825,3.212a1.711,1.711,0,0,1,1.022,2.193l-7.568,20.8a1.706,1.706,0,0,1-1.67,1.125" transform="translate(-70.803 -38.344)"/><path d="M101.3,79.4a1.008,1.008,0,0,1-.171-.046l-8.825-3.212a1.008,1.008,0,0,1-.6-1.292l7.568-20.8a1.006,1.006,0,0,1,1.292-.6l8.825,3.212a1.008,1.008,0,0,1,.6,1.292l-7.568,20.8a1,1,0,0,1-1.12.648" transform="translate(-75.035 -42.574)" fill="#fff"/><path d="M126.7,205.4a1.041,1.041,0,1,0-1.334.622,1.041,1.041,0,0,0,1.334-.622" transform="translate(-103.365 -171.727)"/><path d="M106.484,135.6a.586.586,0,0,0,.35.751l7.857,2.86a.586.586,0,0,0,.751-.35l2.23-6.13-8.321-5.01Z" transform="translate(-87.73 -106.316)" fill="red"/><path d="M140.117,63.88l-7.857-2.86a.586.586,0,0,0-.751.35l-3.093,8.5,8.321,5.01,3.73-10.249a.586.586,0,0,0-.35-.751" transform="translate(-106.568 -49.089)"/><path d="M70.124,42.29l-.04-.05-.3-.382a.518.518,0,0,0-.6-.054l-3.252,1.978A15.428,15.428,0,0,0,62.192,42l-.351-.113a.5.5,0,0,0-.581.2L55.09,52.681a.4.4,0,0,0,.258.588l.455.147c8.68,2.81,14.018,6.233,15.03,9.638.035.119.06.237.088.348.606,2.388.189,3.365.189,3.365l.686-.317.525-3,.177.006c.065-.228.125-.458.182-.689.053.13.127.255.2.206a35.458,35.458,0,0,0,1.164-7.756A18.839,18.839,0,0,0,70.124,42.29" transform="translate(-43.646 -32.579)" fill="#fff"/><path d="M80.163,60.754A15.786,15.786,0,0,0,73.777,49.81l2.562-1.547.064.06a18.064,18.064,0,0,1,3.76,12.432M68.973,48.326,63.2,58.236c8.449,2.735,14.432,6.285,15.591,10.185q.06.2.1.4A18.3,18.3,0,0,0,79.4,66.45c1.206-8.237-3.247-15.821-10.43-18.124" transform="translate(-50.643 -38.18)" fill="#00678f"/><path d="M93.995,79.155a4.042,4.042,0,1,1,4.529-3.487,4.046,4.046,0,0,1-4.529,3.487" transform="translate(-74.033 -57.767)" fill="#fff"/><path d="M107.1,81.79v.942h-.794v-.956a3.4,3.4,0,0,1-1.743-.7l.353-.633a3.522,3.522,0,0,0,1.442.559V79.8c-.9-.169-1.618-.486-1.618-1.346,0-.794.552-1.346,1.567-1.449v-.942h.794v.956a3.385,3.385,0,0,1,1.287.427v.868a3.1,3.1,0,0,0-1.346-.515v1.162c.824.162,1.589.493,1.589,1.4,0,.794-.552,1.339-1.53,1.434m-.743-2.95V77.78c-.478.037-.787.213-.787.537s.324.441.787.522m1.442,1.611c0-.338-.287-.449-.758-.537v1.111c.471-.044.758-.228.758-.574" transform="translate(-86.114 -62.015)" fill="#00678f"/><path d="M143.6,211.687a.11.11,0,0,0-.148.094,1.854,1.854,0,0,1-.36.99.11.11,0,0,0,.053.167l2.181.794a.443.443,0,0,0,.569-.265l.152-.417a.444.444,0,0,0-.265-.569Z" transform="translate(-119.136 -178.309)"/><path d="M102.767,197.181l-2.181-.794a.444.444,0,0,0-.569.265l-.152.417a.444.444,0,0,0,.265.569l2.181.794a.11.11,0,0,0,.148-.094,1.853,1.853,0,0,1,.36-.99.11.11,0,0,0-.053-.167" transform="translate(-82.063 -165.173)"/></g></svg>