<svg xmlns="http://www.w3.org/2000/svg" width="32.142" height="35.339" viewBox="0 0 32.142 35.339"><g transform="translate(0.027 0)"><path d="M13.219,4.018H3.573a1.959,1.959,0,0,0,0,3.917H8.491L.574,15.853a1.959,1.959,0,0,0,2.77,2.77l7.917-7.917v4.918a1.959,1.959,0,1,0,3.917,0V5.977a1.959,1.959,0,0,0-1.959-1.959" transform="translate(0.038 -2.321)" fill-rule="evenodd"/><path d="M41.964,15.178h9.647a1.959,1.959,0,1,0,0-3.917H46.692L54.61,3.343A1.958,1.958,0,0,0,51.84.574L43.922,8.491V3.573a1.959,1.959,0,0,0-3.917,0v9.647a1.959,1.959,0,0,0,1.959,1.959" transform="translate(-23.069)" fill="#ff7900" fill-rule="evenodd"/><path d="M88.662,9.513c1.275,0,1.754-1.084,1.754-2.158,0-1.129-.479-2.212-1.754-2.212s-1.754,1.083-1.754,2.212c0,1.074.479,2.158,1.754,2.158m0-5.562a3.128,3.128,0,0,1,3.173,3.4,3.178,3.178,0,1,1-6.347,0,3.128,3.128,0,0,1,3.173-3.4m3.662,2.057h1.187V6.88h.018a1.608,1.608,0,0,1,1.451-1,.9.9,0,0,1,.273.046v1.2A2.21,2.21,0,0,0,94.8,7.08c-.915,0-1.231.681-1.231,1.508V10.7H92.323Zm6.75,2.334a2.942,2.942,0,0,1-1.143.266c-.426.08-.814.212-.814.673s.4.584.843.584c1.075,0,1.114-.779,1.114-1.053ZM95.9,7.412c.078-1.177,1.23-1.531,2.354-1.531,1,0,2.2.2,2.2,1.3V9.563a2.164,2.164,0,0,0,.174,1.018H99.228a1.73,1.73,0,0,1-.1-.443,2.426,2.426,0,0,1-1.685.566c-.949,0-1.7-.434-1.7-1.372,0-1.036.853-1.284,1.7-1.39s1.627-.088,1.627-.6c0-.54-.407-.62-.891-.62-.523,0-.862.195-.91.69Zm5.215-1.4h1.223v.654h.027a1.669,1.669,0,0,1,1.431-.781c1.368,0,1.712.772,1.712,1.935V10.7h-1.286V8.052c0-.772-.227-1.154-.824-1.154-.7,0-1,.391-1,1.345V10.7h-1.286Zm8.479,2.344c0-.78-.276-1.477-1.151-1.477-.761,0-1.094.65-1.094,1.366,0,.687.267,1.44,1.094,1.44A1.191,1.191,0,0,0,109.59,8.352Zm1.285,2.155c0,.79-.286,2.127-2.55,2.127-.971,0-2.1-.446-2.17-1.542H107.5a.914.914,0,0,0,1.009.66,1.034,1.034,0,0,0,1.085-1.189V9.931h-.019a1.674,1.674,0,0,1-1.475.743c-1.475,0-2.1-1.1-2.1-2.415a2.164,2.164,0,0,1,2.113-2.378,1.54,1.54,0,0,1,1.465.771h.019V6.01h1.285ZM114.894,7.8c-.123-.637-.417-.974-1.07-.974a1.026,1.026,0,0,0-1.117.974Zm-2.187.8a1.072,1.072,0,0,0,1.2,1.16,1.114,1.114,0,0,0,1.06-.593h1.183a2.194,2.194,0,0,1-2.291,1.54,2.311,2.311,0,0,1-2.5-2.408,2.445,2.445,0,1,1,4.875.3ZM88.7,17.279h.019l1.5-4.645h2.1v6.754h-1.4V14.6H90.9l-1.666,4.786H88.086l-1.666-4.739H86.4v4.739H85V12.634h2.1Zm7.041,1.162c.885,0,1.15-.735,1.15-1.461s-.265-1.469-1.15-1.469S94.6,16.246,94.6,16.98s.265,1.461,1.141,1.461m0-3.877a2.281,2.281,0,0,1,2.446,2.416,2.441,2.441,0,0,1-4.882,0,2.279,2.279,0,0,1,2.436-2.416m2.934.127h1.223v.654h.027a1.67,1.67,0,0,1,1.431-.781c1.368,0,1.712.772,1.712,1.935v2.889h-1.287V16.735c0-.772-.226-1.154-.824-1.154-.7,0-1,.391-1,1.344v2.462H98.67Zm8.413,1.794c-.123-.637-.416-.974-1.07-.974a1.026,1.026,0,0,0-1.117.974Zm-2.186.8a1.072,1.072,0,0,0,1.2,1.16,1.114,1.114,0,0,0,1.06-.593h1.183a2.194,2.194,0,0,1-2.291,1.54,2.311,2.311,0,0,1-2.5-2.408,2.445,2.445,0,1,1,4.875.3Zm6.434,2.5a1.491,1.491,0,0,1-1.637,1.05,7.967,7.967,0,0,1-.8-.045v-1.05a7.1,7.1,0,0,0,.763.045.6.6,0,0,0,.451-.87l-1.673-4.351h1.4l1.076,3.176h.018l1.039-3.176h1.351Z" transform="translate(-85.027 14.504)" fill-rule="evenodd"/></g></svg>