<svg xmlns="http://www.w3.org/2000/svg" width="126.286" height="32.273" viewBox="0 0 126.286 32.273"><g transform="translate(0 -187.6)"><path d="M357.824,221.2h-6.815a1.332,1.332,0,0,0-1,.8l-2.806,17.64a.532.532,0,0,0,.6.6h3.608a.532.532,0,0,0,.6-.6l.8-5.011a.917.917,0,0,1,1-.8h2.205q6.916,0,7.818-6.615a5.254,5.254,0,0,0-.8-4.41,8.085,8.085,0,0,0-5.212-1.6m.8,6.615c-.4,2.405-2.2,2.405-4.009,2.405h-1.2l.8-4.61c0-.2.2-.4.6-.4h.4c1.2,0,2.405,0,3.007.8.4.2.4.8.4,1.8" transform="translate(-260.203 -25.181)" fill="#139ad6"/><g transform="translate(37.886 196.019)"><path d="M161.824,221.2h-6.815a1.332,1.332,0,0,0-1,.8l-2.806,17.64a.532.532,0,0,0,.6.6h3.207a1.332,1.332,0,0,0,1-.8l.8-4.811a.917.917,0,0,1,1-.8h2.2q6.916,0,7.818-6.615a5.254,5.254,0,0,0-.8-4.41,7.7,7.7,0,0,0-5.212-1.6m.8,6.615c-.4,2.405-2.205,2.405-4.009,2.405h-1l.8-4.61c0-.2.2-.4.6-.4h.4c1.2,0,2.405,0,3.007.8a2.147,2.147,0,0,1,.2,1.8" transform="translate(-151.2 -221.2)" fill="#263b80"/><path d="M229.459,245.6h-3.207c-.2,0-.6.2-.6.4l-.2,1-.2-.4a4.715,4.715,0,0,0-3.809-1.4,7.7,7.7,0,0,0-7.417,6.615,5.975,5.975,0,0,0,1.2,5.011,5.051,5.051,0,0,0,4.21,1.6,6.407,6.407,0,0,0,4.61-1.8l-.2,1a.532.532,0,0,0,.6.6h3.007a1.332,1.332,0,0,0,1-.8l1.8-11.225c-.2-.2-.6-.6-.8-.6m-4.61,6.415a3.877,3.877,0,0,1-3.809,3.207,3.206,3.206,0,0,1-2.205-.8,4.275,4.275,0,0,1-.6-2.405,3.575,3.575,0,0,1,5.813-2.405,3.5,3.5,0,0,1,.8,2.405" transform="translate(-198.189 -239.186)" fill="#263b80"/></g><path d="M424.659,245.6h-3.207c-.2,0-.6.2-.6.4l-.2,1-.2-.4a4.715,4.715,0,0,0-3.809-1.4,7.7,7.7,0,0,0-7.417,6.615,5.975,5.975,0,0,0,1.2,5.011,5.051,5.051,0,0,0,4.21,1.6,6.407,6.407,0,0,0,4.61-1.8l-.2,1a.531.531,0,0,0,.6.6h3.007a1.332,1.332,0,0,0,1-.8l1.8-11.225c-.2-.2-.4-.6-.8-.6m-4.61,6.415a3.877,3.877,0,0,1-3.809,3.207,3.205,3.205,0,0,1-2.2-.8,4.275,4.275,0,0,1-.6-2.405,3.575,3.575,0,0,1,5.813-2.405,2.3,2.3,0,0,1,.8,2.405" transform="translate(-306.592 -43.167)" fill="#139ad6"/><path d="M299.435,246.8h-3.408a1.041,1.041,0,0,0-.8.4l-4.41,6.815-2-6.415a.926.926,0,0,0-1-.6H284.6c-.4,0-.6.4-.6.8l3.608,10.624-3.408,4.811c-.2.4,0,1,.4,1h3.207a1.041,1.041,0,0,0,.8-.4L299.635,248c.6-.6.2-1.2-.2-1.2" transform="translate(-212.839 -44.366)" fill="#263b80"/><path d="M478.006,222.166,475.2,240.207a.532.532,0,0,0,.6.6h2.806a1.332,1.332,0,0,0,1-.8l2.806-17.64a.532.532,0,0,0-.6-.6h-3.207c-.2-.2-.4,0-.6.4" transform="translate(-356.13 -25.545)" fill="#139ad6"/><path d="M23.052,190.005c-1.4-1.6-4.009-2.405-7.617-2.405H5.412a1.72,1.72,0,0,0-1.4,1.2L0,215.062a.917.917,0,0,0,.8,1H7.016l1.6-9.822v.4a1.72,1.72,0,0,1,1.4-1.2h3.007c5.813,0,10.223-2.405,11.626-9.02v-.6h0c.2-2.606-.2-4.21-1.6-5.813" transform="translate(0 0)" fill="#263b80"/><path d="M43.641,220.4h0v.6c-1.4,6.815-5.813,9.02-11.626,9.02H29.008a1.72,1.72,0,0,0-1.4,1.2l-2,12.228a.734.734,0,0,0,.8.8h5.212a1.123,1.123,0,0,0,1.2-1v-.2l1-6.214v-.4a1.123,1.123,0,0,1,1.2-1h.8c5.011,0,9.02-2,10.023-8.018.4-2.405.2-4.61-1-6.014a2.053,2.053,0,0,0-1.2-1" transform="translate(-19.185 -24.581)" fill="#139ad6"/><path d="M48.833,216.2c-.2,0-.4-.2-.6-.2a.736.736,0,0,1-.6-.2,10.59,10.59,0,0,0-2.606-.2H37.206a.736.736,0,0,0-.6.2,1.1,1.1,0,0,0-.6,1l-1.6,10.424v.4a1.72,1.72,0,0,1,1.4-1.2H38.81c5.813,0,10.223-2.405,11.626-9.02a.736.736,0,0,1,.2-.6c-.4-.2-.6-.4-1-.4-.6-.2-.6-.2-.8-.2" transform="translate(-25.78 -20.984)" fill="#232c65"/></g></svg>