<svg xmlns="http://www.w3.org/2000/svg" xmlns:xlink="http://www.w3.org/1999/xlink" width="300.56" height="202.614" viewBox="0 0 300.56 202.614"><defs><linearGradient id="a" x1="0.565" y1="-0.432" x2="0.163" y2="5.791" gradientUnits="objectBoundingBox"><stop offset="0" stop-opacity="0"/><stop offset="0.97"/></linearGradient><linearGradient id="b" x1="0.565" y1="-0.433" x2="0.163" y2="5.793" xlink:href="#a"/><linearGradient id="c" x1="0.431" y1="0.563" x2="-0.628" y2="0.148" xlink:href="#a"/><linearGradient id="d" x1="0.195" y1="0.771" x2="1.557" y2="-0.913" xlink:href="#a"/><linearGradient id="e" x1="0.492" y1="0.472" x2="0.559" y2="1.493" xlink:href="#a"/><linearGradient id="f" x1="0.477" y1="0.135" x2="0.528" y2="1.637" xlink:href="#a"/><linearGradient id="g" x1="0.893" y1="-0.065" x2="-0.416" y2="1.332" xlink:href="#a"/><linearGradient id="h" x1="0.003" y1="0.499" x2="1" y2="0.499" gradientUnits="objectBoundingBox"><stop offset="0" stop-color="#ecc4d7"/><stop offset="0.42" stop-color="#efd4d1"/><stop offset="1" stop-color="#f2eac9"/></linearGradient><linearGradient id="i" x1="0" y1="0.502" x2="1.002" y2="0.502" xlink:href="#h"/><linearGradient id="j" x1="1.182" y1="0.772" x2="0.368" y2="0.474" xlink:href="#h"/><linearGradient id="k" x1="0.32" y1="0.61" x2="0.994" y2="0.204" xlink:href="#a"/><linearGradient id="l" x1="-0.002" y1="0.499" x2="1" y2="0.499" xlink:href="#h"/><linearGradient id="m" x1="0.5" y1="0.026" x2="0.5" y2="1.011" xlink:href="#a"/><linearGradient id="n" x1="0.694" y1="0.505" x2="-0.806" y2="0.48" xlink:href="#a"/><linearGradient id="o" x1="0.5" y1="-0.645" x2="0.499" y2="3.373" xlink:href="#a"/><linearGradient id="p" x1="0.661" y1="0.476" x2="-1.165" y2="0.567" xlink:href="#a"/><linearGradient id="q" x1="0.473" y1="-0.865" x2="0.506" y2="1.388" xlink:href="#a"/><linearGradient id="r" x1="0.57" y1="0.329" x2="-0.185" y2="1.242" xlink:href="#a"/><linearGradient id="s" x1="0.644" y1="0.13" x2="-0.187" y2="1.947" xlink:href="#a"/><linearGradient id="t" x1="0.622" y1="-0.395" x2="0.337" y2="1.171" xlink:href="#a"/><linearGradient id="u" x1="0.597" y1="-0.15" x2="0.03" y2="3.619" xlink:href="#a"/><linearGradient id="v" x1="0.488" y1="0.247" x2="0.534" y2="1.197" xlink:href="#a"/><linearGradient id="w" x1="1.787" y1="0.48" x2="0.11" y2="0.513" gradientUnits="objectBoundingBox"><stop offset="0" stop-color="#fff" stop-opacity="0"/><stop offset="0.09" stop-color="#fff" stop-opacity="0.031"/><stop offset="0.22" stop-color="#fff" stop-opacity="0.11"/><stop offset="0.38" stop-color="#fff" stop-opacity="0.251"/><stop offset="0.56" stop-color="#fff" stop-opacity="0.431"/><stop offset="0.76" stop-color="#fff" stop-opacity="0.671"/><stop offset="0.97" stop-color="#fff" stop-opacity="0.961"/><stop offset="1" stop-color="#fff"/></linearGradient><linearGradient id="x" x1="0.832" y1="0.35" x2="-0.641" y2="1.287" xlink:href="#a"/><linearGradient id="y" x1="1.111" y1="0.3" x2="-1.283" y2="1.201" xlink:href="#a"/><linearGradient id="z" x1="0" y1="0.499" x2="1.001" y2="0.499" xlink:href="#h"/><linearGradient id="aa" x1="0" y1="0.5" x2="1" y2="0.5" xlink:href="#h"/><linearGradient id="ab" x1="0.31" y1="0.556" x2="-4.336" y2="2.878" xlink:href="#h"/><linearGradient id="ac" x1="3.35" y1="-0.87" x2="-3.896" y2="2.539" xlink:href="#h"/><linearGradient id="ad" x1="0.214" y1="-0.461" x2="1.476" y2="4.216" xlink:href="#a"/></defs><g transform="translate(-0.001 -0.004)"><path d="M275.04,253.579c5.612-1.361,11.553-3.122,15.248-7.562,9.755-11.737-2.955-31.965,6.363-44.048,1.691-2.188,3.986-3.878,5.531-6.168,5.353-7.934-.248-18.364-5.088-26.623a168.264,168.264,0,0,1-15.923-36.529c-2.614-8.68-4.7-17.932-10.651-24.776-8.194-9.425-21.832-12.029-34.314-11.634-8.264.259-16.706,1.55-24.689-.6-12.472-3.381-44.339-57.092-106.125-10.171-4.386,3.333-9.485,5.715-13.384,9.6-4.321,4.321-7.654,9.722-12.634,13.287-4.764,3.414-10.63,4.861-15.9,7.394-18.8,9.085-27.855,31.571-27.8,52.441.032,11.089,2.069,22.631-1.966,32.948-1.34,3.419-3.333,6.676-3.689,10.327-.7,7.178,4.953,13.228,10.192,18.175,11,10.392,22.469,20.919,36.6,26.348,13.757,5.282,28.9,5.282,43.637,5.218,22.864-.108,45.738-.394,68.6-.313,16.906.065,33.223.94,50.14-.978a276.12,276.12,0,0,0,35.854-6.336Z" transform="translate(-15.189 -66.33)" fill="#68e1fd" opacity="0.25" style="isolation:isolate"/><path d="M456.852,126.3l-6.779-4.521s-15.124,16.2-41.633,24.922C408.44,146.7,441.15,152.513,456.852,126.3Z" transform="translate(-189.24 -91.828)" fill="#68e1fd"/><path d="M456.852,134.155l-6.779-4.515s-15.124,16.2-41.633,24.922C408.44,154.578,441.15,160.384,456.852,134.155Z" transform="translate(-189.24 -95.442)" fill="url(#a)"/><path d="M480.222,125.081l-6.779-4.521s-15.124,16.2-41.633,24.922C431.81,145.482,464.493,151.293,480.222,125.081Z" transform="translate(-199.987 -91.267)" fill="#68e1fd"/><path d="M480.222,132.965l-6.779-4.515s-15.124,16.2-41.633,24.922C431.81,153.372,464.493,159.178,480.222,132.965Z" transform="translate(-199.987 -94.895)" fill="url(#b)"/><path d="M220.773,176.118a5.88,5.88,0,0,0,4.024,1.815,30.869,30.869,0,0,0,6.276.265,1.167,1.167,0,0,1,.918.194c.367.367.092.988-.211,1.415a13.308,13.308,0,0,1-5.563,4.71,7.737,7.737,0,0,1-7.086-.427c-1.545-1.015-2.836-2.782-4.683-2.744a19.612,19.612,0,0,1-16.285,13.411c-1.08.113-2.441,0-2.89-1.01a2.669,2.669,0,0,1-.167-1.037c-.1-4.8,1.388-9.485,2.911-14.043a19.393,19.393,0,0,1,2.7-5.817c2.7-3.581,7.519-4.737,11.818-4.359a7.729,7.729,0,0,1,4.732,1.685C219.353,171.927,219.234,174.136,220.773,176.118Z" transform="translate(-91.132 -113.278)" fill="#68e1fd"/><path d="M220.773,176.118a5.88,5.88,0,0,0,4.024,1.815,30.869,30.869,0,0,0,6.276.265,1.167,1.167,0,0,1,.918.194c.367.367.092.988-.211,1.415a13.308,13.308,0,0,1-5.563,4.71,7.737,7.737,0,0,1-7.086-.427c-1.545-1.015-2.836-2.782-4.683-2.744a19.612,19.612,0,0,1-16.285,13.411c-1.08.113-2.441,0-2.89-1.01a2.669,2.669,0,0,1-.167-1.037c-.1-4.8,1.388-9.485,2.911-14.043a19.393,19.393,0,0,1,2.7-5.817c2.7-3.581,7.519-4.737,11.818-4.359a7.729,7.729,0,0,1,4.732,1.685C219.353,171.927,219.234,174.136,220.773,176.118Z" transform="translate(-91.132 -113.278)" fill="url(#c)"/><path d="M220.773,176.118a5.88,5.88,0,0,0,4.024,1.815,30.869,30.869,0,0,0,6.276.265,1.167,1.167,0,0,1,.918.194c.367.367.092.988-.211,1.415a13.308,13.308,0,0,1-5.563,4.71,7.737,7.737,0,0,1-7.086-.427c-1.545-1.015-2.836-2.782-4.683-2.744a19.612,19.612,0,0,1-16.285,13.411c-1.08.113-2.441,0-2.89-1.01a2.669,2.669,0,0,1-.167-1.037c-.1-4.8,1.388-9.485,2.911-14.043a19.393,19.393,0,0,1,2.7-5.817c2.7-3.581,7.519-4.737,11.818-4.359a7.729,7.729,0,0,1,4.732,1.685C219.353,171.927,219.234,174.136,220.773,176.118Z" transform="translate(-91.132 -113.278)" fill="url(#d)"/><path d="M289.965,125.792S286.772,88.847,287.8,77.18c0,0-60.527,27.277-76.974,48.612s-94.35,36.362-94.35,36.362l166.755.54Z" transform="translate(-54.977 -71.318)" fill="#68e1fd"/><path d="M289.965,125.792S286.772,88.847,287.8,77.18c0,0-60.527,27.277-76.974,48.612s-94.35,36.362-94.35,36.362l166.755.54Z" transform="translate(-54.977 -71.318)" fill="url(#e)"/><path d="M345.442,131.327s-3.122-33.434-2.16-41.547c0,0-44.636,22.685-59.236,41.547S244,155.584,244,155.584,320.034,132.726,345.442,131.327Z" transform="translate(-113.619 -77.112)" fill="url(#f)"/><path d="M170.21,184.066S276.227,149.649,306.323,148.7s56.341-23.868,56.341-23.868,20.109,59.8,17.317,82.689l-45.371,21.87-41.05,30.977Z" transform="translate(-79.685 -93.231)" fill="#68e1fd"/><path d="M356.36,177.42c-.594-2.441,2.16-3.921,4.164-2.9,2.161,1.08,3.187,3.975,4.175,6a28.561,28.561,0,0,0,10.144,11.343c.924.594,2.128,1.14,3.068.573.816-3.019-1.123-6-2.306-8.891a19.035,19.035,0,0,1-1.394-8.221,6.849,6.849,0,0,1,.843-3.289,3.025,3.025,0,0,1,2.868-1.518c1.723.259,2.544,2.22,3.041,3.889l3.732,12.515c.2.67.5,1.437,1.167,1.62s1.442-.383,1.977-.934a15.9,15.9,0,0,0,3.122-4c2.026-4.2.065-9.112-.232-13.763-.043-.7.038-1.539.659-1.847.891-.437,1.745.637,2.161,1.534q2.16,4.71,4.116,9.485a16.021,16.021,0,0,1,1.3,4.267,18.869,18.869,0,0,1-.454,5.153,65.355,65.355,0,0,0-.859,13.811c.162,3.694.637,7.432-.07,11.062A34.309,34.309,0,0,1,395,220.554l-9.161,20.7a11.383,11.383,0,0,1-2.787,4.364c-1.334,1.123-3.441,1.529-4.807.448l-.383-14.794c-.07-2.863-.146-5.725-.5-8.566-.708-5.758-2.539-11.343-4.359-16.825a14.513,14.513,0,0,0-2.522-5.18,26.417,26.417,0,0,0-4.191-3.241,18.034,18.034,0,0,1-6.708-9.722c-.686-2.506-.837-5.18-1.955-7.524A14.815,14.815,0,0,1,356.36,177.42Z" transform="translate(-165.252 -113.034)" fill="url(#g)"/><path d="M365.728,178.263c-.14-.184-.454,0-.54.194s-.092.481-.249.659a6.286,6.286,0,0,0-1.345-1.734.794.794,0,0,0-.335-.2c-.308-.065-.583.265-.589.583a1.658,1.658,0,0,0,.351.864,2.231,2.231,0,0,0-1.08-.967.621.621,0,0,0-.292-.065c-.286.038-.4.411-.329.691a6.251,6.251,0,0,1,.281.81,2.117,2.117,0,0,0-.826-.821c-.329-.189-.837-.232-1.01.108a.816.816,0,0,0-.032.5,5.286,5.286,0,0,0,.362,1.21,3.49,3.49,0,0,0-.837-1.161.373.373,0,0,0-.189-.108c-.227,0-.292.3-.249.54a5.655,5.655,0,0,0,2.5,3.711,6.876,6.876,0,0,1,1.426.978c.151.162.335.373.54.308a.633.633,0,0,0,.162-.1l1.95-1.561a.351.351,0,0,0,.135-.146c.059-.135-.043-.286-.124-.416a2.025,2.025,0,0,1-.07-1.9,7.778,7.778,0,0,0,.394-1.971Z" transform="translate(-166.415 -117.302)" fill="url(#h)"/><path d="M422.653,167.742a1.825,1.825,0,0,1,.038-1.01.735.735,0,0,1,.816-.47c.313.086.481.421.61.718l.432,1.01a5.261,5.261,0,0,1-.54-1.583.865.865,0,0,1,.027-.5.335.335,0,0,1,.405-.205.449.449,0,0,1,.205.194,6.936,6.936,0,0,1,.821,1.62,1.923,1.923,0,0,1-.329-1.556.583.583,0,0,1,.216-.367c.281-.173.6.135.772.416a6.3,6.3,0,0,1,.627,1.469,3.241,3.241,0,0,1-.146-1.323.54.54,0,0,1,.157-.373c.238-.173.54.113.681.367a6.832,6.832,0,0,1,.8,3.975,1.68,1.68,0,0,1-.389,1.048,1.75,1.75,0,0,1-.783.383,17.082,17.082,0,0,1-2.269.411,1.329,1.329,0,0,1-1.421-.54l-.826-.778a.567.567,0,0,1-.221-.389c0-.481.718-.286.864-.648S422.7,168.1,422.653,167.742Z" transform="translate(-195.632 -111.955)" fill="url(#i)"/><path d="M234.564,152.4c-2.3,7.022-5.58,7.616-8.475,5.612a.569.569,0,0,1-.038.167h0c-.108.47-.454,1.75-1.048,2.128a1.961,1.961,0,0,1-1.037.3,3.241,3.241,0,0,1-2.809-1.966,8.141,8.141,0,0,1,0-4.7,22.1,22.1,0,0,1,1.177-4.494,11.283,11.283,0,0,1,5.445-5.742,6.077,6.077,0,0,1,2.814-.7c1.755.076,4.451,1.718,4.969,3.511C235.98,148.044,235.034,150.955,234.564,152.4Z" transform="translate(-102.952 -101.591)" fill="url(#j)"/><path d="M237.508,143.375a2.33,2.33,0,0,1-1.41,2.5c-1.685.411-2.955-2.161-4.667-1.88-.826.124-1.437.886-2.258,1.048-.437.092-.9,0-1.334.108a2.57,2.57,0,0,0-1.518,1.7,5.837,5.837,0,0,1-1.042,2.107,1.361,1.361,0,0,1-.292-1.08,2.161,2.161,0,0,0-.119-1.14c-.184-.346-.918-.335-1.2.292a3.869,3.869,0,0,0-.346,2.814.778.778,0,0,1-1.123-.232,2.252,2.252,0,0,1-.254-1.264v-3.6a3.42,3.42,0,0,1,2.026-4.11l1.08-.54,1.313-.681a11.518,11.518,0,0,1,5.342-1.577A6.41,6.41,0,0,1,237.508,143.375Z" transform="translate(-103.471 -99.212)" fill="#3f3d56"/><path d="M211.262,182.1a28.84,28.84,0,0,0,5.9,8.01c.74.643,6.9,2.576,6.379,3.408-7.562,5.336-9.679,1.48-11.429.853s-2.528-3.4-4.019-4.51a22.147,22.147,0,0,1-2.976-2.522,12.056,12.056,0,0,1-3.025-10.306c.362-1.955,3.781-7.713,6.347-4.57.767.934.216,2.89.438,4.04A19.112,19.112,0,0,0,211.262,182.1Z" transform="translate(-94.261 -114.714)" fill="#68e1fd"/><path d="M211.262,182.1a28.84,28.84,0,0,0,5.9,8.01c.74.643,6.9,2.576,6.379,3.408-7.562,5.336-9.679,1.48-11.429.853s-2.528-3.4-4.019-4.51a22.147,22.147,0,0,1-2.976-2.522,12.056,12.056,0,0,1-3.025-10.306c.362-1.955,3.781-7.713,6.347-4.57.767.934.216,2.89.438,4.04A19.112,19.112,0,0,0,211.262,182.1Z" transform="translate(-94.261 -114.714)" fill="url(#k)"/><path d="M274.84,177.176c1.037-1.042,2.5-1.88,3.635-2.814a5.458,5.458,0,0,0-4.494.5c-1.345,1.037-3.241,3.241-.729,4.051.675.216,2.242.254,2.42-.7C275.791,177.678,275.364,176.646,274.84,177.176Z" transform="translate(-126.506 -115.88)" fill="url(#l)"/><path d="M75.195,249.371s-68.732.718-71.454-11.04l-.081-.891C4.287,224.746,64.6,232.5,64.6,232.5l60.84.329c-1.62.065-3.1.135-4.494.216-31.868,1.885-56.908,1.01-88.754-.961-4.553-.281-9.809-1.372-14.335-.7-2.161.324-8.723,2.193-9.328,4.294-.265.907.54,1.745,1.34,2.29,6.989,4.861,16.128,5,24.652,4.937,59.506-.41,116.371-.157,175.807-.54C208.386,241.22,75.195,249.371,75.195,249.371Z" transform="translate(-3.094 -141.667)" fill="#68e1fd"/><path d="M214.421,243.225c-59.414.394-116.3.14-175.807.54-8.523.059-17.662-.065-24.652-4.937-.778-.54-1.62-1.383-1.34-2.29.6-2.09,7.2-3.981,9.328-4.283,4.526-.675,9.782.416,14.335.7,31.868,1.971,56.9,2.846,88.754.961,1.394-.081,2.9-.151,4.494-.216l53.068.292,10.921.059h.059l9.863.054C209.155,239.5,212.482,242.086,214.421,243.225Z" transform="translate(-7.191 -142.532)" fill="#68e1fd"/><path d="M213.112,243.456,75.195,249.4s-68.732.691-71.454-11.067l-.081-.891C4.287,224.746,64.6,232.5,64.6,232.5l134.773.735c5.709,5.4,9.036,7.983,10.975,9.123h2.641a.313.313,0,0,1,0,.038v.1Z" transform="translate(-3.094 -141.667)" fill="url(#m)"/><path d="M391.535,253.859h-.205l-.13-.951v-.07a.279.279,0,0,0,0-.038Z" transform="translate(-181.312 -152.08)" fill="url(#n)"/><path d="M3.737,244.531a3.046,3.046,0,0,1-.081-.891Z" transform="translate(-3.09 -147.868)" fill="none" stroke="#000" stroke-miterlimit="10" stroke-width="1.12"/><path d="M223.206,341.525s-162.2,18.861-198.06,4.035c0,0-14.611-3.824-15.6-16.744s2.517-17.511-1.215-33.753L3.81,245.29c2.7,11.759,71.454,11.04,71.454,11.04l138.122-5.941s2.431,7.438,3.2,32.348A405.981,405.981,0,0,0,223.206,341.525Z" transform="translate(-3.163 -148.626)" fill="#68e1fd"/><path d="M214.421,243.225c-59.414.394-116.3.14-175.807.54-8.523.059-17.662-.065-24.652-4.937-.778-.54-1.62-1.383-1.34-2.29.6-2.09,7.2-3.981,9.328-4.283,4.526-.675,9.782.416,14.335.7,31.868,1.971,56.9,2.846,88.754.961,1.394-.081,2.9-.151,4.494-.216,10.716-.416,25.3-.378,34.676-.216,6.152.108,12.266.367,18.391.508,3.63.081,7.27.124,10.921.059h.059c2-.032,5.941,0,9.809,0l.054.049C209.155,239.5,212.482,242.086,214.421,243.225Z" transform="translate(-7.191 -142.532)" fill="url(#o)"/><path d="M5,258.71s2.323,8.729,45.684,10.376,159.425-5.1,160-6.59,6.292,0,6.292,0-5.547,14.259-6.292,25.3,6.876,51.129,6.876,53.424c0,0-136.869,17.014-179.464,8.075,0,0-21.189-6.654-28.216-18.829" transform="translate(-3.71 -154.798)" fill="url(#p)"/><path d="M5,258.71s2.323,8.729,45.684,10.376,158.582-6.249,158.582-6.249,2.161,13.93,1.415,24.97,6.876,51.129,6.876,53.424c0,0-136.869,17.014-179.464,8.075,0,0-21.189-6.654-28.216-18.829" transform="translate(-3.71 -154.798)" fill="none" stroke="#fff" stroke-miterlimit="10" stroke-width="2"/><path d="M116.48,235.869s50.772-.913,82.1-14.584,55.731,15.378,55.731,15.378Z" transform="translate(-54.977 -135.905)" fill="url(#q)"/><path d="M394.271,251.478l-39.159,29.194-5.925-57.594-.13-.983V222a.3.3,0,0,0,0-.038h-2.641c-1.939-1.14-5.266-3.727-10.975-9.123l-.054-.049-.151-.14c-15.016-14.216-33.915-12.909-33.915-12.909l2.8-1.318a127.508,127.508,0,0,1,43.108-11.661h0Z" transform="translate(-139.979 -121.71)" fill="url(#r)"/><path d="M315.27,180.068A284.728,284.728,0,0,1,342.9,171.3c12.682-3.111,58.3-3.781,81.614-28.276,0,0,14.5,47.9,16.02,60.365l2.128,7.3s-36.5,16.425-41.974,20.682-39.159,29.194-39.159,29.194l-6.573-57.108-6.962-5.191c-9.49-8.9-17.144-15.923-29.2-17.678Z" transform="translate(-146.394 -101.596)" fill="url(#s)"/><path d="M386.28,252.75h2.641v.135C388.97,253.247,388.829,254.268,386.28,252.75Z" transform="translate(-179.05 -152.057)" fill="url(#t)"/><path d="M187.63,211.145s36.669-11,49.638-15.664,40.947-11.661,40.947-11.661l-54.137,17.441-31.209,10.073Z" transform="translate(-87.696 -120.358)" fill="url(#u)"/><path d="M212.83,221.677s4.942-.443,6.536-.54l39.921-14.827Z" transform="translate(-99.285 -130.701)" fill="url(#v)"/><path d="M404.415,194.6a10.208,10.208,0,0,0,2.7-5.671c.221-2.274-.853-4.445-1.669-6.584-.54-1.4-.961-2.836-1.469-4.245-.383-1.08-.8-2.112-1.275-3.144a6.978,6.978,0,0,0-5.4,1.826c.724.735.783,1.869,1.08,2.857.481,1.593,1.653,2.949,1.89,4.6a5.757,5.757,0,0,1-2.852,5.326,11.927,11.927,0,0,1-2.668,1.14,45.144,45.144,0,0,1-7.437,2,15.983,15.983,0,0,1-7.627-.5,21.674,21.674,0,0,1-3.36-1.588,14.586,14.586,0,0,1-2.231-1.426,12.731,12.731,0,0,1-3.03-4.024,32.878,32.878,0,0,1-1.858-4.251,29.488,29.488,0,0,1-3.63,3.387l2.868,6.482a22.371,22.371,0,0,0,1.145,2.344,23.3,23.3,0,0,0,7.13,7.34,19.5,19.5,0,0,1,3,2.209,11.435,11.435,0,0,1,2.209,3.424c2.7,5.941,3.241,12.585,4.37,19.007a6.724,6.724,0,0,0,1.053,2.955,6.943,6.943,0,0,0,2.825,1.874,11.267,11.267,0,0,0,2.868.983,8.372,8.372,0,0,0,3.084-.184,16.787,16.787,0,0,0,10.408-7.205,7.869,7.869,0,0,0,1.323-3.241c.227-1.8-.5-3.565-1-5.309-.567-1.961-.859-3.981-1.269-5.979C404.815,205.211,400.861,198.589,404.415,194.6Z" transform="translate(-169.53 -116.266)" fill="#68e1fd"/><path d="M404.415,194.6a10.208,10.208,0,0,0,2.7-5.671c.221-2.274-.853-4.445-1.669-6.584-.54-1.4-.961-2.836-1.469-4.245-.383-1.08-.8-2.112-1.275-3.144a6.978,6.978,0,0,0-5.4,1.826c.724.735.783,1.869,1.08,2.857.481,1.593,1.653,2.949,1.89,4.6a5.757,5.757,0,0,1-2.852,5.326,11.927,11.927,0,0,1-2.668,1.14,45.144,45.144,0,0,1-7.437,2,15.983,15.983,0,0,1-7.627-.5,21.674,21.674,0,0,1-3.36-1.588,14.586,14.586,0,0,1-2.231-1.426,12.731,12.731,0,0,1-3.03-4.024,32.878,32.878,0,0,1-1.858-4.251,29.488,29.488,0,0,1-3.63,3.387l2.868,6.482a22.371,22.371,0,0,0,1.145,2.344,23.3,23.3,0,0,0,7.13,7.34,19.5,19.5,0,0,1,3,2.209,11.435,11.435,0,0,1,2.209,3.424c2.7,5.941,3.241,12.585,4.37,19.007a6.724,6.724,0,0,0,1.053,2.955,6.943,6.943,0,0,0,2.825,1.874,11.267,11.267,0,0,0,2.868.983,8.372,8.372,0,0,0,3.084-.184,16.787,16.787,0,0,0,10.408-7.205,7.869,7.869,0,0,0,1.323-3.241c.227-1.8-.5-3.565-1-5.309-.567-1.961-.859-3.981-1.269-5.979C404.815,205.211,400.861,198.589,404.415,194.6Z" transform="translate(-169.53 -116.266)" fill="url(#w)"/><path d="M398.852,304.98a48.288,48.288,0,0,1-1.113-8.642c-.059-9.269,3.424-17.284,4.4-26.5,5.32,2.6,14.357.373,18.235-4.1,3.695,10.235,2.22,21.551,3.911,32.294,1.539,9.8,5.682,18.975,8.507,28.481a1.183,1.183,0,0,1-.227,1.145c-.7.756-3.343.843-3.894.1-4.667-6.293-7.411-13.752-10.6-20.908a50.917,50.917,0,0,1-4.8-22.794c-.659-.3-1.334.356-1.745.945-4.272,6.2-5.725,13.995-5.439,21.519a88.616,88.616,0,0,0,3.187,18.581,2.9,2.9,0,0,1-4.991,2.641l-.043-.049C402.822,325.927,399.975,310.917,398.852,304.98Z" transform="translate(-184.319 -158.031)" fill="#68e1fd"/><path d="M432.567,327.654a4.035,4.035,0,0,1-3.1.513,1.351,1.351,0,0,1-.794-.411c-4.667-6.293-7.411-13.752-10.6-20.908a50.918,50.918,0,0,1-4.8-22.794.859.859,0,0,0-.729,0h0a2.7,2.7,0,0,0-1,.929c-4.272,6.2-5.725,13.995-5.439,21.519a88.612,88.612,0,0,0,3.187,18.581,2.9,2.9,0,0,1-4.991,2.641l-.043-.049c-1.421-1.761-4.267-16.771-5.4-22.686a48.277,48.277,0,0,1-1.113-8.642c-.059-9.269,3.424-17.284,4.4-26.5,5.32,2.6,14.357.373,18.235-4.1,3.695,10.235,2.22,21.551,3.911,32.294,1.539,9.8,5.682,18.975,8.507,28.481A1.183,1.183,0,0,1,432.567,327.654Z" transform="translate(-184.319 -158.035)" fill="url(#x)"/><path d="M410.906,388.949a1.021,1.021,0,0,0,0,.362.924.924,0,0,0,.816.6,3.333,3.333,0,0,0,2.749-.988,7.907,7.907,0,0,0,1.62-2.533,16.408,16.408,0,0,0,1.329-4.132.621.621,0,0,0-.092-.54.811.811,0,0,0-.405-.157c-1.491-.373-3.338-5.4-4.591-1.475-.416,1.323.135,2.76-.124,4.137C411.9,385.838,411.171,387.323,410.906,388.949Z" transform="translate(-190.367 -209.931)" fill="#25233a"/><path d="M457.858,380.77a2.464,2.464,0,0,1-.346.918,8.793,8.793,0,0,0-1.5,4.651.8.8,0,0,0,.319.691.842.842,0,0,0,.626,0,8.717,8.717,0,0,0,5.526-5.347c.151-.437.243-.988-.1-1.3a1.805,1.805,0,0,0-.508-.259c-1.448-.6-1.923-3.241-3.4-3.4C455.681,376.427,457.939,379.841,457.858,380.77Z" transform="translate(-211.111 -209.061)" fill="#25233a"/><path d="M442.622,339.876a1.582,1.582,0,0,1-.54.934,1.35,1.35,0,0,1-.794-.41c-4.667-6.293-7.411-13.752-10.6-20.908a50.916,50.916,0,0,1-4.8-22.793.858.858,0,0,0-.729,0c.929-.88,2.161-1.442,2.852-2.819a1.28,1.28,0,0,1,.367-.54.783.783,0,0,1,1.026.254,2.117,2.117,0,0,1,.335,1.107c.4,4.083-.54,8.248.13,12.293a28.564,28.564,0,0,0,2.042,6.212q1.685,3.991,3.532,7.924c1.107,2.344,2.252,4.672,3.241,7.06,1.426,3.37,2.571,6.849,3.711,10.322A2.934,2.934,0,0,1,442.622,339.876Z" transform="translate(-196.929 -170.679)" fill="url(#y)"/><path d="M245.629,219.252l-13.779-4.861s2.63-3.208,5.093-3.241c0,0,8.1,4.91,9.722,5.088a48.663,48.663,0,0,0,5.326,0,.832.832,0,0,1-.837.945,2.2,2.2,0,0,0-1.269.3s3.095,1.042,4.008,2.058.735,1.237.735,1.237l-1.394.254-.254.508-.837.254-1.015-.227-.708-.329a9.881,9.881,0,0,1-1.377-.686C248.675,220.251,246.109,220.343,245.629,219.252Z" transform="translate(-108.032 -132.926)" fill="url(#z)"/><path d="M398.645,183.631a6.818,6.818,0,0,0-.032,1.961,6.384,6.384,0,0,0,1.021,2.242,7.728,7.728,0,0,0,1.48,1.836,10.737,10.737,0,0,1,1.3,1.08,3.824,3.824,0,0,1,.751,2.641.815.815,0,0,0,.065.411.6.6,0,0,0,.211.194,2.161,2.161,0,0,0,1.734.157,4.689,4.689,0,0,0,1.539-.891,1.08,1.08,0,0,0,.351-.405,1.188,1.188,0,0,0,0-.659,14.036,14.036,0,0,1,.492-5.218,15.539,15.539,0,0,0,.594-5.207,5.128,5.128,0,0,0-2.755-4.208,6.147,6.147,0,0,0-2.506-.383,5.4,5.4,0,0,0-1.62.205C398.656,178.219,398.888,181.427,398.645,183.631Z" transform="translate(-184.695 -117.301)" fill="url(#aa)"/><path d="M400.292,171.429a1.734,1.734,0,0,0-.708,0,.972.972,0,0,0-.637,1.183.708.708,0,0,0-1.08,0,1.21,1.21,0,0,0-.13,1.269c-.032-.1-.2-.092-.265,0a.459.459,0,0,0-.027.319l.076.481a7.6,7.6,0,0,0,.416,1.7,6.386,6.386,0,0,0,2.6,2.7,2.258,2.258,0,0,1,.735.654,1.911,1.911,0,0,1,.216.648,11.156,11.156,0,0,1,.194,2.08l.54-.951a.454.454,0,0,1,.167-.194c.178-.081.362.108.443.286a1.977,1.977,0,0,1-.081,1.8,4.964,4.964,0,0,0-.5.8.659.659,0,0,0,.248.821,2.838,2.838,0,0,0,.373.076,1.215,1.215,0,0,1,.762,1,3.479,3.479,0,0,0,.362,1.269c.243.373.843.54,1.123.205.184.492.886.465,1.4.34a1.886,1.886,0,0,0,.616-.232c.481-.335.54-1,.632-1.583a15.42,15.42,0,0,1,.74-2.42,18.8,18.8,0,0,0,.886-4.11,2.493,2.493,0,0,0-.659-2.344,1.14,1.14,0,0,1-.383-.313,1.047,1.047,0,0,1,0-.681C408.929,172.828,402.426,171.683,400.292,171.429Z" transform="translate(-184.177 -114.643)" fill="#3f3d56"/><path d="M228.44,170.084h0c-.108.47-.454,1.75-1.048,2.128a1.961,1.961,0,0,1-1.037.3,1.188,1.188,0,0,1-.329-.54,2.56,2.56,0,0,1,.14-1.3,8.139,8.139,0,0,1,.486-1.264,1.183,1.183,0,0,1,.27-.378.454.454,0,0,1,.432-.113.782.782,0,0,1,.238.146,7.176,7.176,0,0,1,.713.691.567.567,0,0,1,.135.33Z" transform="translate(-105.34 -113.498)" fill="url(#ab)"/><path d="M225.85,156.243a.712.712,0,0,0,.065-.232c0-.146-.189-.221-.34-.238a.151.151,0,0,0-.1,0c-.043,0-.065.065-.086.108a3.209,3.209,0,0,0-.248,1.129.891.891,0,0,0,.07.492.351.351,0,0,0,.421.189.54.54,0,0,0,.205-.216,2.254,2.254,0,0,0,.232-.416c.076-.221.059-.113-.027-.27S225.758,156.513,225.85,156.243Z" transform="translate(-104.943 -107.457)" fill="url(#ac)"/><path d="M262.812,348.048l4.861,28.589S154.84,392.458,122.6,387.591c0,0,63.59-21.384,70.422-26.51S253.971,335.015,262.812,348.048Z" transform="translate(-57.791 -193.947)" fill="url(#ad)"/></g></svg>