<svg xmlns="http://www.w3.org/2000/svg" xmlns:xlink="http://www.w3.org/1999/xlink" width="56.966" height="52.737" viewBox="0 0 56.966 52.737"><defs><clipPath id="a"><rect width="56.966" height="52.737" fill="#5f6893" stroke="#f5f5f5" stroke-width="1"/></clipPath></defs><g transform="translate(0 0)"><g transform="translate(0 0)" clip-path="url(#a)"><path d="M20.948,16.018a5.258,5.258,0,0,0-.277-8.249" transform="translate(27.841 10.464)" fill="#5f6893" stroke="#f5f5f5" stroke-miterlimit="10" stroke-width="1"/><path d="M22.3,20.155a1.038,1.038,0,0,0,.671-.244,8.413,8.413,0,0,0-.441-13.2,1.049,1.049,0,0,0-.375-.174" transform="translate(29.837 8.8)" fill="#5f6893" stroke="#f5f5f5" stroke-miterlimit="10" stroke-width="1"/><path d="M34.594,11.343V3.783A3.288,3.288,0,0,0,31.31.5H9.423A3.288,3.288,0,0,0,6.14,3.783V47.607A3.287,3.287,0,0,0,9.423,50.89H16.44M14.237.5,15.5,3.246a2.347,2.347,0,0,0,2.049,1.54h5.642a2.347,2.347,0,0,0,2.049-1.54L26.5.5m7.8,40.894H6.14m10.3,9.5H31.31a3.287,3.287,0,0,0,3.283-3.283V10.937" transform="translate(8.27 0.673)" fill="#5f6893" stroke="#f5f5f5" stroke-miterlimit="10" stroke-width="1"/><path d="M4.553,16.018A5.258,5.258,0,0,1,4.83,7.769" transform="translate(3.623 10.464)" fill="#5f6893" stroke="#f5f5f5" stroke-miterlimit="10" stroke-width="1"/><path d="M4.156,20.155a1.039,1.039,0,0,1-.671-.244,8.413,8.413,0,0,1,.441-13.2A1.049,1.049,0,0,1,4.3,6.534" transform="translate(0.673 8.8)" fill="#5f6893" stroke="#f5f5f5" stroke-miterlimit="10" stroke-width="1"/><line y1="3.628" transform="translate(28.49 13.884)" fill="none" stroke="#f5f5f5" stroke-miterlimit="10" stroke-width="0.6"/><line y1="3.656" transform="translate(28.49 29.957)" fill="none" stroke="#f5f5f5" stroke-miterlimit="10" stroke-width="0.6"/><path d="M9.958,16.922c0,1.887,2.3,3.419,5.121,3.419S20.2,18.809,20.2,16.922c0-1.3-1.077-2.474-2.812-3.056h0c-1.148-.4-1.692-.559-2.269-.723-.509-.148-1.04-.3-2.049-.641l-.007,0c-1.425-.479-2.312-1.406-2.312-2.417,0-1.509,1.946-2.736,4.335-2.736s4.33,1.227,4.33,2.736" transform="translate(13.412 9.896)" fill="#5f6893" stroke="#f5f5f5" stroke-miterlimit="10" stroke-width="0.6"/></g></g></svg>