<svg xmlns="http://www.w3.org/2000/svg" xmlns:xlink="http://www.w3.org/1999/xlink" width="221.332" height="233.098" viewBox="0 0 221.332 233.098"><defs><linearGradient id="a" x1="0.774" y1="1.037" x2="0.52" y2="0.5" gradientUnits="objectBoundingBox"><stop offset="0"/><stop offset="1" stop-opacity="0"/></linearGradient><linearGradient id="b" x1="0.099" y1="0.5" x2="1.099" y2="0.5" xlink:href="#a"/><linearGradient id="c" x1="0.503" y1="-0.329" x2="0.501" y2="0.318" gradientUnits="objectBoundingBox"><stop offset="0" stop-color="#68e1fd"/><stop offset="1" stop-color="#69b9eb"/></linearGradient><linearGradient id="d" x1="0.563" y1="1.376" x2="0.521" y2="0.792" gradientUnits="objectBoundingBox"><stop offset="0"/><stop offset="0.84" stop-opacity="0"/></linearGradient><linearGradient id="e" x1="0.098" y1="0.5" x2="1.098" y2="0.5" xlink:href="#a"/><linearGradient id="f" x1="0.611" y1="0.995" x2="0.717" y2="1.462" gradientUnits="objectBoundingBox"><stop offset="0.32" stop-color="#fff" stop-opacity="0"/><stop offset="1" stop-color="#fff"/></linearGradient><linearGradient id="g" x1="0.764" y1="-0.713" x2="0.62" y2="-0.051" xlink:href="#a"/><linearGradient id="h" x1="0.825" y1="-0.969" x2="0.471" y2="0.63" xlink:href="#d"/><linearGradient id="i" x1="0.818" y1="0.73" x2="0.952" y2="0.858" xlink:href="#a"/><linearGradient id="j" x1="0.503" y1="-0.329" x2="0.501" y2="0.317" xlink:href="#c"/><linearGradient id="k" x1="0" y1="0.5" x2="1" y2="0.5" xlink:href="#c"/><linearGradient id="l" x1="0.121" y1="0.5" x2="1.121" y2="0.5" xlink:href="#a"/><linearGradient id="m" x1="0.613" y1="0.941" x2="0.75" y2="1.473" xlink:href="#f"/><linearGradient id="n" x1="0.503" y1="-0.329" x2="0.501" y2="0.318" xlink:href="#c"/><linearGradient id="o" x1="0.662" y1="-0.709" x2="0.534" y2="0.247" xlink:href="#d"/><linearGradient id="p" x1="0.095" y1="0.5" x2="1.095" y2="0.5" xlink:href="#a"/><linearGradient id="q" x1="0.57" y1="0.91" x2="0.661" y2="1.442" xlink:href="#f"/><linearGradient id="r" x1="0.486" y1="0.241" x2="0.531" y2="1.069" xlink:href="#d"/><linearGradient id="s" x1="0.491" y1="0.505" x2="1.01" y2="0.222" xlink:href="#a"/><linearGradient id="t" x1="0.209" y1="0.5" x2="1.209" y2="0.5" xlink:href="#a"/><linearGradient id="u" x1="0.573" y1="-0.424" x2="0.456" y2="1.063" xlink:href="#a"/><linearGradient id="v" x1="0.461" y1="-0.06" x2="0.557" y2="1.322" xlink:href="#f"/><linearGradient id="w" x1="0.478" y1="0.5" x2="1.479" y2="0.5" gradientUnits="objectBoundingBox"><stop offset="0" stop-color="#183866"/><stop offset="1" stop-color="#1a7fc1"/></linearGradient><linearGradient id="x" x1="0.5" y1="0.821" x2="0.5" y2="-0.854" xlink:href="#w"/><linearGradient id="y" x1="1.442" y1="1.944" x2="-0.033" y2="-0.291" xlink:href="#a"/><linearGradient id="z" x1="0.247" y1="-1.541" x2="1.461" y2="8.391" gradientUnits="objectBoundingBox"><stop offset="0" stop-color="#68e1fd"/><stop offset="0.2" stop-color="#5db4cf"/><stop offset="0.46" stop-color="#50819b"/><stop offset="0.69" stop-color="#475c76"/><stop offset="0.87" stop-color="#41455e"/><stop offset="0.99" stop-color="#3f3d56"/></linearGradient><linearGradient id="aa" x1="0.492" y1="0.774" x2="0.529" y2="-0.518" gradientUnits="objectBoundingBox"><stop offset="0.32" stop-color="#fff" stop-opacity="0"/><stop offset="0.54" stop-color="#fff"/></linearGradient><linearGradient id="ab" x1="0.464" y1="1.31" x2="0.553" y2="-0.986" gradientUnits="objectBoundingBox"><stop offset="0.02" stop-color="#68e1fd"/><stop offset="1" stop-color="#fff"/></linearGradient><linearGradient id="ac" x1="0.498" y1="0.529" x2="0.504" y2="-0.002" gradientUnits="objectBoundingBox"><stop offset="0.66" stop-color="#fff" stop-opacity="0"/><stop offset="1" stop-color="#fff"/></linearGradient><linearGradient id="ad" x1="0" y1="0.5" x2="1" y2="0.5" xlink:href="#a"/><linearGradient id="af" x1="0.668" y1="1.908" x2="0.539" y2="0.533" xlink:href="#a"/><linearGradient id="ag" x1="0.468" y1="0.829" x2="0.602" y2="-0.546" gradientUnits="objectBoundingBox"><stop offset="0" stop-color="#fff" stop-opacity="0"/><stop offset="0.54" stop-color="#fff"/></linearGradient><linearGradient id="ah" x1="0.075" y1="-0.418" x2="1.673" y2="3.03" xlink:href="#a"/><linearGradient id="ai" x1="-0.329" y1="-1.288" x2="1.27" y2="2.16" xlink:href="#a"/><linearGradient id="aj" x1="0.513" y1="1.018" x2="0.439" y2="-0.608" gradientUnits="objectBoundingBox"><stop offset="0" stop-color="#fff" stop-opacity="0"/><stop offset="0.67" stop-color="#fff"/></linearGradient><linearGradient id="ak" x1="-1.415" y1="-1.104" x2="1.263" y2="1.138" xlink:href="#a"/><linearGradient id="al" x1="-0.58" y1="-1.232" x2="3.353" y2="5.073" xlink:href="#a"/><linearGradient id="am" x1="-0.534" y1="-1.145" x2="3.343" y2="5.019" xlink:href="#a"/><linearGradient id="an" x1="0.694" y1="2.832" x2="0.453" y2="-0.383" xlink:href="#a"/><linearGradient id="ao" x1="0.48" y1="0.893" x2="0.569" y2="-1.403" xlink:href="#ab"/><linearGradient id="ap" x1="0.469" y1="1.089" x2="0.56" y2="-0.992" xlink:href="#ag"/><linearGradient id="aq" x1="0" y1="0.5" x2="1" y2="0.5" xlink:href="#a"/><linearGradient id="ar" x1="0.449" y1="-0.627" x2="0.525" y2="1.287" xlink:href="#a"/><linearGradient id="as" x1="2.328" y1="2.454" x2="0.07" y2="0.099" xlink:href="#a"/><linearGradient id="at" x1="1.862" y1="1.916" x2="-0.399" y2="-0.359" xlink:href="#a"/><linearGradient id="au" x1="1.376" y1="0.654" x2="-0.105" y2="0.417" xlink:href="#a"/><linearGradient id="av" x1="0.795" y1="1.065" x2="0.423" y2="0.395" xlink:href="#a"/><linearGradient id="aw" y1="0.501" x2="1.001" y2="0.501" gradientUnits="objectBoundingBox"><stop offset="0" stop-color="#ecc4d7"/><stop offset="0.42" stop-color="#efd4d1"/><stop offset="1" stop-color="#f2eac9"/></linearGradient><linearGradient id="ax" x1="0.314" y1="0.437" x2="1.303" y2="0.772" xlink:href="#a"/><linearGradient id="ay" x1="1.136" y1="0.123" x2="-1.175" y2="1.492" xlink:href="#aa"/><linearGradient id="az" x1="0.409" y1="0.557" x2="1.442" y2="-0.089" xlink:href="#aa"/><linearGradient id="ba" x1="0.379" y1="0.434" x2="-0.095" y2="0.175" xlink:href="#a"/><linearGradient id="bb" x1="0.225" y1="0.212" x2="0.911" y2="0.931" xlink:href="#f"/><linearGradient id="bc" x1="0" y1="0.5" x2="1" y2="0.5" xlink:href="#aw"/><linearGradient id="bd" x1="0.271" y1="0.076" x2="0.396" y2="0.296" xlink:href="#aw"/><linearGradient id="be" x1="0.088" y1="0.22" x2="0.841" y2="0.82" gradientUnits="objectBoundingBox"><stop offset="0" stop-color="#ecc4d7"/><stop offset="1" stop-color="#f2eac9"/></linearGradient><linearGradient id="bf" x1="-0.06" y1="0.089" x2="0.69" y2="0.733" xlink:href="#be"/><linearGradient id="bg" x1="-0.002" y1="0.499" x2="1" y2="0.499" xlink:href="#be"/></defs><g transform="translate(0)"><path d="M159.929,106.119c-3.9,14.72-19.487,28.932-22.377,43.882-2.678,13.853,6.419,27.464,17.488,36.218s24.337,14.419,35.25,23.361c10.776,8.836,18.831,20.518,28.827,30.232s23.193,17.738,37.05,16.25c23.884-2.569,35.5-29.616,52.757-46.323,14.533-14.056,36.616-24.567,38.549-44.7,1.171-12.186-5.958-23.466-12.936-33.524-13.588-19.612-39.845-20.608-61.613-30.994C250.794,89.97,175.36,47.95,159.929,106.119Z" transform="translate(-126.268 -46.306)" fill="#68e1fd" opacity="0.18"/><path d="M381.449,99.876l-10.566,9.831a7.052,7.052,0,0,1-5.423,1.866l-18.316-1.62L346,121.241s20.526,3.206,23.454,2.343,21.057-14.6,21.057-14.6l2.675-15.071C389.34,93.894,383.815,97.1,381.449,99.876Z" transform="translate(-253.616 -57.243)" fill="#68e1fd"/><path d="M381.449,99.876l-10.566,9.831a7.052,7.052,0,0,1-5.423,1.866l-18.316-1.62L346,121.241s20.526,3.206,23.454,2.343,21.057-14.6,21.057-14.6l2.675-15.071C389.34,93.894,383.815,97.1,381.449,99.876Z" transform="translate(-253.616 -57.243)" fill="#68e1fd"/><path d="M381.449,99.876l-10.566,9.831a7.052,7.052,0,0,1-5.423,1.866l-18.316-1.62L346,121.241s20.526,3.206,23.454,2.343,21.057-14.6,21.057-14.6l2.675-15.071C389.34,93.894,383.815,97.1,381.449,99.876Z" transform="translate(-253.616 -57.243)" fill="url(#a)"/><path d="M494.2,469.012c0,6.579-17.453,11.916-38.978,11.916s-38.978-5.337-38.978-11.916c0-.633-.308-6.548,0-7.153,2.913-5.7,19.522-4.767,38.978-4.767,18.835,0,35.343-.664,38.978,4.767C494.722,462.636,494.2,468.188,494.2,469.012Z" transform="translate(-296.351 -278.586)" fill="#68e1fd"/><path d="M494.2,469.012c0,6.579-17.453,11.916-38.978,11.916s-38.978-5.337-38.978-11.916c0-.633-.308-6.548,0-7.153,2.913-5.7,19.522-4.767,38.978-4.767,18.835,0,35.343-.664,38.978,4.767C494.722,462.636,494.2,468.188,494.2,469.012Z" transform="translate(-296.351 -278.586)" fill="url(#b)"/><ellipse cx="38.978" cy="11.916" rx="38.978" ry="11.916" transform="translate(119.895 171.356)" fill="#68e1fd"/><path d="M498.843,450.159a3,3,0,0,1-.39,1.441c-2.343,4.346-15.185,7.664-30.666,7.664s-28.311-3.319-30.666-7.664a3.038,3.038,0,0,1-.39-1.441c0-5.033,13.9-9.109,31.048-9.109S498.843,445.126,498.843,450.159Z" transform="translate(-308.921 -268.843)" fill="url(#c)"/><path d="M499.082,456.092c-2.343,4.346-15.185,7.664-30.666,7.664s-28.311-3.319-30.666-7.664c2.343-4.346,15.185-7.672,30.666-7.672S496.731,451.747,499.082,456.092Z" transform="translate(-309.542 -273.335)" fill="#68e1fd"/><path d="M499.082,456.092c-2.343,4.346-15.185,7.664-30.666,7.664s-28.311-3.319-30.666-7.664c2.343-4.346,15.185-7.672,30.666-7.672S496.731,451.747,499.082,456.092Z" transform="translate(-309.542 -273.335)" fill="url(#d)"/><path d="M511.923,424.367c0,6.583-17.453,11.916-38.978,11.916s-38.978-5.334-38.978-11.916c0-.633-.308-6.548,0-7.153,2.913-5.7,19.522-4.763,38.978-4.763,18.835,0,35.343-.664,38.978,4.763C512.442,417.991,511.923,423.563,511.923,424.367Z" transform="translate(-307.152 -251.375)" fill="#68e1fd"/><path d="M511.923,424.367c0,6.583-17.453,11.916-38.978,11.916s-38.978-5.334-38.978-11.916c0-.633-.308-6.548,0-7.153,2.913-5.7,19.522-4.763,38.978-4.763,18.835,0,35.343-.664,38.978,4.763C512.442,417.991,511.923,423.563,511.923,424.367Z" transform="translate(-307.152 -251.375)" fill="url(#e)"/><ellipse cx="38.978" cy="11.916" rx="38.978" ry="11.916" transform="translate(126.814 153.923)" fill="#68e1fd"/><ellipse cx="38.978" cy="11.916" rx="38.978" ry="11.916" transform="translate(126.814 153.923)" fill="url(#f)" style="isolation:isolate"/><path d="M516.563,405.513a3.022,3.022,0,0,1-.391,1.437c-2.343,4.346-15.188,7.668-30.67,7.668s-28.308-3.323-30.662-7.668a2.979,2.979,0,0,1-.39-1.437c0-5.033,13.9-9.113,31.045-9.113S516.563,400.48,516.563,405.513Z" transform="translate(-319.722 -241.626)" fill="url(#g)"/><path d="M516.8,411.448c-2.343,4.346-15.188,7.668-30.67,7.668s-28.308-3.323-30.662-7.668c2.343-4.346,15.185-7.668,30.662-7.668S514.451,407.1,516.8,411.448Z" transform="translate(-320.344 -246.125)" fill="url(#h)"/><path d="M482.539,384.688c0,6.583-17.449,11.917-38.975,11.917s-38.978-5.334-38.978-11.917c0-.629-.308-6.548,0-7.149,2.913-5.7,19.522-4.767,38.978-4.767,18.835,0,35.343-.664,38.975,4.767C483.058,378.312,482.539,383.864,482.539,384.688Z" transform="translate(-289.244 -227.189)" fill="#68e1fd"/><path d="M482.539,384.688c0,6.583-17.449,11.917-38.975,11.917s-38.978-5.334-38.978-11.917c0-.629-.308-6.548,0-7.149,2.913-5.7,19.522-4.767,38.978-4.767,18.835,0,35.343-.664,38.975,4.767C483.058,378.312,482.539,383.864,482.539,384.688Z" transform="translate(-289.244 -227.189)" fill="url(#i)"/><ellipse cx="38.978" cy="11.916" rx="38.978" ry="11.916" transform="translate(115.342 138.433)" fill="#68e1fd"/><path d="M487.183,365.839a3.011,3.011,0,0,1-.39,1.437c-2.343,4.346-15.188,7.668-30.67,7.668s-28.308-3.323-30.662-7.668a2.972,2.972,0,0,1-.39-1.437c0-5.033,13.9-9.109,31.048-9.109S487.183,360.806,487.183,365.839Z" transform="translate(-301.813 -217.445)" fill="url(#j)"/><path d="M487.422,371.768c-2.343,4.346-15.188,7.668-30.67,7.668s-28.308-3.323-30.662-7.668c2.343-4.346,15.181-7.668,30.662-7.668S485.071,367.423,487.422,371.768Z" transform="translate(-302.435 -221.938)" fill="url(#k)"/><path d="M500.433,342.527c0,6.579-17.453,11.917-38.978,11.917s-38.978-5.337-38.978-11.917c0-.633-.308-6.548,0-7.153,2.913-5.7,19.522-4.764,38.978-4.764,18.835,0,35.343-.664,38.978,4.764C500.952,336.151,500.433,341.7,500.433,342.527Z" transform="translate(-300.149 -201.489)" fill="#68e1fd"/><path d="M500.433,342.527c0,6.579-17.453,11.917-38.978,11.917s-38.978-5.337-38.978-11.917c0-.633-.308-6.548,0-7.153,2.913-5.7,19.522-4.764,38.978-4.764,18.835,0,35.343-.664,38.978,4.764C500.952,336.151,500.433,341.7,500.433,342.527Z" transform="translate(-300.149 -201.489)" fill="url(#l)"/><ellipse cx="38.978" cy="11.916" rx="38.978" ry="11.916" transform="translate(122.327 121.968)" fill="#68e1fd"/><ellipse cx="38.978" cy="11.916" rx="38.978" ry="11.916" transform="translate(122.327 121.968)" fill="url(#m)" style="isolation:isolate"/><path d="M505.081,323.669a3,3,0,0,1-.39,1.441c-2.343,4.346-15.188,7.668-30.666,7.668s-28.292-3.323-30.635-7.668a3,3,0,0,1-.39-1.441c0-5.029,13.9-9.109,31.048-9.109S505.081,318.636,505.081,323.669Z" transform="translate(-312.743 -191.741)" fill="url(#n)"/><path d="M505.324,329.608c-2.343,4.346-15.188,7.668-30.666,7.668s-28.315-3.323-30.658-7.668c2.343-4.346,15.185-7.668,30.666-7.668S502.958,325.263,505.324,329.608Z" transform="translate(-313.352 -196.239)" fill="url(#o)"/><path d="M500.433,300.367c0,6.579-17.453,11.917-38.978,11.917s-38.978-5.337-38.978-11.917c0-.633-.308-6.548,0-7.153,2.913-5.7,19.522-4.763,38.978-4.763,18.835,0,35.343-.668,38.978,4.763C500.952,293.991,500.433,299.563,500.433,300.367Z" transform="translate(-300.149 -175.79)" fill="#68e1fd"/><path d="M500.433,300.367c0,6.579-17.453,11.917-38.978,11.917s-38.978-5.337-38.978-11.917c0-.633-.308-6.548,0-7.153,2.913-5.7,19.522-4.763,38.978-4.763,18.835,0,35.343-.668,38.978,4.763C500.952,293.991,500.433,299.563,500.433,300.367Z" transform="translate(-300.149 -175.79)" fill="url(#p)"/><ellipse cx="38.978" cy="11.916" rx="38.978" ry="11.916" transform="translate(122.327 105.507)" fill="#68e1fd"/><ellipse cx="38.978" cy="11.916" rx="38.978" ry="11.916" transform="translate(122.327 105.507)" fill="url(#q)" style="isolation:isolate"/><path d="M505.081,281.509a3,3,0,0,1-.39,1.441c-2.343,4.346-15.188,7.665-30.666,7.665s-28.292-3.319-30.635-7.664a3,3,0,0,1-.39-1.441c0-5.033,13.9-9.109,31.048-9.109S505.081,276.476,505.081,281.509Z" transform="translate(-312.743 -166.042)" fill="url(#r)"/><path d="M505.324,287.442c-2.343,4.346-15.188,7.665-30.666,7.665s-28.315-3.319-30.658-7.665c2.343-4.346,15.185-7.672,30.666-7.672S502.958,283.1,505.324,287.442Z" transform="translate(-313.352 -170.534)" fill="url(#s)"/><path d="M473.743,255.562c0,6.579-17.453,11.916-38.979,11.916s-38.978-5.337-38.978-11.916c0-.633-.308-6.548,0-7.153,2.913-5.7,19.522-4.767,38.978-4.767,18.835,0,35.343-.664,38.978,4.767C474.266,249.186,473.743,254.738,473.743,255.562Z" transform="translate(-283.88 -148.477)" fill="#68e1fd"/><path d="M473.743,255.562c0,6.579-17.453,11.916-38.979,11.916s-38.978-5.337-38.978-11.916c0-.633-.308-6.548,0-7.153,2.913-5.7,19.522-4.767,38.978-4.767,18.835,0,35.343-.664,38.978,4.767C474.266,249.186,473.743,254.738,473.743,255.562Z" transform="translate(-283.88 -148.477)" fill="url(#t)"/><ellipse cx="38.978" cy="11.916" rx="38.978" ry="11.916" transform="translate(111.906 88.015)" fill="#68e1fd"/><path d="M478.393,236.709a3,3,0,0,1-.39,1.441c-2.343,4.346-15.185,7.665-30.666,7.665s-28.311-3.319-30.666-7.665a3.038,3.038,0,0,1-.39-1.441c0-5.033,13.9-9.109,31.048-9.109S478.393,231.661,478.393,236.709Z" transform="translate(-296.455 -138.734)" fill="url(#u)"/><path d="M478.622,242.642c-2.343,4.346-15.185,7.665-30.666,7.665s-28.311-3.319-30.666-7.665c2.343-4.346,15.185-7.672,30.666-7.672S476.271,238.3,478.622,242.642Z" transform="translate(-297.071 -143.226)" fill="#68e1fd"/><path d="M478.622,242.642c-2.343,4.346-15.185,7.665-30.666,7.665s-28.311-3.319-30.666-7.665c2.343-4.346,15.185-7.672,30.666-7.672S476.271,238.3,478.622,242.642Z" transform="translate(-297.071 -143.226)" fill="url(#v)" style="isolation:isolate"/><path d="M481.013,228.183a3.464,3.464,0,0,1,2.073,3.249,16.063,16.063,0,0,0-.5,2.319,8.538,8.538,0,0,0,.9,2.386,4.582,4.582,0,0,1-2.058,5.107,11.156,11.156,0,0,1-2.733,1.191,70.732,70.732,0,0,1-15.946,3.167,46.206,46.206,0,0,0-8.566,1.05c-1.769.484-3.456,1.246-5.228,1.734a2.756,2.756,0,0,1-1.339.125,1.967,1.967,0,0,1-1.316-2.144,4.022,4.022,0,0,1,1.328-2.343,31.058,31.058,0,0,1,4.963-3.334,61.393,61.393,0,0,0,5.958-4.857c1.71-1.445,3.514-2.788,5.306-4.127a43.851,43.851,0,0,1,6.884-4.49c2.464-1.2,6.942-.39,6.513-.39C477.366,227.855,480.146,227.745,481.013,228.183Z" transform="translate(-314.748 -138.098)" opacity="0.19" fill="url(#w)"/><path d="M385.873,198.621s-33.133-2.784-34.071,14.907l-2.522,4.135,18.242,10.394s-1.519-4.35,2.635-6.466,20.92-3.147,23.517-8.063S385.873,198.621,385.873,198.621Z" transform="translate(-255.615 -120.972)" fill="#25233a"/><path d="M419.849,210.05s-21.194,8.348-23,17.4-1.078,7.672-1.078,7.672l7.809,5.517,11.444-1.933s2.343-5.162,9.816-6.544,18.07-3.643,20.362-9.55a34.223,34.223,0,0,0,1.913-12.561Z" transform="translate(-283.868 -128.036)" fill="#3f3d56"/><ellipse cx="71.753" cy="14.236" rx="71.753" ry="14.236" transform="translate(1.054 204.626)" opacity="0.19" fill="url(#x)"/><path d="M395.783,493.282l-6.185,1.808a10.253,10.253,0,0,1-12.951-8.028l-4.767-25.789,23.931-9.133,6.388,30.346a9.25,9.25,0,0,1-6.415,10.8Z" transform="translate(-269.391 -275.603)" fill="#68e1fd"/><path d="M423.658,494.751l-6.048-37.788,6.275-2.413,6.189,29.4A9.25,9.25,0,0,1,423.658,494.751Z" transform="translate(-297.266 -277.072)" fill="url(#y)"/><path d="M221.535,484.461l-6.423.492a10.292,10.292,0,0,1-11.038-10.542l.605-26.223,25.282-3.979.055,31.017A9.218,9.218,0,0,1,221.535,484.461Z" transform="translate(-167.103 -270.769)" fill="#68e1fd"/><path d="M248.8,485.955l1.8-38.229,6.638-1.066.051,30.065A9.218,9.218,0,0,1,248.8,485.955Z" transform="translate(-194.368 -272.262)" fill="url(#z)"/><path d="M254.622,278.432c-4.463,28.635-34.953,50.79-71.889,50.79s-67.45-22.154-71.913-50.79c4.463-28.628,34.949-50.782,71.913-50.782S250.159,249.8,254.622,278.432Z" transform="translate(-110.262 -138.764)" fill="#68e1fd"/><path d="M254.622,278.432c-4.463,28.635-34.953,50.79-71.889,50.79s-67.45-22.154-71.913-50.79c4.463-28.628,34.949-50.782,71.913-50.782S250.159,249.8,254.622,278.432Z" transform="translate(-110.262 -138.764)" fill="url(#aa)" style="isolation:isolate"/><path d="M482.5,259.131s3.342-12.533,16.516-11.421,11.674,19.7,0,29.674C499.016,277.4,486.131,261.486,482.5,259.131Z" transform="translate(-336.82 -150.95)" fill="url(#ab)" style="isolation:isolate"/><path d="M482.5,259.131s3.342-12.533,16.516-11.421,11.674,19.7,0,29.674C499.016,277.4,486.131,261.486,482.5,259.131Z" transform="translate(-336.82 -150.95)" fill="url(#ac)" style="isolation:isolate"/><path d="M499.58,273.1s2.343-8.734,11.507-7.957,8.133,13.728,0,20.694C511.087,285.83,502.11,274.741,499.58,273.1Z" transform="translate(-347.231 -161.589)" fill="#68e1fd"/><path d="M499.58,273.1s2.343-8.734,11.507-7.957,8.133,13.728,0,20.694C511.087,285.83,502.11,274.741,499.58,273.1Z" transform="translate(-347.231 -161.589)" fill="url(#ad)"/><path d="M254.313,364.976c0,32.056-32.446,58.052-72.452,58.052s-72.471-26-72.471-58.052a47.14,47.14,0,0,1,.558-7.266c4.463,28.635,34.949,50.79,71.913,50.79s67.438-22.154,71.9-50.79a47.137,47.137,0,0,1,.551,7.266Z" transform="translate(-109.39 -218.043)" fill="url(#k)"/><path d="M254.313,364.991c0,32.056-32.442,58.052-72.452,58.052s-72.471-26-72.471-58.052a47.565,47.565,0,0,1,.558-7.257c4.464,28.626,34.95,50.784,71.914,50.784a88.241,88.241,0,0,0,26.2-3.9c3.334-2.343-1-14.353-1.1-14.626l6.3,3.276,6.036,6.923c18.546-8.98,31.658-24.434,34.465-42.45A47.09,47.09,0,0,1,254.313,364.991Z" transform="translate(-109.39 -218.057)" fill="url(#af)"/><path d="M443.975,321.895a44.98,44.98,0,0,1-4.178,18.972,47.862,47.862,0,0,1-77.4,12.67,45.335,45.335,0,0,1-12.908-31.654c0-25.457,21.154-46.073,47.244-46.073S443.975,296.437,443.975,321.895Z" transform="translate(-255.743 -168.12)" fill="#68e1fd"/><path d="M443.975,321.895a44.98,44.98,0,0,1-4.178,18.972,47.862,47.862,0,0,1-77.4,12.67,45.335,45.335,0,0,1-12.908-31.654c0-25.457,21.154-46.073,47.244-46.073S443.975,296.437,443.975,321.895Z" transform="translate(-255.743 -168.12)" fill="url(#ag)" style="isolation:isolate"/><ellipse cx="3.432" cy="3.459" rx="3.432" ry="3.459" transform="translate(147.5 141.292)" fill="#68e1fd"/><ellipse cx="3.432" cy="3.459" rx="3.432" ry="3.459" transform="translate(169.619 138.414)" fill="#68e1fd"/><ellipse cx="3.432" cy="3.459" rx="3.432" ry="3.459" transform="translate(147.5 141.292)" fill="url(#ah)"/><ellipse cx="3.432" cy="3.459" rx="3.432" ry="3.459" transform="translate(169.619 138.414)" fill="url(#ai)"/><path d="M540.55,385.236l3.662,19.823a16.008,16.008,0,0,1-4.131,1.367c-7.169,1.331-13.849-2.261-14.919-8.039s3.873-11.569,11.042-12.912A15.958,15.958,0,0,1,540.55,385.236Z" transform="translate(-362.736 -234.789)" fill="#68e1fd"/><path d="M540.55,385.236l3.662,19.823a16.008,16.008,0,0,1-4.131,1.367c-7.169,1.331-13.849-2.261-14.919-8.039s3.873-11.569,11.042-12.912A15.958,15.958,0,0,1,540.55,385.236Z" transform="translate(-362.736 -234.789)" fill="url(#aj)" style="isolation:isolate"/><ellipse cx="5.345" cy="10.109" rx="5.345" ry="10.109" transform="translate(172.3 151.449) rotate(-10.41)" fill="#68e1fd"/><ellipse cx="5.345" cy="10.109" rx="5.345" ry="10.109" transform="translate(172.3 151.449) rotate(-10.41)" fill="url(#ak)"/><path d="M564.885,404.209c.551,1.929.691,3.58.312,3.69s-1.136-1.363-1.687-3.291-.691-3.577-.312-3.686S564.334,402.284,564.885,404.209Z" transform="translate(-385.88 -244.379)" fill="url(#al)"/><path d="M574.551,401.051c.566,1.952.715,3.655.336,3.768s-1.144-1.4-1.706-3.37-.715-3.658-.336-3.768S573.989,399.079,574.551,401.051Z" transform="translate(-391.762 -242.404)" fill="url(#am)"/><path d="M460.011,440.31l-.062.828a47.862,47.862,0,0,1-77.4,12.67s3.612-5.209,30.1-.742S460.011,440.31,460.011,440.31Z" transform="translate(-275.895 -268.392)" fill="url(#an)"/><path d="M377.833,286.567s-3.338-12.533-16.516-11.417-11.674,19.7,0,29.674C361.318,304.84,374.2,288.925,377.833,286.567Z" transform="translate(-257.267 -167.675)" fill="url(#ao)" style="isolation:isolate"/><path d="M377.833,286.567s-3.338-12.533-16.516-11.417-11.674,19.7,0,29.674C361.318,304.84,374.2,288.925,377.833,286.567Z" transform="translate(-257.267 -167.675)" fill="url(#ap)" style="isolation:isolate"/><path d="M386.151,296.267s-2.343-8.73-11.507-7.953-8.133,13.724,0,20.694C374.645,309,383.621,297.923,386.151,296.267Z" transform="translate(-267.119 -175.712)" fill="#68e1fd"/><path d="M386.151,296.267s-2.343-8.73-11.507-7.953-8.133,13.724,0,20.694C374.645,309,383.621,297.923,386.151,296.267Z" transform="translate(-267.119 -175.712)" fill="url(#aq)"/><path d="M268.281,250.444l-3.373,1.507-3.362,1.507c-19.659-11.713-37.264-11.51-46.51-10.195h0a41,41,0,0,0-6.786,1.472l9.8-3.9s5.665-2.362,20.866-1.48C258.2,240.461,268.281,250.444,268.281,250.444Z" transform="translate(-169.65 -145.777)" fill="#25233a"/><path d="M268.251,250.444l-3.373,1.507-8.2-5.65c-13.1-7.95-36.964-4.627-36.964-4.627l-4.728,1.589h0a40.993,40.993,0,0,0-6.786,1.472l9.8-3.9s5.665-2.362,20.866-1.48C258.17,240.461,268.251,250.444,268.251,250.444Z" transform="translate(-169.62 -145.777)" fill="#68e1fd"/><path d="M268.251,250.444l-3.373,1.507-8.2-5.65c-13.1-7.95-36.964-4.627-36.964-4.627l-4.728,1.589h0a40.993,40.993,0,0,0-6.786,1.472l9.8-3.9s5.665-2.362,20.866-1.48C258.17,240.461,268.251,250.444,268.251,250.444Z" transform="translate(-169.62 -145.777)" fill="url(#ar)"/><path d="M312.676,516.529l-6.411.644A10.288,10.288,0,0,1,295,506.9V480.658l25.184-4.568.781,31.009A9.218,9.218,0,0,1,312.676,516.529Z" transform="translate(-222.529 -290.201)" fill="#68e1fd"/><path d="M149,467.494l-6.407.64a10.288,10.288,0,0,1-11.276-10.281V406.83L156.5,427.055l.059,2.44h0l.707,28.565A9.226,9.226,0,0,1,149,467.494Z" transform="translate(-122.757 -247.984)" fill="#68e1fd"/><path d="M176.61,502.622s1.484-32.017,3.514-35.562,4.057-2.436,4.057-2.436h0l.707,28.565a9.226,9.226,0,0,1-8.278,9.433Z" transform="translate(-150.364 -283.112)" fill="url(#as)"/><path d="M340.27,518.022l.914-38.264,6.606-1.218.746,30.065A9.219,9.219,0,0,1,340.27,518.022Z" transform="translate(-250.123 -291.695)" fill="url(#at)"/><path d="M439.318,119.322l-.648,14.13s.66,7.719,7.153,8.5,27.546-2.882,27.546-2.882,1.429-24.848,0-30.541-1.406-13.494-7.77-13.623c-3.19-.066-11.534-1.773-15.926-1.171a10.335,10.335,0,0,0-8.879,9.179C440.361,107,439.83,112.56,439.318,119.322Z" transform="translate(-310.103 -57.061)" fill="#68e1fd"/><path d="M439.318,119.322l-.648,14.13s.66,7.719,7.153,8.5,27.546-2.882,27.546-2.882,1.429-24.848,0-30.541-1.406-13.494-7.77-13.623c-3.19-.066-11.534-1.773-15.926-1.171a10.335,10.335,0,0,0-8.879,9.179C440.361,107,439.83,112.56,439.318,119.322Z" transform="translate(-310.103 -57.061)" fill="url(#au)"/><path d="M444.717,104.812a5.257,5.257,0,0,1,8.98-.847c1.441,2.026,2.483,5.052,2.253,9.57-.414,8.137-6.4,16.008-10.671,20.655a11.94,11.94,0,0,1-9.632,3.838l-25.567-2.952,1.171-10.152,23.376.586Z" transform="translate(-292.676 -62.061)" fill="#68e1fd"/><path d="M444.717,104.812a5.257,5.257,0,0,1,8.98-.847c1.441,2.026,2.483,5.052,2.253,9.57-.414,8.137-6.4,16.008-10.671,20.655a11.94,11.94,0,0,1-9.632,3.838l-25.567-2.952,1.171-10.152,23.376.586Z" transform="translate(-292.676 -62.061)" fill="#68e1fd"/><path d="M444.717,104.812a5.257,5.257,0,0,1,8.98-.847c1.441,2.026,2.483,5.052,2.253,9.57-.414,8.137-6.4,16.008-10.671,20.655a11.94,11.94,0,0,1-9.632,3.838l-25.567-2.952,1.171-10.152,23.376.586Z" transform="translate(-292.676 -62.061)" fill="#68e1fd"/><path d="M444.717,104.812a5.257,5.257,0,0,1,8.98-.847c1.441,2.026,2.483,5.052,2.253,9.57-.414,8.137-6.4,16.008-10.671,20.655a11.94,11.94,0,0,1-9.632,3.838l-25.567-2.952,1.171-10.152,23.376.586Z" transform="translate(-292.676 -62.061)" fill="url(#av)"/><path d="M304.583,137.628c-1.078.519-2.229,1.246-2.483,2.421a12.953,12.953,0,0,0,2.8-.285l-2.448,2.526a.754.754,0,0,0-.277.476c0,.41.558.531.964.5a22.068,22.068,0,0,0,4.033-.7c.094.644-.894.9-1.113,1.515-.2.539.328,1.113.886,1.222a4.033,4.033,0,0,0,1.683-.226,21.536,21.536,0,0,1,5.63-.133,7.979,7.979,0,0,0,5.361-1.37,2.281,2.281,0,0,0,.757-1,3.272,3.272,0,0,0,.062-1.249c-.074-1.171.711-3.627.324-4.607-.367-.918-2.05-1.562-2.924-1.706C312.455,134.114,306.563,136.691,304.583,137.628Z" transform="translate(-226.857 -82.184)" fill="url(#aw)"/><ellipse cx="26.386" cy="19.843" rx="26.386" ry="19.843" transform="translate(66.239 83.303) rotate(-73.53)" fill="#68e1fd"/><ellipse cx="26.386" cy="19.843" rx="26.386" ry="19.843" transform="translate(66.239 83.303) rotate(-73.53)" fill="url(#ax)"/><ellipse cx="26.386" cy="19.882" rx="26.386" ry="19.882" transform="translate(62.332 81.472) rotate(-73.53)" fill="#68e1fd"/><ellipse cx="26.386" cy="19.882" rx="26.386" ry="19.882" transform="translate(62.332 81.472) rotate(-73.53)" fill="url(#ay)" style="isolation:isolate"/><ellipse cx="26.386" cy="19.882" rx="26.386" ry="19.882" transform="translate(62.332 81.472) rotate(-73.53)" fill="url(#az)" style="isolation:isolate"/><path d="M322.962,127.4c-3.561,11.831-12.932,19.437-20.928,16.992-.281-.086-.558-.184-.828-.289h0c-7.419-2.971-10.628-14.138-7.2-25.543,3.561-11.823,12.932-19.433,20.928-16.992a10.6,10.6,0,0,1,3.291,1.683h0C323.849,107.492,325.984,117.355,322.962,127.4Z" transform="translate(-221.086 -61.634)" fill="url(#ba)"/><path d="M326.809,129.575c-3.561,11.831-12.932,19.437-20.928,16.992-.281-.086-.558-.184-.828-.289h0c-5.619-4.24-7.758-14.1-4.736-24.149,3.565-11.827,12.932-19.437,20.928-16.992.281.086.558.184.828.289h0C327.7,109.666,329.831,119.529,326.809,129.575Z" transform="translate(-224.933 -63.808)" fill="#68e1fd"/><path d="M326.809,129.575c-3.561,11.831-12.932,19.437-20.928,16.992-.281-.086-.558-.184-.828-.289h0c-5.619-4.24-7.758-14.1-4.736-24.149,3.565-11.827,12.932-19.437,20.928-16.992.281.086.558.184.828.289h0C327.7,109.666,329.831,119.529,326.809,129.575Z" transform="translate(-224.933 -63.808)" fill="url(#bb)" style="isolation:isolate"/><path d="M370.053,164.587a4.04,4.04,0,0,0-2.483,2.421,12.954,12.954,0,0,0,2.8-.285l-2.436,2.507a.757.757,0,0,0-.273.48c0,.39.554.527.961.5a22.068,22.068,0,0,0,4.033-.695c.094.644-.894.9-1.113,1.515-.2.539.328,1.113.886,1.222a4.1,4.1,0,0,0,1.683-.226,21.536,21.536,0,0,1,5.63-.137,8,8,0,0,0,5.365-1.37,2.257,2.257,0,0,0,.754-1,3.268,3.268,0,0,0,.062-1.249c-.074-1.171.711-3.627.324-4.6-.363-.918-2.05-1.562-2.924-1.706C377.929,161.026,372.033,163.618,370.053,164.587Z" transform="translate(-266.764 -98.601)" fill="url(#bc)"/><path d="M288.3,124a37.66,37.66,0,0,1,.488,3.822c.121,1.878-1.862.64-1.862.64s1.171,1.5.933,2.343-1.4,0-1.4,0a4.511,4.511,0,0,1,.437,2.026c-.137.785-1.683.148-1.683.148a2.788,2.788,0,0,1,.679,1.9c-.168.9-1.355.691-1.355.691s-2.19-1.234-1.562-3-.324-4.514.715-5.037,1.695-2.733,2.8-2.964A8.828,8.828,0,0,0,288.3,124Z" transform="translate(-215.135 -75.584)" fill="url(#bd)"/><path d="M471.5,79.694a2.214,2.214,0,0,0,1.581.219,29.537,29.537,0,0,0,9.457-2.823c-1.058-2.889-.609-6.087-.863-9.16-.09-1.031-.39-2.222-1.312-2.643a2.735,2.735,0,0,0-2.167.207,10.429,10.429,0,0,0-5.685,6.618c-.39,1.288-.34,2.651-.691,3.944C471.538,77.086,470.269,78.8,471.5,79.694Z" transform="translate(-329.793 -39.704)" fill="url(#be)"/><path d="M453.35,24.041s-2.511,13.634.207,17.758,6.638,5.209,10.542,2.308a35.75,35.75,0,0,0,6.669-6.755,4.528,4.528,0,0,0,3.35-2.464c.879-2.12-1.613-3.3-2.952-2.413s2.464-5.884.808-6.673S462.33,13.347,453.35,24.041Z" transform="translate(-318.407 -11.918)" fill="url(#bf)"/><path d="M454.544.812a10.117,10.117,0,0,0-3.963.414c-3.3.886-6.524,2.468-9.929,2.233a2.4,2.4,0,0,0-1.921.351,1.46,1.46,0,0,0-.078,1.734,4.217,4.217,0,0,0,1.363,1.246,1.5,1.5,0,0,0-.277,2.245,3.06,3.06,0,0,0,2.374.859c-.757.172-.9,1.339-.351,1.894a2.267,2.267,0,0,0,2.19.39,17.569,17.569,0,0,0,2.5-1.07,16.172,16.172,0,0,1,7.493-.882c2.647.18,5.564.746,7.165,2.878a5.3,5.3,0,0,1,.824,4.619c-.5,1.695-1.874,3.221-1.628,4.974,1.191-.281,1.468-2.136,2.659-2.4a2.081,2.081,0,0,1,2.565.855c.246.344.914-.957,1.171-1.3a12.8,12.8,0,0,0,2.229-3.928A6.513,6.513,0,0,0,467.5,9.882a4.038,4.038,0,0,1-.832-1.066,6.251,6.251,0,0,1-.223-1.41c-.23-1.39-1.39-2.409-2.495-3.276Q461.182,1.952,458.269,0c-.426,1.054-.156,1.917-1.171,1.874C456.411,1.847,455.376.921,454.544.812Z" transform="translate(-309.942)" fill="#3f3d56"/><path d="M496.764,68.3a2.136,2.136,0,0,1-.668-2.108,3.479,3.479,0,0,1,1.257-1.905,7.228,7.228,0,0,1,1.792-1.058C499.115,63.741,496.581,68.161,496.764,68.3Z" transform="translate(-345.071 -38.542)" fill="#3f3d56"/><path d="M498.788,56.046a1.648,1.648,0,0,1,.3-.816,1.058,1.058,0,0,1,.363-.226,1.562,1.562,0,0,1,.707-.164.687.687,0,0,1,.593.39.89.89,0,0,1,.047.39,2.667,2.667,0,0,1-1.917,2.343.484.484,0,0,1-.3,0,.472.472,0,0,1-.246-.273,1.007,1.007,0,0,1-.023-.925C498.492,56.5,498.71,56.4,498.788,56.046Z" transform="translate(-346.396 -33.428)" fill="url(#bg)"/></g></svg>