<svg xmlns="http://www.w3.org/2000/svg" xmlns:xlink="http://www.w3.org/1999/xlink" width="53.198" height="56.59" viewBox="0 0 53.198 56.59"><defs><clipPath id="a"><rect width="53.198" height="56.59" fill="#5f6893" stroke="#f4f4f4" stroke-width="1"/></clipPath></defs><g transform="translate(0 0)"><g transform="translate(0 0)" clip-path="url(#a)"><path d="M40.449,23.348a42.722,42.722,0,0,0-6.092-12.974L29.106,3.78a.813.813,0,0,0-.695-.309,37.744,37.744,0,0,1-15.214,0,.771.771,0,0,0-.618.309l-5.33,6.8C2.384,16.759-1.245,28.915,1.38,37.774c1.313,4.428,4.789,9.681,13.748,9.681H26.4c1.234,0,7.6-.487,8.683-.692" transform="translate(0.736 5.111)" fill="#5f6893" stroke="#f4f4f4" stroke-miterlimit="10" stroke-width="1"/><path d="M18.341,8.123l3.441-6.529A.686.686,0,0,0,21.123.5H6.138a.691.691,0,0,0-.668,1.1L8.843,8.123" transform="translate(7.872 0.738)" fill="#5f6893" stroke="#f4f4f4" stroke-miterlimit="10" stroke-width="1"/><path d="M17.27,18.2c0-3.914,2.393-7.108,5.328-7.108s5.33,3.194,5.33,7.108v2.989H17.27ZM30.63,37.269c0,.927-.541,1.75-1.313,1.75H15.8c-.695,0-1.313-.719-1.313-1.75V22.23c0-.618.386-1.031.774-1.031h14.6c.462,0,.771.514.771,1.031Z" transform="translate(21.332 16.335)" fill="#5f6893" stroke="#f4f4f4" stroke-miterlimit="10" stroke-width="1"/><path d="M19.657,17.371c-1.691,0-3.169,1.11-3.169,2.561A2.592,2.592,0,0,0,18.6,22.32v1.194c0,.512.423.853,1.058.853s1.056-.341,1.056-.853V22.32a2.715,2.715,0,0,0,2.114-2.388C22.827,18.481,21.348,17.371,19.657,17.371Z" transform="translate(24.275 25.575)" fill="#5f6893" stroke="#f4f4f4" stroke-miterlimit="10" stroke-width="0.4"/><line y1="4.687" transform="translate(21.501 18.429)" fill="none" stroke="#f4f4f4" stroke-miterlimit="10" stroke-width="0.6"/><line y1="4.722" transform="translate(21.501 39.19)" fill="none" stroke="#f4f4f4" stroke-miterlimit="10" stroke-width="0.6"/><path d="M6.022,21.575c0,2.435,2.967,4.418,6.613,4.418s6.613-1.983,6.613-4.418c0-1.681-1.392-3.194-3.634-3.946l0,0c-1.481-.517-2.185-.719-2.93-.932-.66-.19-1.345-.386-2.648-.826l-.007,0c-1.842-.618-2.984-1.815-2.984-3.122,0-1.948,2.509-3.533,5.595-3.533s5.595,1.585,5.595,3.533" transform="translate(8.866 13.559)" fill="#5f6893" stroke="#f4f4f4" stroke-miterlimit="10" stroke-width="0.6"/></g></g></svg>