<svg xmlns="http://www.w3.org/2000/svg" width="29.194" height="25.751" viewBox="0 0 29.194 25.751"><g transform="translate(0.602 0)"><path d="M74.654,468.954A4.3,4.3,0,0,0,70.6,467.04l-5.169.112c-.31.007-.588.514-.659,1.016l-.653,21.881c.032.5.261.829.468.824l3.2-.07.3-8.185.022.333c.071-.5.349-1.009.659-1.016l1.551-.034c3-.064,5.143-2.114,5.51-7.63q-.016-.251-.032-.5h0A8.7,8.7,0,0,0,74.654,468.954Z" transform="translate(-47.236 -467.038)" fill="#5f6893"/><path d="M67.628,479.536l.98-6.533c3.92-1.045,4.246,1.524,3.92,2.939A7.038,7.038,0,0,1,67.628,479.536Z" transform="translate(-47.604 -467.639)" fill="none" stroke="#fff" stroke-width="1"/><path d="M61.672,491.279l-4.19,1-4.269-17.873-5.307,1.267-.089,3.336-2.186-5.444L45.256,472l17.039-4.07.374,1.567-.3,12.336-1.055-9.36-3.911.934Z" transform="translate(-45.256 -467.132)" fill="none" stroke="#5f6893" stroke-width="1"/></g></svg>