<svg xmlns="http://www.w3.org/2000/svg" xmlns:xlink="http://www.w3.org/1999/xlink" width="64" height="64" viewBox="0 0 64 64"><defs><clipPath id="a"><rect width="64" height="64" fill="#5f6893" stroke="#f4f4f4" stroke-width="1"/></clipPath></defs><g transform="translate(0 0)"><g transform="translate(0 0)" clip-path="url(#a)"><path d="M35.845,29.891h3.646v10.5a7.389,7.389,0,0,0,2.166,5.248h-1.14a1.037,1.037,0,0,0-1.026,1.05v6.3a1.037,1.037,0,0,0,1.026,1.05H61.039a1.039,1.039,0,0,0,1.026-1.05v-6.3a1.039,1.039,0,0,0-1.026-1.05H60.013V20.77a9.486,9.486,0,0,0-2.7-6.672l-3.454-3.536V1.55A1.039,1.039,0,0,0,52.83.5H1.526A1.037,1.037,0,0,0,.5,1.55V28.842a1.037,1.037,0,0,0,1.026,1.05L4.6,29.584M33.8,21.107a8.5,8.5,0,0,0,2.617-6.171A8.211,8.211,0,1,0,20,14.978a8.11,8.11,0,0,0,.111,1.352Zm7.823,24.535H60.088" transform="translate(0.796 0.827)" fill="#5f6893" stroke="#f4f4f4" stroke-width="1"/><path d="M35.845,29.891h3.646v10.5a7.389,7.389,0,0,0,2.166,5.248h-1.14a1.037,1.037,0,0,0-1.026,1.05v6.3a1.037,1.037,0,0,0,1.026,1.05H61.039a1.039,1.039,0,0,0,1.026-1.05v-6.3a1.039,1.039,0,0,0-1.026-1.05H60.013V20.77a9.486,9.486,0,0,0-2.7-6.672l-3.454-3.536V1.55A1.039,1.039,0,0,0,52.83.5H1.526A1.037,1.037,0,0,0,.5,1.55V28.842a1.037,1.037,0,0,0,1.026,1.05L4.6,29.584M33.8,21.107a8.5,8.5,0,0,0,2.617-6.171A8.211,8.211,0,1,0,20,14.978a8.11,8.11,0,0,0,.111,1.352Zm7.823,24.535H60.088" transform="translate(0.796 0.827)" fill="#5f6893" stroke="#f4f4f4" stroke-miterlimit="10" stroke-width="1"/><path d="M7.214,2.084H3.11a1.037,1.037,0,0,0-1.026,1.05v4.2" transform="translate(3.316 3.441)" fill="#5f6893" stroke="#f4f4f4" stroke-width="1"/><path d="M7.214,2.084H3.11a1.037,1.037,0,0,0-1.026,1.05v4.2" transform="translate(3.316 3.441)" fill="#5f6893" stroke="#f4f4f4" stroke-miterlimit="10" stroke-width="1"/><path d="M22.658,7.332v-4.2a1.037,1.037,0,0,0-1.026-1.05h-4.1" transform="translate(27.889 3.441)" fill="#5f6893" stroke="#f4f4f4" stroke-width="1"/><path d="M22.658,7.332v-4.2a1.037,1.037,0,0,0-1.026-1.05h-4.1" transform="translate(27.889 3.441)" fill="#5f6893" stroke="#f4f4f4" stroke-miterlimit="10" stroke-width="1"/><path d="M32.866,26.41a13.367,13.367,0,0,1-3.918,9.511L17.475,48,6,35.921l-.013-.011a13.352,13.352,0,0,1-3.9-9.5V14.54l15.391-5.9,15.391,5.9Z" transform="translate(3.316 14.259)" fill="#5f6893" stroke="#f4f4f4" stroke-width="1"/><path d="M32.866,26.41a13.367,13.367,0,0,1-3.918,9.511L17.475,48,6,35.921l-.013-.011a13.352,13.352,0,0,1-3.9-9.5V14.54l15.391-5.9,15.391,5.9Z" transform="translate(3.316 14.259)" fill="#5f6893" stroke="#f4f4f4" stroke-miterlimit="10" stroke-width="1"/><path d="M18.815,12.952a.268.268,0,0,0-.389,0L10.4,21.167,6.2,16.878a.269.269,0,0,0-.386,0,.283.283,0,0,0,0,.4L10.2,21.76a.269.269,0,0,0,.194.082.265.265,0,0,0,.194-.082l8.224-8.413a.285.285,0,0,0,0-.395" transform="translate(9.127 21.244)" fill="#5f6893" stroke="#f4f4f4" stroke-width="1"/><path d="M18.815,12.952a.268.268,0,0,0-.389,0L10.4,21.167,6.2,16.878a.269.269,0,0,0-.386,0,.283.283,0,0,0,0,.4L10.2,21.76a.269.269,0,0,0,.194.082.265.265,0,0,0,.194-.082l8.224-8.413A.285.285,0,0,0,18.815,12.952Z" transform="translate(9.127 21.244)" fill="#5f6893" stroke="#f4f4f4" stroke-miterlimit="10" stroke-width="1"/><path d="M15.647,23.625h6.581l-.1-.615-6.05-6.189a2.133,2.133,0,0,1,.016-2.971,2.019,2.019,0,0,1,2.9.013l9.183,8.861a1.011,1.011,0,0,0,1.451-.042,1.071,1.071,0,0,0,.28-.721l.1-17.665" transform="translate(24.639 7.093)" fill="#5f6893" stroke="#f4f4f4" stroke-width="1"/><path d="M15.647,23.625h6.581l-.1-.615-6.05-6.189a2.133,2.133,0,0,1,.016-2.971,2.019,2.019,0,0,1,2.9.013l9.183,8.861a1.011,1.011,0,0,0,1.451-.042,1.071,1.071,0,0,0,.28-.721l.1-17.665" transform="translate(24.639 7.093)" fill="#5f6893" stroke="#f4f4f4" stroke-miterlimit="10" stroke-width="1"/></g></g></svg>