<svg xmlns="http://www.w3.org/2000/svg" width="245.988" height="214.878" viewBox="0 0 245.988 214.878"><g transform="translate(-114.519 -69.765)"><path d="M276.986,335.974a113.842,113.842,0,0,0,23.5-9.774c8.788-4.936,47.827-28.424,52.9-69.076a77.542,77.542,0,0,0-3.235-33.112,63.671,63.671,0,0,0-13.039-22.978c-10.056-11.193-21.531-15.531-28.259-17.984a81.538,81.538,0,0,0-31.684-4.707,75.707,75.707,0,0,0-29.114,5.995c-7.987,3.488-12.952,7.467-20.268,13.413-11.591,9.429-13.117,13.355-33.394,32.826-5.567,5.344-10.144,9.556-17.129,13.7-4.843,2.876-8.759,4.484-15.983,7.418-17.756,7.214-22.812,8.675-28.622,12.736-11.3,7.9-10.568,16.524-11.054,18.38a36.5,36.5,0,0,0-.86,14.56c1.482,9.75,6.733,16.124,9.993,19.981A54.944,54.944,0,0,0,146.723,330.2a102.132,102.132,0,0,0,13.1,5.776Z" transform="translate(-2.799 -51.816)" fill="#d5efc8"/><path d="M418.059,325.669l-.238-.424c11.611-6.523,49.891-30.977,54.982-71.771a80.76,80.76,0,0,0-3.359-34.381,66.329,66.329,0,0,0-13.529-23.851c-10.649-11.849-22.806-16.283-29.338-18.665a84.586,84.586,0,0,0-32.912-4.891,78.154,78.154,0,0,0-30.238,6.224l-.195-.445a79.7,79.7,0,0,1,30.416-6.264,85.017,85.017,0,0,1,33.094,4.92c6.571,2.4,18.8,6.858,29.533,18.8A66.791,66.791,0,0,1,469.9,218.937a81.283,81.283,0,0,1,3.381,34.6C468.166,294.554,429.72,319.118,418.059,325.669Z" transform="translate(-118.809 -48.403)" fill="#d5efc8"/><path d="M196.112,158l3.8,20,7.752,2.885,7.751-2.885,3.8-20Z" transform="translate(-38.976 -42.151)" fill="#ffba55"/><path d="M198.3,107.713a3.752,3.752,0,0,0-4.063-.739,3,3,0,0,0-1.559,1.806,2.6,2.6,0,0,0,.451,2.339c.395.411,1.133.8,1.642.533a.817.817,0,0,0,.451-.657c0-.23-.166-.278-.246-.575-.09-.335-.023-.8.205-.9s.668.192.862.533a2.006,2.006,0,0,1-.506,2.175,3.351,3.351,0,0,1-2.955.547,5.845,5.845,0,0,1-3.393-2.079,5.386,5.386,0,0,1-1.313-2.408,6.132,6.132,0,0,1,.109-2.627c.347-1.663.777-1.909,1.532-4.049A8.22,8.22,0,0,0,190.285,98a4.64,4.64,0,0,0-.985-2.736,4.477,4.477,0,0,0-2.955-1.532,4.828,4.828,0,0,0-3.83,1.532l-1.368-1.551s1.642-.611-.739-4.715l.451-.349a18.885,18.885,0,0,0-37.77,0l-1.913,51.266h-.658a1.477,1.477,0,1,0,0,2.955h.548l-.23,6.165h-.318a1.477,1.477,0,1,0,0,2.955h.208l-4.793,128.446h-.285a1.86,1.86,0,0,0,0,3.721h20.52a1.86,1.86,0,1,0,0-3.721h-.449l-4.793-128.446h.208a1.477,1.477,0,1,0,0-2.955h-.318l-.23-6.165h.548a1.477,1.477,0,0,0,0-2.955h-.659L148.561,88.65a13.413,13.413,0,0,1,26.826,0l.452.349c-2.38,4.1-.739,4.715-.739,4.715l-1.368,1.551a4.828,4.828,0,0,0-3.83-1.532,4.477,4.477,0,0,0-2.955,1.532A4.64,4.64,0,0,0,165.962,98a8.22,8.22,0,0,0,.766,3.611c.755,2.14,1.186,2.387,1.532,4.049a6.132,6.132,0,0,1,.109,2.627,5.386,5.386,0,0,1-1.313,2.408,5.845,5.845,0,0,1-3.393,2.079,3.351,3.351,0,0,1-2.955-.547,2.006,2.006,0,0,1-.506-2.175c.194-.341.619-.643.862-.533s.3.568.205.9c-.08.3-.244.344-.246.575a.817.817,0,0,0,.451.657c.509.263,1.247-.123,1.642-.533a2.6,2.6,0,0,0,.451-2.339,3,3,0,0,0-1.559-1.806,3.752,3.752,0,0,0-4.063.739,4.015,4.015,0,0,0-1.231,2.668c-.082,2.311,2.11,3.881,2.709,4.309a10.254,10.254,0,0,0,6.156,1.6c4.59.068,8.664.095,12.544.084,3.88.01,7.954-.016,12.545-.084a10.254,10.254,0,0,0,6.156-1.6c.6-.429,2.791-2,2.709-4.309A4.015,4.015,0,0,0,198.3,107.713Z" transform="translate(-9.204 0)" fill="#6b3832"/><path d="M196.112,158l3.8,20,7.752,2.885,7.751-2.885,3.8-20Zm1.1.912h9.994V179.75l-6.5-2.417Zm17.4,18.418-6.5,2.417V158.916h9.993Z" transform="translate(-38.976 -42.151)" fill="#6b3832"/><circle cx="1.929" cy="1.929" r="1.929" transform="translate(166.749 137.535)" fill="#6b3832"/><path d="M525.64,459.224l.38-.229c-.107-.178-10.708-17.844-12.358-22.244l-.416.156C514.912,441.346,525.2,458.5,525.64,459.224Z" transform="translate(-190.469 -175.306)" fill="#8b9d36"/><path d="M518.972,419.015a19.065,19.065,0,0,0-1.025,3.434,32.108,32.108,0,0,0-.524,3.482,31.476,31.476,0,0,0-.144,3.518,18.8,18.8,0,0,0,.362,3.566,18.816,18.816,0,0,0,1.027-3.434,31.491,31.491,0,0,0,.521-3.482,32.1,32.1,0,0,0,.142-3.518A19.035,19.035,0,0,0,518.972,419.015Z" transform="translate(-192.393 -166.834)" fill="#8b9d36"/><path d="M525.551,429.257a18.175,18.175,0,0,0-1.33,3.238,30.518,30.518,0,0,0-.835,3.333,30.062,30.062,0,0,0-.461,3.4,17.977,17.977,0,0,0,.038,3.5,17.964,17.964,0,0,0,1.332-3.238,30.057,30.057,0,0,0,.833-3.334,30.556,30.556,0,0,0,.459-3.405A18.2,18.2,0,0,0,525.551,429.257Z" transform="translate(-195.059 -171.726)" fill="#8b9d36"/><path d="M530.287,441.18a15.424,15.424,0,0,0-1.132,3.01,25.613,25.613,0,0,0-.633,3.081,25.174,25.174,0,0,0-.256,3.135,15.219,15.219,0,0,0,.247,3.207,15.225,15.225,0,0,0,1.134-3.009,25.122,25.122,0,0,0,.631-3.081,25.6,25.6,0,0,0,.254-3.135,15.4,15.4,0,0,0-.244-3.206Z" transform="translate(-197.64 -177.422)" fill="#8b9d36"/><path d="M535.432,453.081a11.8,11.8,0,0,0-1.148,2.561,19.244,19.244,0,0,0-.652,2.647,18.88,18.88,0,0,0-.276,2.712,11.669,11.669,0,0,0,.224,2.8,11.665,11.665,0,0,0,1.15-2.561,18.917,18.917,0,0,0,.649-2.647,19.28,19.28,0,0,0,.274-2.712A11.8,11.8,0,0,0,535.432,453.081Z" transform="translate(-200.07 -183.107)" fill="#8b9d36"/><path d="M539.461,460.519a10.632,10.632,0,0,0-1.211,2.249,18.318,18.318,0,0,0-.762,2.333,20.932,20.932,0,0,0-.46,2.392c-.05.406-.1.81-.126,1.222a9.065,9.065,0,0,1-.134,1.251,2.451,2.451,0,0,0,.295-.186l.239-.24a4.408,4.408,0,0,0,.418-.523,8.385,8.385,0,0,0,.643-1.119,12.467,12.467,0,0,0,.844-2.36,13.962,13.962,0,0,0,.4-2.457A9.249,9.249,0,0,0,539.461,460.519Z" transform="translate(-201.704 -186.66)" fill="#8b9d36"/><path d="M504.762,436.433a15.277,15.277,0,0,0-2.7-2.34,25,25,0,0,0-2.983-1.779,24.564,24.564,0,0,0-3.2-1.354,15.1,15.1,0,0,0-3.485-.787,15.1,15.1,0,0,0,2.7,2.343,24.58,24.58,0,0,0,2.984,1.776,25.007,25.007,0,0,0,3.2,1.351,15.281,15.281,0,0,0,3.483.79Z" transform="translate(-180.509 -172.164)" fill="#8b9d36"/><path d="M507.851,446.642a18.822,18.822,0,0,0-3.328-2.179,31.341,31.341,0,0,0-3.55-1.59,30.777,30.777,0,0,0-3.717-1.144,18.614,18.614,0,0,0-3.94-.549,18.614,18.614,0,0,0,3.327,2.182,30.8,30.8,0,0,0,3.551,1.587,31.342,31.342,0,0,0,3.718,1.141A18.823,18.823,0,0,0,507.851,446.642Z" transform="translate(-180.947 -177.421)" fill="#8b9d36"/><path d="M514.987,457.439a16.048,16.048,0,0,0-3-2.1,26.389,26.389,0,0,0-3.229-1.517,25.923,25.923,0,0,0-3.4-1.074,15.864,15.864,0,0,0-3.633-.482,15.875,15.875,0,0,0,3,2.106,25.921,25.921,0,0,0,3.23,1.515,26.38,26.38,0,0,0,3.4,1.071,16.049,16.049,0,0,0,3.632.485Z" transform="translate(-184.963 -182.715)" fill="#8b9d36"/><path d="M521.25,466.9a12.038,12.038,0,0,0-2.635-1.736,19.213,19.213,0,0,0-2.823-1.135,18.86,18.86,0,0,0-2.966-.681,11.9,11.9,0,0,0-3.155-.074,11.9,11.9,0,0,0,2.634,1.739,18.861,18.861,0,0,0,2.824,1.132,19.212,19.212,0,0,0,2.966.678A12.041,12.041,0,0,0,521.25,466.9Z" transform="translate(-188.76 -187.943)" fill="#8b9d36"/><path d="M523.708,472.426a15.829,15.829,0,0,0-2.9-2.2,25.975,25.975,0,0,0-3.146-1.623,25.526,25.526,0,0,0-3.336-1.186,15.651,15.651,0,0,0-3.588-.6,15.646,15.646,0,0,0,2.9,2.2,25.521,25.521,0,0,0,3.148,1.621,25.98,25.98,0,0,0,3.337,1.183A15.824,15.824,0,0,0,523.708,472.426Z" transform="translate(-189.272 -189.666)" fill="#8b9d36"/><path d="M509.864,426.732a11.139,11.139,0,0,0-.086-3.557,16.764,16.764,0,0,0-.906-3.236,16.483,16.483,0,0,0-1.528-2.993,11.028,11.028,0,0,0-2.356-2.669,11.023,11.023,0,0,0,.082,3.559,16.5,16.5,0,0,0,.91,3.235,16.759,16.759,0,0,0,1.532,2.991A11.141,11.141,0,0,0,509.864,426.732Z" transform="translate(-186.472 -164.57)" fill="#8b9d36"/><path d="M533.5,444.709l.443-.008c-.019-1.212-.546-29.787-6.262-38.837l-.375.237C532.955,415.047,533.494,444.413,533.5,444.709Z" transform="translate(-197.184 -160.551)" fill="#50661a"/><path d="M531.019,399.539a20.325,20.325,0,0,1-.133-4,35.936,35.936,0,0,1,.432-3.88c.207-1.28.489-2.546.82-3.8s.749-2.481,1.2-3.777a5.536,5.536,0,0,1,.286.994,8.856,8.856,0,0,1,.156,1.011,17.1,17.1,0,0,1,.09,2.006,25.756,25.756,0,0,1-.361,3.931,28.594,28.594,0,0,1-.91,3.828A18,18,0,0,1,531.019,399.539Z" transform="translate(-198.874 -150.145)" fill="#50661a"/><path d="M517.678,379.035a14.374,14.374,0,0,1,2.5,3.215,22.59,22.59,0,0,1,1.677,3.524,22.2,22.2,0,0,1,1.053,3.758,14.217,14.217,0,0,1,.22,4.069,14.217,14.217,0,0,1-2.506-3.213,22.2,22.2,0,0,1-1.673-3.525A22.591,22.591,0,0,1,517.9,383.1a14.365,14.365,0,0,1-.224-4.068Z" transform="translate(-192.559 -147.735)" fill="#50661a"/><path d="M508.709,392.978a33.1,33.1,0,0,1,3.3,3.036c1.018,1.056,1.99,2.135,2.941,3.22l2.825,3.242c.474.531.953,1.054,1.459,1.549a6.664,6.664,0,0,0,1.724,1.3,2.991,2.991,0,0,1-1.18-.03,5.524,5.524,0,0,1-1.137-.357,10.977,10.977,0,0,1-2.024-1.161,19.867,19.867,0,0,1-3.335-3.085,26.326,26.326,0,0,1-2.65-3.62,18.843,18.843,0,0,1-1.918-4.1Z" transform="translate(-188.301 -154.396)" fill="#50661a"/><path d="M508.709,406.921a27.267,27.267,0,0,1,4.1,2.519,46.4,46.4,0,0,1,3.675,2.987,45.622,45.622,0,0,1,3.357,3.341,26.952,26.952,0,0,1,2.931,3.813,26.952,26.952,0,0,1-4.1-2.517A45.6,45.6,0,0,1,515,414.075a46.4,46.4,0,0,1-3.354-3.343A27.267,27.267,0,0,1,508.709,406.921Z" transform="translate(-188.301 -161.056)" fill="#50661a"/><path d="M509.627,417.861a26.96,26.96,0,0,1,4.138,2.393,45.881,45.881,0,0,1,3.73,2.872,45.1,45.1,0,0,1,3.421,3.234,26.668,26.668,0,0,1,3.008,3.717,26.651,26.651,0,0,1-4.141-2.391,45.051,45.051,0,0,1-3.728-2.874,45.881,45.881,0,0,1-3.418-3.236A26.963,26.963,0,0,1,509.627,417.861Z" transform="translate(-188.739 -166.282)" fill="#50661a"/><path d="M510.238,429.555a25.069,25.069,0,0,1,4.145,2.011,42.468,42.468,0,0,1,3.769,2.515,41.773,41.773,0,0,1,3.484,2.9,24.768,24.768,0,0,1,3.1,3.406,24.8,24.8,0,0,1-4.147-2.009,41.753,41.753,0,0,1-3.767-2.518,42.5,42.5,0,0,1-3.482-2.9A25.071,25.071,0,0,1,510.238,429.555Z" transform="translate(-189.031 -171.868)" fill="#50661a"/><path d="M509.627,438.039a27.892,27.892,0,0,1,4.337,2.2,47.507,47.507,0,0,1,3.957,2.7,46.7,46.7,0,0,1,3.669,3.083,27.567,27.567,0,0,1,3.284,3.589,27.569,27.569,0,0,1-4.339-2.2,46.686,46.686,0,0,1-3.955-2.706,47.519,47.519,0,0,1-3.667-3.085,27.894,27.894,0,0,1-3.286-3.586Z" transform="translate(-188.739 -175.921)" fill="#50661a"/><path d="M507.487,445.987a36.368,36.368,0,0,1,4.534,2.516c1.439.921,2.832,1.9,4.19,2.912s2.686,2.065,3.986,3.153,2.555,2.2,3.915,3.317a10.962,10.962,0,0,1-2.539-.741,24.838,24.838,0,0,1-2.357-1.135,38.708,38.708,0,0,1-4.332-2.819,44.673,44.673,0,0,1-3.935-3.321,28.285,28.285,0,0,1-3.461-3.883Z" transform="translate(-187.717 -179.718)" fill="#50661a"/><path d="M504.888,454.242a37.408,37.408,0,0,1,4.923,2.34c1.572.876,3.1,1.816,4.589,2.806s2.946,2.03,4.365,3.122q1.064.821,2.107,1.671a18.8,18.8,0,0,0,2.139,1.638,4.133,4.133,0,0,1-1.383-.237c-.446-.132-.878-.293-1.306-.46-.854-.339-1.678-.726-2.487-1.137a47.206,47.206,0,0,1-4.663-2.751,53.307,53.307,0,0,1-4.34-3.217A32.988,32.988,0,0,1,504.888,454.242Z" transform="translate(-186.476 -183.661)" fill="#50661a"/><path d="M533.815,408.863a22.064,22.064,0,0,1,.636-4.27,37.084,37.084,0,0,1,1.227-4.053,36.512,36.512,0,0,1,1.674-3.89,21.837,21.837,0,0,1,2.271-3.672,21.83,21.83,0,0,1-.633,4.271,36.474,36.474,0,0,1-1.23,4.052,37.1,37.1,0,0,1-1.677,3.889,22.066,22.066,0,0,1-2.268,3.673Z" transform="translate(-200.294 -154.396)" fill="#50661a"/><path d="M535.627,419.09a22.548,22.548,0,0,1,1.225-4.19,37.986,37.986,0,0,1,1.782-3.9,37.35,37.35,0,0,1,2.2-3.674,22.306,22.306,0,0,1,2.766-3.378,22.31,22.31,0,0,1-1.223,4.191,37.374,37.374,0,0,1-1.785,3.9,38.023,38.023,0,0,1-2.206,3.673A22.581,22.581,0,0,1,535.627,419.09Z" transform="translate(-201.159 -159.638)" fill="#50661a"/><path d="M537,428.558a24.7,24.7,0,0,1,1.794-4.206,41.844,41.844,0,0,1,2.315-3.854,41.119,41.119,0,0,1,2.71-3.587,24.42,24.42,0,0,1,3.236-3.232,24.422,24.422,0,0,1-1.791,4.208,41.066,41.066,0,0,1-2.318,3.852,41.833,41.833,0,0,1-2.712,3.586A24.7,24.7,0,0,1,537,428.558Z" transform="translate(-201.814 -164.285)" fill="#50661a"/><path d="M538,437.846a31.851,31.851,0,0,1,2.568-4.514q1.432-2.137,3.055-4.116t3.424-3.815a31.362,31.362,0,0,1,3.916-3.413A31.345,31.345,0,0,1,548.4,426.5q-1.432,2.137-3.057,4.114t-3.426,3.813A31.8,31.8,0,0,1,538,437.846Z" transform="translate(-202.294 -168.254)" fill="#50661a"/><path d="M538.819,449.642a32.175,32.175,0,0,1,3.041-4.243q1.655-1.987,3.484-3.8t3.82-3.459a31.657,31.657,0,0,1,4.267-3.008,31.692,31.692,0,0,1-3.039,4.246q-1.655,1.986-3.486,3.795t-3.822,3.457a32.156,32.156,0,0,1-4.266,3.01Z" transform="translate(-202.684 -174.534)" fill="#50661a"/><path d="M539.315,459.093a28.027,28.027,0,0,1,3.3-3.587,47.729,47.729,0,0,1,3.683-3.085,46.866,46.866,0,0,1,3.971-2.705,27.7,27.7,0,0,1,4.354-2.2,27.711,27.711,0,0,1-3.3,3.59,46.938,46.938,0,0,1-3.685,3.083,47.8,47.8,0,0,1-3.972,2.7A28.04,28.04,0,0,1,539.315,459.093Z" transform="translate(-202.921 -180.448)" fill="#50661a"/><path d="M539.587,466.355a29.674,29.674,0,0,1,3.86-3.209,49.417,49.417,0,0,1,4.172-2.663q2.144-1.23,4.409-2.25a29.323,29.323,0,0,1,4.724-1.7,29.329,29.329,0,0,1-3.859,3.212,48.929,48.929,0,0,1-4.174,2.661q-2.147,1.226-4.41,2.247a29.682,29.682,0,0,1-4.723,1.7Z" transform="translate(-203.051 -184.756)" fill="#50661a"/><path d="M539.376,472.47a32.058,32.058,0,0,1,4.516-2.6c1.549-.748,3.129-1.414,4.735-2.011s3.239-1.119,4.9-1.565a31.6,31.6,0,0,1,5.121-.969,31.569,31.569,0,0,1-4.515,2.6q-2.325,1.122-4.736,2.008c-1.606.594-3.239,1.119-4.9,1.562A32.046,32.046,0,0,1,539.376,472.47Z" transform="translate(-202.95 -188.955)" fill="#50661a"/><path d="M540.514,458.159c.437-.728,10.728-17.878,12.393-22.318l-.416-.156c-1.65,4.4-12.25,22.067-12.358,22.244Z" transform="translate(-203.312 -174.797)" fill="#5e7c24"/><path d="M557.023,418.085a19.062,19.062,0,0,1,1.025,3.434,32.108,32.108,0,0,1,.524,3.482,31.461,31.461,0,0,1,.144,3.518,18.8,18.8,0,0,1-.362,3.566,18.81,18.81,0,0,1-1.027-3.434,31.535,31.535,0,0,1-.521-3.482,32.12,32.12,0,0,1-.142-3.518A19.035,19.035,0,0,1,557.023,418.085Z" transform="translate(-211.207 -166.389)" fill="#5e7c24"/><path d="M549.77,428.327a18.173,18.173,0,0,1,1.33,3.238,30.5,30.5,0,0,1,.835,3.333,30.065,30.065,0,0,1,.461,3.4,17.978,17.978,0,0,1-.038,3.5,17.966,17.966,0,0,1-1.332-3.238,30.058,30.058,0,0,1-.833-3.334,30.584,30.584,0,0,1-.459-3.405A18.191,18.191,0,0,1,549.77,428.327Z" transform="translate(-207.866 -171.282)" fill="#5e7c24"/><path d="M545.508,440.25a15.421,15.421,0,0,1,1.132,3.01,25.617,25.617,0,0,1,.633,3.081,25.186,25.186,0,0,1,.256,3.135,15.224,15.224,0,0,1-.247,3.207,15.225,15.225,0,0,1-1.134-3.009,25.133,25.133,0,0,1-.631-3.081,25.6,25.6,0,0,1-.254-3.135A15.4,15.4,0,0,1,545.508,440.25Z" transform="translate(-205.76 -176.977)" fill="#5e7c24"/><path d="M540.328,452.151a11.811,11.811,0,0,1,1.148,2.561,19.25,19.25,0,0,1,.651,2.647,18.909,18.909,0,0,1,.276,2.712,11.675,11.675,0,0,1-.225,2.8,11.659,11.659,0,0,1-1.15-2.561,18.935,18.935,0,0,1-.649-2.647,19.27,19.27,0,0,1-.274-2.712A11.811,11.811,0,0,1,540.328,452.151Z" transform="translate(-203.295 -182.662)" fill="#5e7c24"/><path d="M535.795,459.589a10.636,10.636,0,0,1,1.212,2.249,18.344,18.344,0,0,1,.762,2.333,20.932,20.932,0,0,1,.46,2.392c.05.406.1.81.126,1.221a9.094,9.094,0,0,0,.134,1.251,2.47,2.47,0,0,1-.294-.186l-.239-.24a4.421,4.421,0,0,1-.418-.523,8.373,8.373,0,0,1-.643-1.119,12.463,12.463,0,0,1-.844-2.36,13.952,13.952,0,0,1-.4-2.457,9.249,9.249,0,0,1,.143-2.562Z" transform="translate(-201.156 -186.215)" fill="#5e7c24"/><path d="M561.809,435.5a15.279,15.279,0,0,1,2.7-2.34,25.01,25.01,0,0,1,2.983-1.779,24.564,24.564,0,0,1,3.2-1.354,15.105,15.105,0,0,1,3.485-.787,15.093,15.093,0,0,1-2.7,2.343,24.587,24.587,0,0,1-2.984,1.776,25,25,0,0,1-3.2,1.351A15.284,15.284,0,0,1,561.809,435.5Z" transform="translate(-213.666 -171.72)" fill="#5e7c24"/><path d="M556.734,445.712a18.819,18.819,0,0,1,3.329-2.179,31.333,31.333,0,0,1,3.55-1.59,30.792,30.792,0,0,1,3.717-1.144,18.607,18.607,0,0,1,3.94-.549,18.614,18.614,0,0,1-3.327,2.182,30.791,30.791,0,0,1-3.551,1.587,31.331,31.331,0,0,1-3.718,1.141A18.823,18.823,0,0,1,556.734,445.712Z" transform="translate(-211.242 -176.977)" fill="#5e7c24"/><path d="M550.76,456.509a16.05,16.05,0,0,1,3-2.1,26.381,26.381,0,0,1,3.229-1.517,25.908,25.908,0,0,1,3.4-1.074,15.866,15.866,0,0,1,3.633-.482,15.875,15.875,0,0,1-3,2.106,25.908,25.908,0,0,1-3.23,1.515,26.382,26.382,0,0,1-3.4,1.071A16.048,16.048,0,0,1,550.76,456.509Z" transform="translate(-208.388 -182.271)" fill="#5e7c24"/><path d="M546.039,465.972a12.033,12.033,0,0,1,2.635-1.736A19.22,19.22,0,0,1,551.5,463.1a18.871,18.871,0,0,1,2.966-.681,11.9,11.9,0,0,1,3.155-.074,11.906,11.906,0,0,1-2.634,1.739,18.866,18.866,0,0,1-2.824,1.132,19.192,19.192,0,0,1-2.966.678,12.041,12.041,0,0,1-3.154.077Z" transform="translate(-206.133 -187.499)" fill="#5e7c24"/><path d="M542.312,471.5a15.829,15.829,0,0,1,2.9-2.2,25.966,25.966,0,0,1,3.146-1.623,25.527,25.527,0,0,1,3.336-1.186,15.651,15.651,0,0,1,3.588-.6,15.642,15.642,0,0,1-2.9,2.2,25.515,25.515,0,0,1-3.148,1.621,25.968,25.968,0,0,1-3.337,1.184,15.826,15.826,0,0,1-3.587.606Z" transform="translate(-204.353 -189.222)" fill="#5e7c24"/><path d="M563.364,425.8a11.139,11.139,0,0,1,.086-3.557,16.763,16.763,0,0,1,.906-3.236,16.481,16.481,0,0,1,1.528-2.993,11.028,11.028,0,0,1,2.356-2.669,11.019,11.019,0,0,1-.082,3.559,16.5,16.5,0,0,1-.91,3.235,16.765,16.765,0,0,1-1.532,2.991A11.143,11.143,0,0,1,563.364,425.8Z" transform="translate(-214.36 -164.126)" fill="#5e7c24"/><path d="M162.678,459.224,162.3,459c.107-.178,10.708-17.844,12.358-22.244l.416.156C173.406,441.346,163.115,458.5,162.678,459.224Z" transform="translate(-22.823 -175.306)" fill="#8b9d36"/><path d="M179.145,419.015a19.057,19.057,0,0,1,1.025,3.434,32.108,32.108,0,0,1,.524,3.482,31.468,31.468,0,0,1,.144,3.518,18.8,18.8,0,0,1-.362,3.566,18.816,18.816,0,0,1-1.027-3.434,31.514,31.514,0,0,1-.521-3.482,32.1,32.1,0,0,1-.142-3.518A19.038,19.038,0,0,1,179.145,419.015Z" transform="translate(-30.698 -166.834)" fill="#8b9d36"/><path d="M171.892,429.257a18.176,18.176,0,0,1,1.33,3.238,30.517,30.517,0,0,1,.835,3.333,30.058,30.058,0,0,1,.461,3.4,17.972,17.972,0,0,1-.038,3.5,17.959,17.959,0,0,1-1.332-3.238,30.057,30.057,0,0,1-.833-3.333,30.578,30.578,0,0,1-.459-3.405,18.193,18.193,0,0,1,.036-3.5Z" transform="translate(-27.357 -171.726)" fill="#8b9d36"/><path d="M167.63,441.18a15.422,15.422,0,0,1,1.132,3.01,25.611,25.611,0,0,1,.633,3.081,25.192,25.192,0,0,1,.256,3.135,15.228,15.228,0,0,1-.247,3.207,15.227,15.227,0,0,1-1.134-3.009,25.15,25.15,0,0,1-.631-3.081,25.623,25.623,0,0,1-.254-3.135,15.407,15.407,0,0,1,.245-3.206Z" transform="translate(-25.251 -177.422)" fill="#8b9d36"/><path d="M162.45,453.081a11.8,11.8,0,0,1,1.148,2.561,19.235,19.235,0,0,1,.651,2.647,18.886,18.886,0,0,1,.276,2.712,11.67,11.67,0,0,1-.225,2.8,11.66,11.66,0,0,1-1.15-2.561,18.917,18.917,0,0,1-.649-2.647,19.273,19.273,0,0,1-.274-2.712A11.806,11.806,0,0,1,162.45,453.081Z" transform="translate(-22.785 -183.107)" fill="#8b9d36"/><path d="M157.916,460.519a10.63,10.63,0,0,1,1.212,2.249,18.333,18.333,0,0,1,.762,2.333,20.943,20.943,0,0,1,.46,2.393c.05.406.1.81.126,1.221a9.091,9.091,0,0,0,.134,1.251,2.445,2.445,0,0,1-.295-.186l-.239-.24a4.419,4.419,0,0,1-.418-.523,8.374,8.374,0,0,1-.643-1.119,12.461,12.461,0,0,1-.844-2.36,13.97,13.97,0,0,1-.4-2.457A9.249,9.249,0,0,1,157.916,460.519Z" transform="translate(-20.647 -186.66)" fill="#8b9d36"/><path d="M183.93,436.433a15.281,15.281,0,0,1,2.7-2.34,25,25,0,0,1,2.983-1.779,24.569,24.569,0,0,1,3.2-1.354,15.112,15.112,0,0,1,3.485-.787,15.1,15.1,0,0,1-2.7,2.343,24.577,24.577,0,0,1-2.984,1.776,25.009,25.009,0,0,1-3.2,1.351A15.282,15.282,0,0,1,183.93,436.433Z" transform="translate(-33.157 -172.164)" fill="#8b9d36"/><path d="M178.855,446.642a18.82,18.82,0,0,1,3.328-2.179,31.331,31.331,0,0,1,3.55-1.59,30.777,30.777,0,0,1,3.717-1.144,18.61,18.61,0,0,1,3.94-.549,18.609,18.609,0,0,1-3.327,2.182,30.792,30.792,0,0,1-3.551,1.587,31.334,31.334,0,0,1-3.718,1.141A18.822,18.822,0,0,1,178.855,446.642Z" transform="translate(-30.733 -177.421)" fill="#8b9d36"/><path d="M172.881,457.439a16.054,16.054,0,0,1,3-2.1,26.388,26.388,0,0,1,3.229-1.517,25.915,25.915,0,0,1,3.4-1.074,15.865,15.865,0,0,1,3.633-.482,15.876,15.876,0,0,1-3,2.106,25.923,25.923,0,0,1-3.23,1.515,26.367,26.367,0,0,1-3.4,1.071,16.048,16.048,0,0,1-3.632.485Z" transform="translate(-27.879 -182.715)" fill="#8b9d36"/><path d="M168.16,466.9a12.035,12.035,0,0,1,2.635-1.736,19.217,19.217,0,0,1,2.823-1.135,18.868,18.868,0,0,1,2.966-.681,11.9,11.9,0,0,1,3.155-.074,11.905,11.905,0,0,1-2.634,1.739,18.865,18.865,0,0,1-2.824,1.132,19.21,19.21,0,0,1-2.966.678A12.041,12.041,0,0,1,168.16,466.9Z" transform="translate(-25.624 -187.943)" fill="#8b9d36"/><path d="M164.433,472.426a15.827,15.827,0,0,1,2.9-2.2,25.985,25.985,0,0,1,3.146-1.623,25.534,25.534,0,0,1,3.336-1.186,15.648,15.648,0,0,1,3.588-.6,15.644,15.644,0,0,1-2.9,2.2,25.519,25.519,0,0,1-3.148,1.621,25.982,25.982,0,0,1-3.337,1.183A15.826,15.826,0,0,1,164.433,472.426Z" transform="translate(-23.844 -189.666)" fill="#8b9d36"/><path d="M185.485,426.732a11.139,11.139,0,0,1,.086-3.557,16.762,16.762,0,0,1,.906-3.236,16.487,16.487,0,0,1,1.528-2.993,11.028,11.028,0,0,1,2.356-2.669,11.022,11.022,0,0,1-.082,3.559,16.5,16.5,0,0,1-.91,3.235,16.764,16.764,0,0,1-1.532,2.991,11.142,11.142,0,0,1-2.352,2.67Z" transform="translate(-33.851 -164.57)" fill="#8b9d36"/><path d="M160.432,444.709l-.443-.008c.019-1.212.546-29.787,6.262-38.837l.375.237C160.975,415.047,160.436,444.413,160.432,444.709Z" transform="translate(-21.72 -160.551)" fill="#50661a"/><path d="M166.214,399.539a20.325,20.325,0,0,0,.133-4,35.96,35.96,0,0,0-.432-3.88c-.207-1.28-.489-2.546-.82-3.8s-.749-2.481-1.2-3.777a5.544,5.544,0,0,0-.286.994,8.862,8.862,0,0,0-.156,1.011,17.125,17.125,0,0,0-.09,2.006,25.76,25.76,0,0,0,.361,3.931,28.569,28.569,0,0,0,.91,3.828,18,18,0,0,0,1.577,3.69Z" transform="translate(-23.333 -150.145)" fill="#50661a"/><path d="M177.234,379.035a14.372,14.372,0,0,0-2.5,3.215,22.594,22.594,0,0,0-1.677,3.524A22.2,22.2,0,0,0,172,389.531a14.217,14.217,0,0,0-.22,4.069,14.218,14.218,0,0,0,2.506-3.213,22.185,22.185,0,0,0,1.673-3.525,22.6,22.6,0,0,0,1.049-3.759,14.364,14.364,0,0,0,.224-4.068Z" transform="translate(-27.327 -147.735)" fill="#50661a"/><path d="M180.093,392.978a33.108,33.108,0,0,0-3.3,3.036c-1.018,1.056-1.99,2.135-2.941,3.22l-2.825,3.242c-.474.531-.953,1.054-1.459,1.549a6.66,6.66,0,0,1-1.724,1.3,2.991,2.991,0,0,0,1.18-.03,5.527,5.527,0,0,0,1.137-.357,10.979,10.979,0,0,0,2.024-1.161,19.87,19.87,0,0,0,3.335-3.085,26.328,26.328,0,0,0,2.65-3.62,18.84,18.84,0,0,0,1.918-4.1Z" transform="translate(-25.476 -154.396)" fill="#50661a"/><path d="M178.432,406.921a27.269,27.269,0,0,0-4.1,2.519,46.4,46.4,0,0,0-3.675,2.987,45.622,45.622,0,0,0-3.357,3.341,26.965,26.965,0,0,0-2.931,3.813,26.956,26.956,0,0,0,4.1-2.517,45.608,45.608,0,0,0,3.673-2.989,46.4,46.4,0,0,0,3.354-3.343A27.266,27.266,0,0,0,178.432,406.921Z" transform="translate(-23.815 -161.056)" fill="#50661a"/><path d="M177.3,417.861a26.963,26.963,0,0,0-4.138,2.393,45.889,45.889,0,0,0-3.73,2.872,45.086,45.086,0,0,0-3.42,3.234A26.665,26.665,0,0,0,163,430.077a26.644,26.644,0,0,0,4.141-2.391,45.049,45.049,0,0,0,3.728-2.874,45.874,45.874,0,0,0,3.419-3.236A26.953,26.953,0,0,0,177.3,417.861Z" transform="translate(-23.16 -166.282)" fill="#50661a"/><path d="M176.5,429.555a25.073,25.073,0,0,0-4.145,2.011,42.463,42.463,0,0,0-3.769,2.515,41.75,41.75,0,0,0-3.484,2.9,24.771,24.771,0,0,0-3.1,3.406,24.8,24.8,0,0,0,4.147-2.009,41.742,41.742,0,0,0,3.767-2.518,42.483,42.483,0,0,0,3.482-2.9A25.069,25.069,0,0,0,176.5,429.555Z" transform="translate(-22.68 -171.868)" fill="#50661a"/><path d="M176.429,438.039a27.9,27.9,0,0,0-4.337,2.2,47.513,47.513,0,0,0-3.957,2.7,46.674,46.674,0,0,0-3.669,3.083,27.562,27.562,0,0,0-3.284,3.589,27.566,27.566,0,0,0,4.339-2.2,46.672,46.672,0,0,0,3.955-2.706,47.477,47.477,0,0,0,3.667-3.085,27.891,27.891,0,0,0,3.286-3.586Z" transform="translate(-22.29 -175.921)" fill="#50661a"/><path d="M177.309,445.987a36.36,36.36,0,0,0-4.534,2.516c-1.439.921-2.832,1.9-4.19,2.912s-2.686,2.065-3.986,3.153-2.555,2.2-3.915,3.317a10.961,10.961,0,0,0,2.539-.741,24.821,24.821,0,0,0,2.357-1.135,38.71,38.71,0,0,0,4.332-2.819,44.666,44.666,0,0,0,3.935-3.321A28.29,28.29,0,0,0,177.309,445.987Z" transform="translate(-22.053 -179.718)" fill="#50661a"/><path d="M178.537,454.242a37.4,37.4,0,0,0-4.923,2.34c-1.572.876-3.1,1.816-4.589,2.806s-2.946,2.03-4.365,3.122q-1.064.821-2.108,1.671a18.8,18.8,0,0,1-2.139,1.638,4.134,4.134,0,0,0,1.383-.237c.446-.132.878-.293,1.306-.46.854-.339,1.678-.726,2.487-1.137a47.2,47.2,0,0,0,4.663-2.751,53.316,53.316,0,0,0,4.34-3.217A32.988,32.988,0,0,0,178.537,454.242Z" transform="translate(-21.923 -183.661)" fill="#50661a"/><path d="M160.872,408.863a22.066,22.066,0,0,0-.636-4.27,37.078,37.078,0,0,0-1.227-4.053,36.5,36.5,0,0,0-1.675-3.89,21.829,21.829,0,0,0-2.271-3.672,21.834,21.834,0,0,0,.633,4.271,36.5,36.5,0,0,0,1.23,4.052,37.135,37.135,0,0,0,1.677,3.889A22.069,22.069,0,0,0,160.872,408.863Z" transform="translate(-19.368 -154.396)" fill="#50661a"/><path d="M157.078,419.09a22.546,22.546,0,0,0-1.225-4.19,37.975,37.975,0,0,0-1.782-3.9,37.339,37.339,0,0,0-2.2-3.674,22.309,22.309,0,0,0-2.766-3.378,22.309,22.309,0,0,0,1.223,4.191,37.39,37.39,0,0,0,1.785,3.9,38.023,38.023,0,0,0,2.206,3.673,22.582,22.582,0,0,0,2.763,3.38Z" transform="translate(-16.52 -159.638)" fill="#50661a"/><path d="M153.806,428.558a24.7,24.7,0,0,0-1.794-4.206A41.851,41.851,0,0,0,149.7,420.5a41.12,41.12,0,0,0-2.71-3.587,24.421,24.421,0,0,0-3.236-3.232,24.418,24.418,0,0,0,1.791,4.208,41.071,41.071,0,0,0,2.318,3.852,41.811,41.811,0,0,0,2.712,3.586,24.7,24.7,0,0,0,3.234,3.233Z" transform="translate(-13.964 -164.285)" fill="#50661a"/><path d="M150.141,437.846a31.849,31.849,0,0,0-2.568-4.514q-1.432-2.137-3.055-4.116t-3.424-3.815a31.349,31.349,0,0,0-3.916-3.413,31.347,31.347,0,0,0,2.566,4.516q1.432,2.137,3.057,4.114t3.426,3.813A31.812,31.812,0,0,0,150.141,437.846Z" transform="translate(-10.824 -168.254)" fill="#50661a"/><path d="M147.817,449.642a32.162,32.162,0,0,0-3.041-4.243q-1.655-1.987-3.485-3.8t-3.82-3.459a31.669,31.669,0,0,0-4.267-3.008,31.682,31.682,0,0,0,3.039,4.246q1.655,1.986,3.487,3.795t3.822,3.457a32.158,32.158,0,0,0,4.266,3.01Z" transform="translate(-8.926 -174.534)" fill="#50661a"/><path d="M146.681,459.093a28.038,28.038,0,0,0-3.3-3.587,47.764,47.764,0,0,0-3.683-3.085,46.934,46.934,0,0,0-3.971-2.705,27.707,27.707,0,0,0-4.354-2.2,27.721,27.721,0,0,0,3.3,3.59,46.935,46.935,0,0,0,3.685,3.083,47.767,47.767,0,0,0,3.973,2.7A28.036,28.036,0,0,0,146.681,459.093Z" transform="translate(-8.049 -180.448)" fill="#50661a"/><path d="M144.714,466.355a29.677,29.677,0,0,0-3.86-3.209,49.435,49.435,0,0,0-4.172-2.663q-2.144-1.23-4.409-2.25a29.322,29.322,0,0,0-4.724-1.7,29.328,29.328,0,0,0,3.859,3.212,48.942,48.942,0,0,0,4.174,2.661q2.147,1.226,4.41,2.247A29.675,29.675,0,0,0,144.714,466.355Z" transform="translate(-6.224 -184.756)" fill="#50661a"/><path d="M143,472.47a32.056,32.056,0,0,0-4.516-2.6c-1.549-.748-3.129-1.414-4.735-2.011s-3.239-1.119-4.9-1.565a31.586,31.586,0,0,0-5.121-.969,31.579,31.579,0,0,0,4.515,2.6q2.324,1.122,4.736,2.008c1.606.594,3.239,1.119,4.9,1.562A32.04,32.04,0,0,0,143,472.47Z" transform="translate(-4.398 -188.955)" fill="#50661a"/><path d="M147.8,458.159c-.437-.728-10.728-17.878-12.393-22.318l.416-.156c1.65,4.4,12.25,22.067,12.358,22.244Z" transform="translate(-9.98 -174.797)" fill="#5e7c24"/><path d="M141.094,418.085a19.056,19.056,0,0,0-1.025,3.434,32.1,32.1,0,0,0-.524,3.482,31.465,31.465,0,0,0-.144,3.518,18.8,18.8,0,0,0,.362,3.566,18.812,18.812,0,0,0,1.027-3.434,31.516,31.516,0,0,0,.521-3.482,32.108,32.108,0,0,0,.142-3.518A19.036,19.036,0,0,0,141.094,418.085Z" transform="translate(-11.884 -166.389)" fill="#5e7c24"/><path d="M147.672,428.327a18.176,18.176,0,0,0-1.33,3.238,30.522,30.522,0,0,0-.835,3.333,30.057,30.057,0,0,0-.461,3.4,17.979,17.979,0,0,0,.038,3.5,17.962,17.962,0,0,0,1.332-3.238,30.06,30.06,0,0,0,.833-3.334,30.564,30.564,0,0,0,.459-3.405A18.189,18.189,0,0,0,147.672,428.327Z" transform="translate(-14.55 -171.282)" fill="#5e7c24"/><path d="M152.408,440.25a15.422,15.422,0,0,0-1.132,3.01,25.629,25.629,0,0,0-.633,3.081,25.21,25.21,0,0,0-.256,3.135,15.228,15.228,0,0,0,.247,3.207,15.233,15.233,0,0,0,1.134-3.009,25.153,25.153,0,0,0,.631-3.081,25.627,25.627,0,0,0,.254-3.135,15.409,15.409,0,0,0-.245-3.206Z" transform="translate(-17.131 -176.977)" fill="#5e7c24"/><path d="M157.553,452.151a11.808,11.808,0,0,0-1.148,2.561,19.242,19.242,0,0,0-.651,2.647,18.886,18.886,0,0,0-.276,2.712,11.669,11.669,0,0,0,.225,2.8,11.659,11.659,0,0,0,1.15-2.561,18.918,18.918,0,0,0,.649-2.647,19.272,19.272,0,0,0,.274-2.712A11.807,11.807,0,0,0,157.553,452.151Z" transform="translate(-19.561 -182.662)" fill="#5e7c24"/><path d="M161.582,459.589a10.631,10.631,0,0,0-1.212,2.249,18.32,18.32,0,0,0-.762,2.333,20.942,20.942,0,0,0-.46,2.392c-.05.406-.1.81-.126,1.221a9.089,9.089,0,0,1-.134,1.251,2.467,2.467,0,0,0,.295-.186l.239-.24a4.425,4.425,0,0,0,.418-.523,8.374,8.374,0,0,0,.643-1.119,12.463,12.463,0,0,0,.844-2.36,13.972,13.972,0,0,0,.4-2.457A9.251,9.251,0,0,0,161.582,459.589Z" transform="translate(-21.195 -186.215)" fill="#5e7c24"/><path d="M126.883,435.5a15.28,15.28,0,0,0-2.7-2.34,25,25,0,0,0-2.983-1.779,24.566,24.566,0,0,0-3.2-1.354,15.1,15.1,0,0,0-3.485-.787,15.1,15.1,0,0,0,2.7,2.343,24.571,24.571,0,0,0,2.984,1.776,24.992,24.992,0,0,0,3.2,1.351A15.281,15.281,0,0,0,126.883,435.5Z" transform="translate(0 -171.72)" fill="#5e7c24"/><path d="M129.972,445.712a18.818,18.818,0,0,0-3.328-2.179,31.337,31.337,0,0,0-3.55-1.59,30.787,30.787,0,0,0-3.717-1.144,18.608,18.608,0,0,0-3.94-.549,18.612,18.612,0,0,0,3.327,2.182,30.79,30.79,0,0,0,3.551,1.587,31.334,31.334,0,0,0,3.718,1.141A18.822,18.822,0,0,0,129.972,445.712Z" transform="translate(-0.438 -176.977)" fill="#5e7c24"/><path d="M137.108,456.509a16.053,16.053,0,0,0-3-2.1,26.381,26.381,0,0,0-3.229-1.517,25.905,25.905,0,0,0-3.4-1.074,15.865,15.865,0,0,0-3.633-.482,15.872,15.872,0,0,0,3,2.106,25.913,25.913,0,0,0,3.23,1.515,26.367,26.367,0,0,0,3.4,1.071A16.051,16.051,0,0,0,137.108,456.509Z" transform="translate(-4.454 -182.271)" fill="#5e7c24"/><path d="M143.371,465.972a12.034,12.034,0,0,0-2.635-1.736,19.225,19.225,0,0,0-2.823-1.135,18.876,18.876,0,0,0-2.966-.681,11.907,11.907,0,0,0-3.155-.074,11.906,11.906,0,0,0,2.634,1.739,18.871,18.871,0,0,0,2.824,1.132,19.2,19.2,0,0,0,2.966.678,12.039,12.039,0,0,0,3.154.077Z" transform="translate(-8.251 -187.499)" fill="#5e7c24"/><path d="M145.829,471.5a15.825,15.825,0,0,0-2.9-2.2,25.975,25.975,0,0,0-3.146-1.623,25.533,25.533,0,0,0-3.336-1.186,15.651,15.651,0,0,0-3.588-.6,15.645,15.645,0,0,0,2.9,2.2,25.52,25.52,0,0,0,3.148,1.621,25.965,25.965,0,0,0,3.337,1.184A15.826,15.826,0,0,0,145.829,471.5Z" transform="translate(-8.762 -189.222)" fill="#5e7c24"/><path d="M131.985,425.8a11.14,11.14,0,0,0-.086-3.557,16.76,16.76,0,0,0-.906-3.236,16.486,16.486,0,0,0-1.528-2.993,11.029,11.029,0,0,0-2.356-2.669,11.023,11.023,0,0,0,.082,3.559,16.5,16.5,0,0,0,.91,3.235,16.765,16.765,0,0,0,1.532,2.991,11.143,11.143,0,0,0,2.352,2.67Z" transform="translate(-5.963 -164.126)" fill="#5e7c24"/><circle cx="13.09" cy="13.09" r="13.09" transform="translate(193.031 114.323)" fill="#f9e0c0"/><circle cx="13.09" cy="13.09" r="13.09" transform="translate(269.096 178.679)" fill="#f9e0c0"/><path d="M435.031,294.777H434v-2.053a4.1,4.1,0,0,0-8.206,0v2.053h-1.027a1.024,1.024,0,0,0-1.027,1.027v7.183a1.022,1.022,0,0,0,1.027,1.023h10.259a1.022,1.022,0,0,0,1.027-1.023V295.8a1.025,1.025,0,0,0-1.027-1.027Zm-5.13,5.641a1.538,1.538,0,1,1,1.538-1.538,1.538,1.538,0,0,1-1.538,1.538Zm2.053-5.641h-4.106v-2.053a2.053,2.053,0,0,1,4.106,0Z" transform="translate(-147.715 -104.546)" fill="#ffba55"/><rect width="242.902" height="0.971" transform="translate(114.867 283.672)" fill="#935b50"/><path d="M195.031,442.687l8.26-40.654h9.6l-14.771,40.654Z" transform="translate(-38.46 -158.721)" fill="#935b50"/><path d="M485.166,402.033l8.907,40.654h-4.39L475.24,402.033Z" transform="translate(-172.313 -158.721)" fill="#935b50"/><rect width="166.054" height="10.143" rx="5.072" transform="translate(156.724 233.168)" fill="#c38f86"/><path d="M319.095,453.323l-.7,6.943,12.057,5.893-18.515,0,0-12.835Z" transform="translate(-94.306 -183.222)" fill="#f9977a"/><path d="M361.61,453.33l-.7,6.943,12.057,5.894-18.515,0,0-12.835Z" transform="translate(-114.615 -183.225)" fill="#f9977a"/><path d="M374.09,471.818v-.042a1.753,1.753,0,0,0-.964-1.566L360.612,463.9a.584.584,0,0,0-.73.171l-2.447,3.255a.584.584,0,0,1-.768.15l-2.871-1.723a.584.584,0,0,0-.885.5v5.56a.584.584,0,0,0,.584.585l20.012,0A.585.585,0,0,0,374.09,471.818Z" transform="translate(-113.877 -188.245)" fill="#6c7fd8"/><path d="M331.575,471.811v-.042a1.753,1.753,0,0,0-.964-1.566L318.1,463.893a.585.585,0,0,0-.73.171l-2.447,3.255a.584.584,0,0,1-.768.15l-2.871-1.723a.584.584,0,0,0-.885.5v5.56a.585.585,0,0,0,.585.585l20.012,0a.585.585,0,0,0,.585-.584Z" transform="translate(-93.568 -188.241)" fill="#6c7fd8"/><path d="M350.6,288.685s1.107,17.975,1.107,22.2l0,24.937q0,1.54-.152,3.075l.5,37.5a1.475,1.475,0,0,1-1.468,1.33,8.3,8.3,0,0,1-5.489,1.325,8.014,8.014,0,0,1-3.5-1.326c-.381-.173-1.475-.709-1.474-1.475q0-.054,0-.107l-1.428-31.66a31.334,31.334,0,0,0-.58-8.689l-9.293-44.46Z" transform="translate(-102.369 -104.576)" fill="#f73c4f"/><path d="M313.769,378.922a10.667,10.667,0,0,1-3.6-1.262,1.47,1.47,0,0,1-.432-1.043h0l0-25.719a67,67,0,0,1,1.685-14.923,9.912,9.912,0,0,0,.241-2.691c-.314-6.623-1.487-35.667,1.816-40.949l21.121-1.556-15.073,86.563C319.411,378.05,316.311,379.449,313.769,378.922Z" transform="translate(-93.255 -105.576)" fill="#f73c4f"/><path d="M320.23,345.889l.113-.177c-3.577-2.272-4.419-9.057-4.427-9.125l-.209.024C315.715,336.68,316.569,343.564,320.23,345.889Z" transform="translate(-96.105 -127.458)" fill="#b02336"/><path d="M328.189,297.2c12.053,0,16.512-3.635,16.569-3.683l-.136-.16c-.071.06-7.379,6-28.707,2.566l-.034.208A77.737,77.737,0,0,0,328.189,297.2Z" transform="translate(-96.189 -106.81)" fill="#065082"/><rect width="36.219" height="0.211" transform="translate(234.399 225.271) rotate(-80.352)" fill="#b02336"/><path d="M351.346,308.268l.127-.169-1.586-1.2,1.181-7.147-.207-.035-1.2,7.274Z" transform="translate(-112.324 -109.848)" fill="#b02336"/><path d="M320.231,354.243l.119-.173a14.535,14.535,0,0,1-4.437-5.918l-.2.076A14.755,14.755,0,0,0,320.231,354.243Z" transform="translate(-96.11 -132.983)" fill="#b02336"/><path d="M356.757,403.827l.113-.177c-3.577-2.273-4.42-9.058-4.428-9.126l-.209.024C352.241,394.618,353.095,401.5,356.757,403.827Z" transform="translate(-113.554 -155.134)" fill="#b02336"/><path d="M356.758,412.181l.119-.173a14.529,14.529,0,0,1-4.438-5.918l-.2.076A14.759,14.759,0,0,0,356.758,412.181Z" transform="translate(-113.558 -160.659)" fill="#b02336"/><path d="M346.069,166.2l-.317,4.595a26.4,26.4,0,0,0,.283,5.578c.334,2.324-2.735,5.995-3.853,6.04v4.622c.287,3.185-1.811,5.765-4.023,6.061-2.537.339-5.659-2.272-5.49-6.061V176.228s-3.887-.716-1.637-4.552a16.535,16.535,0,0,0,2.3-7.365l4.194-3.171Z" transform="translate(-103.092 -43.649)" fill="#f9977a"/><path d="M301.983,231.47s-.474-9.752,3-16.969a10.17,10.17,0,0,1,4.338-4.54,46.561,46.561,0,0,1,9.8-4.261c-.033,2.869,2.24,3.437,4.961,3.38,2.547-.053,4.437.011,4.552-2.667,6.028,1.354,9,3.755,10.033,5.945,2.058,4.351,2.368,13.474,2.368,13.474l-3.187.632s.8,24.071.168,26.668c-3.116.71-6.359,3.116-10.231,3.459-7.234.642-13.858-1.612-18.942-2.373.662-2.958,1.265-6.118,1.768-9.47a135.413,135.413,0,0,0,1.341-13.536Z" transform="translate(-89.539 -64.934)" fill="#8b9d36"/><path d="M341.99,173.779a.284.284,0,0,1-.141-.531,3.7,3.7,0,0,1,3.289-.006.284.284,0,1,1-.26.5,3.172,3.172,0,0,0-2.747-.006.287.287,0,0,1-.141.037Z" transform="translate(-108.525 -49.247)" fill="#1e1d22"/><path d="M352.761,173.779a.284.284,0,0,1-.141-.531,3.694,3.694,0,0,1,3.288-.006.284.284,0,0,1-.26.5,3.169,3.169,0,0,0-2.747-.006.286.286,0,0,1-.14.037Z" transform="translate(-113.67 -49.247)" fill="#1e1d22"/><path d="M355.7,180.21a.853.853,0,1,0-.823-.852.853.853,0,0,0,.823.852Z" transform="translate(-114.814 -51.944)" fill="#1e1d22"/><path d="M344.532,180.112a.853.853,0,1,0-.823-.852.853.853,0,0,0,.823.852Z" transform="translate(-109.482 -51.898)" fill="#1e1d22"/><path d="M351.65,178.559a7.507,7.507,0,0,1,1.184,2.326,3.458,3.458,0,0,1,.159,1.331,1.166,1.166,0,0,1-.265.646.825.825,0,0,1-.618.255.83.83,0,0,0,.488-.355,1.108,1.108,0,0,0,.134-.565,4.471,4.471,0,0,0-.219-1.218C352.274,180.168,351.945,179.378,351.65,178.559Z" transform="translate(-113.275 -51.97)" fill="#dd765e"/><path d="M348.857,200.448s-3.069-.157-4.552-1.562c0,0,1.892,3.761,4.552,4.272Z" transform="translate(-109.767 -61.68)" fill="#dd765e"/><path d="M348.285,163.145s-.051-2.1-3.734-3.018-4.4-2.966-6.521-2.4a6.974,6.974,0,0,0-3.452,2.4s-6.666-1.02-3.435,9.617c0,0,2.412,2.811,2.668.305s.818-6.8,2.2-7.927,3.529,0,4.347.614,5.933,4.245,6.444,3.938S349.359,165.753,348.285,163.145Z" transform="translate(-103.057 -41.971)" fill="#1e1d22"/><path d="M332.146,205.7l4.961,3.38-2.481,3.41-5.39-5.836Z" transform="translate(-102.569 -64.934)" fill="#8b9d36"/><path d="M344.306,209.732l4.552-2.666,2.089.545-4.811,5.007Z" transform="translate(-109.767 -65.587)" fill="#8b9d36"/><path d="M329.237,207.526c.946.929,1.885,1.864,2.8,2.819l1.382,1.427c.464.473.909.963,1.364,1.443l-.334.02c.823-1.14,1.625-2.294,2.465-3.422l.208-.28.182.292,1.807,2.9-.328-.033c.809-.828,1.64-1.634,2.459-2.452s1.659-1.616,2.5-2.409q-1.138,1.314-2.308,2.6c-.785.851-1.558,1.713-2.352,2.554l-.182.193-.146-.226-1.853-2.871.39.012c-.814,1.146-1.665,2.265-2.5,3.4l-.158.216-.177-.2c-.443-.492-.9-.975-1.331-1.475l-1.313-1.491C330.945,209.553,330.088,208.543,329.237,207.526Z" transform="translate(-102.569 -65.807)" fill="#5e7c24"/><path d="M344.306,212.171c.971,3.722,1.741,7.494,2.425,11.28s1.22,7.6,1.626,11.43a105.586,105.586,0,0,1,.6,11.534,51.726,51.726,0,0,1-1.221,11.464l.438-2.848c.131-.95.167-1.913.256-2.866.107-.953.1-1.915.132-2.873l.039-1.438c.013-.479-.013-.959-.018-1.438-.017-3.836-.309-7.668-.707-11.484-.36-3.822-.912-7.624-1.51-11.418-.293-1.9-.621-3.791-.97-5.68C345.062,215.94,344.693,214.054,344.306,212.171Z" transform="translate(-109.767 -68.026)" fill="#5e7c24"/><path d="M369.785,237.268c-.16-.737-.277-1.479-.388-2.222s-.2-1.487-.285-2.233-.15-1.493-.2-2.243-.091-1.5-.091-2.254c.16.737.278,1.479.389,2.222s.2,1.487.284,2.233.15,1.493.194,2.243S369.785,236.513,369.785,237.268Z" transform="translate(-121.48 -75.739)" fill="#5e7c24"/><path d="M365.351,240.393h8.655l-6.831,12.912-8.562.235Z" transform="translate(-116.602 -81.507)" fill="#935b50"/><path d="M312.61,251.126v4.3l16.094-5.053s1.357-3.415,5.848-2.947l.515.889s6.082.047,6.035,1.123l-.328.421s1.825.094.328,1.357c0,0,.514.982-1.076,1.45s-4.445,1.216-4.445,1.216a2.129,2.129,0,0,0,1.871.374,8.069,8.069,0,0,1,1.684-.374.716.716,0,0,1-.374,1.123,14.234,14.234,0,0,1-2.526.983c-.515,0-5.38.749-5.38.749l-19.584,8.689a5.478,5.478,0,0,1-7.7-4.871l-.229-9.244Z" transform="translate(-90.201 -84.848)" fill="#f9977a"/><path d="M378.789,244.295a.585.585,0,1,0-.565-.585A.585.585,0,0,0,378.789,244.295Z" transform="translate(-125.97 -82.813)" fill="#6c7fd8"/><path d="M380.711,244.245s1.184,1.181-1.509,4.562a1.531,1.531,0,0,1-.421,1.24.927.927,0,0,1,0,1.146,1.114,1.114,0,0,1-.316,1.263s-.07,1.439-1.018,1.439h-1.842s-.583-.442,0-.772c0,0-1.386-.07-.334-1.053,0,0-.632-.7.316-1.4a.871.871,0,0,1,.274-1.333,20.352,20.352,0,0,0,2.435-.526Z" transform="translate(-124.371 -83.348)" fill="#f9977a"/><path d="M316.245,264.846a4.665,4.665,0,0,1,1.047-1.3,3.254,3.254,0,0,1,1.48-.762,6.108,6.108,0,0,0-1.353.91A14.869,14.869,0,0,0,316.245,264.846Z" transform="translate(-96.363 -92.205)" fill="#dd765e"/><path d="M371.669,252.038a16.147,16.147,0,0,1-1.825.1,15.971,15.971,0,0,1-1.825-.1,16.028,16.028,0,0,1,1.825-.1A16.2,16.2,0,0,1,371.669,252.038Z" transform="translate(-121.095 -87.024)" fill="#dd765e"/><path d="M362.752,249.082a2.617,2.617,0,0,1-.725.1,2.58,2.58,0,0,1-.725-.1,2.59,2.59,0,0,1,.725-.1,2.627,2.627,0,0,1,.725.1Z" transform="translate(-117.886 -85.612)" fill="#dd765e"/><path d="M372.382,254.722a15.44,15.44,0,0,1-1.769.261,15.274,15.274,0,0,1-1.787.067,15.271,15.271,0,0,1,1.769-.261A15.517,15.517,0,0,1,372.382,254.722Z" transform="translate(-121.48 -88.351)" fill="#dd765e"/><path d="M381.426,252.761a.466.466,0,0,1,.453-.236.775.775,0,0,1,.253.07.575.575,0,0,1,.2.165c-.178,0-.318-.043-.462-.041A1.245,1.245,0,0,0,381.426,252.761Z" transform="translate(-127.499 -87.302)" fill="#dd765e"/><path d="M376.238,255.972a12.837,12.837,0,0,1,1.578-.406,12.7,12.7,0,0,1,1.615-.215,12.638,12.638,0,0,1-1.578.406,12.838,12.838,0,0,1-1.615.214Z" transform="translate(-125.021 -88.653)" fill="#dd765e"/><path d="M375.634,258.424c.571-.209,1.158-.348,1.741-.5l.883-.193c.295-.063.592-.109.885-.186a4.376,4.376,0,0,1-.847.331c-.289.09-.583.16-.875.237a14.063,14.063,0,0,1-1.786.309Z" transform="translate(-124.732 -89.702)" fill="#dd765e"/><path d="M376.273,260.632a12.741,12.741,0,0,1,1.417-.393c.479-.1.955-.194,1.442-.274a6.065,6.065,0,0,1-1.4.464A8.911,8.911,0,0,1,376.273,260.632Z" transform="translate(-125.037 -90.857)" fill="#dd765e"/><path d="M321.064,246.445c-.035-.749-.018-1.5.012-2.243s.092-1.491.167-2.235.184-1.485.332-2.22a10.1,10.1,0,0,1,.623-2.16c-.072.369-.143.731-.186,1.1s-.1.736-.141,1.1l-.241,2.216c-.084.739-.159,1.479-.257,2.218S321.189,245.706,321.064,246.445Z" transform="translate(-98.655 -80.167)" fill="#5e7c24"/><path d="M343.877,225.794a.729.729,0,1,0-.7-.729A.729.729,0,0,0,343.877,225.794Z" transform="translate(-109.226 -73.838)" fill="#5e7c24"/><path d="M345.551,236.509a.729.729,0,1,0-.7-.729A.729.729,0,0,0,345.551,236.509Z" transform="translate(-110.026 -78.956)" fill="#5e7c24"/><path d="M347.56,247.893a.729.729,0,1,0-.7-.729A.729.729,0,0,0,347.56,247.893Z" transform="translate(-110.986 -84.394)" fill="#5e7c24"/><path d="M349.569,273.006a.729.729,0,1,0-.7-.729A.729.729,0,0,0,349.569,273.006Z" transform="translate(-111.945 -96.39)" fill="#5e7c24"/><path d="M349.569,285.06a.729.729,0,1,0-.7-.729.729.729,0,0,0,.7.729Z" transform="translate(-111.945 -102.149)" fill="#5e7c24"/><path d="M348.23,295.44a.729.729,0,1,0-.7-.729.729.729,0,0,0,.7.729Z" transform="translate(-111.305 -107.107)" fill="#5e7c24"/><path d="M348.989,191.029s1.513,1.39,2.779.428" transform="translate(-112.004 -57.927)" fill="#dd2f22"/><path d="M343.516,188.331a2.744,2.744,0,0,0,2.026-.366,3.035,3.035,0,0,1,1.33-.439,2.857,2.857,0,0,1,.746.04,2.417,2.417,0,0,1,.772.27l-.375-.1c.12,0,.239,0,.359,0l-.375.1a2.328,2.328,0,0,1,.4-.177,2.406,2.406,0,0,1,.37-.094,2.881,2.881,0,0,1,.746-.04,3.033,3.033,0,0,1,1.33.439,2.327,2.327,0,0,0,.9.363,3.171,3.171,0,0,0,1.13,0,2.33,2.33,0,0,1-2.464.666,2.667,2.667,0,0,0-.923-.11,2.443,2.443,0,0,0-.413.071c-.067.017-.13.042-.192.062a1.318,1.318,0,0,0-.132.059l-.375.1c-.12,0-.239,0-.359,0l-.375-.1a1.257,1.257,0,0,0-.132-.059c-.062-.021-.125-.047-.191-.063a2.5,2.5,0,0,0-.413-.071,2.656,2.656,0,0,0-.924.11A2.333,2.333,0,0,1,343.516,188.331Z" transform="translate(-109.39 -56.248)" fill="#1e1d22"/><circle cx="39.081" cy="39.081" r="39.081" transform="translate(282.187 94.404)" fill="#ffba55"/><path d="M524.769,179.2a.439.439,0,0,0-.439-.439h-7.936a.439.439,0,0,0-.439.439v.057a.439.439,0,0,0,.439.439h2.892a2.665,2.665,0,0,1,2.48,1.7.443.443,0,0,1-.407.609h-4.964a.439.439,0,0,0-.439.439v.057a.439.439,0,0,0,.439.439h4.867a.443.443,0,0,1,.388.652,2.664,2.664,0,0,1-2.362,1.435h-2.425a.439.439,0,0,0-.439.439v.344a.439.439,0,0,0,.09.266L521.038,192a.439.439,0,0,0,.615.083l.045-.034a.439.439,0,0,0,.083-.615l-3.643-4.77a.439.439,0,0,1,.349-.705h1.343a.49.49,0,0,0,.12-.015,3.737,3.737,0,0,0,2.812-2.658.45.45,0,0,1,.429-.348h1.139a.439.439,0,0,0,.439-.439v-.057a.439.439,0,0,0-.439-.439h-1.066a.451.451,0,0,1-.449-.35,3.563,3.563,0,0,0-.985-1.836c-.042-.042-.087-.079-.13-.118h2.63a.439.439,0,0,0,.439-.439Z" transform="translate(-191.762 -52.065)" fill="#5e7c24"/><path d="M545.256,179.2a.439.439,0,0,0-.439-.439h-7.936a.439.439,0,0,0-.439.439v.057a.439.439,0,0,0,.439.439h2.892a2.665,2.665,0,0,1,2.479,1.7.443.443,0,0,1-.407.609h-4.964a.439.439,0,0,0-.439.439v.057a.439.439,0,0,0,.439.439h4.867a.443.443,0,0,1,.388.652,2.664,2.664,0,0,1-2.362,1.435h-2.425a.439.439,0,0,0-.439.439v.344a.438.438,0,0,0,.09.266L541.525,192a.439.439,0,0,0,.615.082l.045-.034a.439.439,0,0,0,.083-.615l-3.643-4.77a.439.439,0,0,1,.349-.705h1.343a.491.491,0,0,0,.12-.015,3.737,3.737,0,0,0,2.812-2.658.449.449,0,0,1,.429-.348h1.139a.439.439,0,0,0,.439-.439v-.057a.439.439,0,0,0-.439-.439h-1.066a.451.451,0,0,1-.448-.35,3.564,3.564,0,0,0-.985-1.836c-.042-.042-.087-.079-.13-.118h2.63a.439.439,0,0,0,.439-.439Z" transform="translate(-201.549 -52.065)" fill="#5e7c24"/><circle cx="9.349" cy="9.349" r="9.349" transform="translate(320.099 144.719)" fill="#f9e0c0"/><path d="M518.265,231.57h-.009a.861.861,0,0,1-.622-.274l-3.1-3.319A.862.862,0,1,1,515.8,226.8l2.48,2.657,6.782-6.984a.862.862,0,1,1,1.237,1.2l-7.413,7.634A.863.863,0,0,1,518.265,231.57Z" transform="translate(-190.974 -72.822)" fill="#6c7fd8"/><rect width="43.252" height="2.156" transform="translate(299.818 115.02)" fill="#f9e0c0"/><rect width="43.252" height="2.156" transform="translate(300.026 120.252)" fill="#f9e0c0"/><rect width="58.097" height="39.022" rx="4.641" transform="translate(259.497 117.636)" fill="#f73c4f"/><rect width="33.411" height="2.429" transform="translate(262.115 120.411)" fill="#f9e0c0"/><rect width="58.097" height="9.35" transform="translate(317.593 134.218) rotate(180)" fill="#f9e0c0"/><rect width="13.839" height="2.429" transform="translate(299.516 143.974)" fill="#ffba55"/><rect width="13.526" height="2.429" transform="translate(292.909 150.233)" fill="#ffba55"/><rect width="7.73" height="2.429" transform="translate(282.187 150.233)" fill="#ffba55"/><rect width="7.73" height="2.429" transform="translate(289.293 143.974)" fill="#ffba55"/><path d="M401.767,223.789c4.679,0,4.687-7.272,0-7.272S397.08,223.789,401.767,223.789Z" transform="translate(-135.538 -70.102)" fill="#ffba55"/><path d="M290.446,161.758a.522.522,0,0,0-.522-.522H278.158a.522.522,0,0,0-.522.522v.313a.522.522,0,0,0,.522.522h4.319a3.875,3.875,0,0,1,3.683,2.687.519.519,0,0,1-.5.663h-7.5a.522.522,0,0,0-.522.522v.313a.522.522,0,0,0,.522.522h7.374a.526.526,0,0,1,.477.742,3.874,3.874,0,0,1-3.533,2.29h-3.64a.522.522,0,0,0-.522.522v.655a.522.522,0,0,0,.107.317l6.671,8.738a.522.522,0,0,0,.732.1l.249-.19a.522.522,0,0,0,.1-.732l-5.506-7.21a.522.522,0,0,1,.415-.839h2.2a.58.58,0,0,0,.14-.017,5.424,5.424,0,0,0,4.135-3.99.513.513,0,0,1,.5-.384h1.861a.522.522,0,0,0,.522-.522v-.313a.522.522,0,0,0-.522-.522h-1.789a.513.513,0,0,1-.51-.413,5.177,5.177,0,0,0-1.45-2.765c-.061-.061-.126-.115-.19-.172h3.938a.522.522,0,0,0,.522-.522Z" transform="translate(-77.919 -43.695)" fill="#ffba55"/></g></svg>