<svg id="Capa_1" enable-background="new 0 0 510 510" height="512" viewBox="0 0 510 510" width="512" xmlns="http://www.w3.org/2000/svg"><g><path d="m480 0h-450c-16.542 0-30 13.458-30 30v450c0 16.542 13.458 30 30 30h450c16.542 0 30-13.458 30-30 0-149.782 0-299.745 0-450 0-16.542-13.458-30-30-30zm0 480h-450v-450h450l.001 34h-50.001c-16.542 0-30 13.458-30 30v34c0 16.542 13.458 30 30 30h50.005l.008 194h-50.013c-16.542 0-30 13.458-30 30v34c0 16.542 13.458 30 30 30h50.018c.001 34.754.082 34-.018 34zm0-386v34h-50v-34zm0 288v34h-50v-34z"/><path d="m231 208c-25.916 0-47 21.084-47 47s21.084 47 47 47 47-21.084 47-47-21.084-47-47-47zm0 64c-9.374 0-17-7.626-17-17s7.626-17 17-17 17 7.626 17 17-7.626 17-17 17z"/><path d="m383 240h-42.017c-6.68-49.229-45.754-88.303-94.983-94.983v-42.017c0-8.284-6.716-15-15-15s-15 6.716-15 15v42.017c-49.229 6.68-88.303 45.753-94.983 94.983h-42.017c-8.284 0-15 6.716-15 15s6.716 15 15 15h42.017c6.68 49.229 45.754 88.303 94.983 94.983v42.017c0 8.284 6.716 15 15 15s15-6.716 15-15v-42.017c49.229-6.68 88.303-45.753 94.983-94.983h42.017c8.284 0 15-6.716 15-15s-6.716-15-15-15zm-152 96c-44.664 0-81-36.337-81-81s36.336-81 81-81 81 36.337 81 81-36.336 81-81 81z"/></g></svg>