<svg xmlns="http://www.w3.org/2000/svg" width="252.65" height="177.208" viewBox="0 0 252.65 177.208"><g transform="translate(-183.5 -6.3)"><path d="M349.683,6.3a86.641,86.641,0,0,0-69.748,34.94A69.9,69.9,0,0,0,253,35.892c-38.389,0-69.5,30.748-69.5,68.658s31.111,68.658,69.5,68.658a69.762,69.762,0,0,0,42.879-14.623,86.736,86.736,0,0,0,53.8,18.551c47.747,0,86.467-38.241,86.467-85.427S397.43,6.3,349.683,6.3Z" transform="translate(0 0)" fill="#2a94f4" opacity="0.1"/><ellipse cx="121.407" cy="13.781" rx="121.407" ry="13.781" transform="translate(185.15 155.946)" fill="#2a94f4" opacity="0.1"/><path d="M291.935,156.461a3.065,3.065,0,0,0,1.073-3.235c-.429-2.278-1.568-5.215-5.067-4.489s-3.35,1.32-4.7-.116c-1.353-1.419-6.024,1.815-4.968,3.367.5.743.71,2.162-1.337,3.02s-2.261,6.008,1.716,5.446c1.007-.149.941,1.386.4,1.981-1.2,1.32,1.683,4.7,3.9,2.278C285.168,162.287,291.935,156.461,291.935,156.461Z" transform="translate(-76.813 -118.538)" fill="#0b4870"/><path d="M393.471,423.945H567.643a11.372,11.372,0,0,0,11.372-11.371v-96.4A11.372,11.372,0,0,0,567.643,304.8H393.471A11.372,11.372,0,0,0,382.1,316.171v96.4A11.383,11.383,0,0,0,393.471,423.945Z" transform="translate(-165.822 -249.234)" fill="#ffbe55"/><rect width="196.931" height="27.793" transform="translate(413.201 99.48) rotate(180)" fill="#0e538c"/><rect width="138.555" height="6.899" transform="translate(364.325 122.496) rotate(180)" fill="#f7f7f7"/><rect width="101.733" height="5.215" transform="translate(327.509 133.478) rotate(180)" fill="#f7f7f7"/><rect width="101.733" height="5.215" transform="translate(327.509 144.468) rotate(180)" fill="#f7f7f7"/><path d="M345.053,943.976l-.66,5.843H340.3V943.2Z" transform="translate(-130.921 -782.27)" fill="#fcd2b1"/><path d="M248.453,943.976l-.66,5.843H243.7V943.2Z" transform="translate(-50.264 -782.27)" fill="#fcd2b1"/><path d="M321.969,208.359c-.132,1.947-.941,3.648-1.8,3.73h-2.443c-.858-.083-1.683-1.766-1.8-3.73-.2-3.218.231-4.357.017-7.576-.132-1.931,6.767-4.011,6.635-2.08Q322.282,203.532,321.969,208.359Z" transform="translate(-110.527 -160.006)" fill="#f7d9c1"/><path d="M412.494,257.1s4.192.66,5.909,1.089a14.8,14.8,0,0,1,7.724,4.44c1.155,1.056-1.386,1.188-2.674,2.146s-11.735-1.815-13.93-3.086C407.344,260.4,411.074,257.1,412.494,257.1Z" transform="translate(-188.162 -209.407)" fill="#f7d9c1"/><path d="M280.756,255.083a3.072,3.072,0,0,0,2.492-3.548s7.344-1.584,11.339-.644,5.793,1.452,6.173,1.584-3.086.578-4.242,4.753-1.452,4.852-1.452,4.852l-2.674-.4s-1.766,33.7-2.41,36.937-14.128,4.324-19.723,1.139c0,0-.5-13.451-.5-31.8l-.264-15.036s6.272-.578,7.691-.578A2.7,2.7,0,0,0,280.756,255.083Z" transform="translate(-71.806 -203.973)" fill="#2a94f4"/><path d="M409.295,283.153c-1.469-1.089-2.789-.875-7.724.66-6.569,2.047-8.747,2.872-9.754,3.3-1.007.446-1.617,1.865-2.129,3.515a4.476,4.476,0,0,0,.363,3.053,3.892,3.892,0,0,0,2.36.875c.611.017.858-.875.33-3.2-.726-3.2,10.3-3.4,11.834-3.614C406.06,287.527,412.744,285.728,409.295,283.153Z" transform="translate(-172.023 -230.591)" fill="#ffe3ca"/><path d="M193.6,345.752c0-4.011,6.255-16.488,6.255-16.488,0-.033.017-.05.017-.083v-.017c0-.016.016-.033.016-.049a.016.016,0,0,1,.016-.017c0-.016.017-.016.017-.033l.017-.016.016-.017a.016.016,0,0,0,.017-.016c.017,0,.017-.017.033-.017h.149c.016,0,.016,0,.033.017.016,0,.016,0,.033.016a.058.058,0,0,1,.033.017c.017,0,.017.016.033.016s.033.016.049.016a.057.057,0,0,1,.033.016c.017.017.033.017.05.033s.033.017.033.033c.017.017.033.017.049.033s.033.016.05.033.033.033.05.033c.017.016.033.016.05.033l.05.05c.016.016.033.033.05.033l.049.05.05.05a.229.229,0,0,0,.066.049l.05.05.066.066.05.049.066.066.05.049c.016.033.05.05.066.083l.05.05c.017.033.05.049.066.082l.049.05c.033.033.05.066.083.1l.05.049c.033.033.05.066.083.1.017.017.017.033.033.049.033.033.066.083.1.116.017.016.017.033.033.033.033.05.066.082.1.132,0,.016.017.016.017.033a1.426,1.426,0,0,1,.116.165h0c1.584,2.129,2.393,4.225,1.782,5.166-.825,1.287-5.43,7.807-4.374,10.15,1.056,2.36,7.493,11.966,7.493,11.966l-.974,3C205.945,361.167,193.6,351.33,193.6,345.752Z" transform="translate(-8.433 -269.44)" fill="#ffe3ca"/><path d="M229.638,264.343s-2.146-2.344-5.182,3.482a94.781,94.781,0,0,0-4.555,10.282s4.671,7.922,6.734,4.539a48.218,48.218,0,0,0,2.608-4.357C231.849,271.853,229.638,264.343,229.638,264.343Z" transform="translate(-30.392 -215.066)" fill="#2a94f4"/><path d="M308.569,170.8c.693,1.04,1.007,4.39.776,5.81-.858,5.43-3.053,9.044-9.11,4.473-1.3-.99-1.436-2.9-1.65-3.185a2.877,2.877,0,0,1-1.634-2.855c.149-2.146,1.617-1.04,1.9.479l.759,1.287a.4.4,0,0,0,.281.182h0a.362.362,0,0,0,.38-.429l-.512-2.278s2.146.875,2.954-1.073,3.433,1.716,4.522-.858Z" transform="translate(-94.717 -137.35)" fill="#ffe3ca"/><path d="M336.6,979.8h.611a4.863,4.863,0,0,0,4.159,0h.825l.429,1.255s.842,1.832,4.209.858c2.261-.66,3.433,1.75,3.5,4.027H336.6V979.8Z" transform="translate(-127.832 -812.829)" fill="#0b4870"/><path d="M239.7,979.8h.611a4.863,4.863,0,0,0,4.159,0h.825l.429,1.255s.842,1.832,4.209.858c2.261-.66,3.433,1.75,3.5,4.027H239.7Z" transform="translate(-46.924 -812.829)" fill="#0b4870"/><path d="M265.778,513.8s.215,36.046-.363,44.826S261.7,586.75,261.7,586.75h-6.008s1.65-27.051,1.65-29.625-2.36-25.6-4.638-26.061c-2.146-.429-2.1,18.4-2.212,26.11s-5.017,29.56-5.017,29.56H239.8s3.1-20.862,2.575-30.7c-.281-5.364-.627-14.144-.545-22.974.066-7.361,3.532-18.534,3.532-18.534Z" transform="translate(-47.008 -423.74)" fill="#0b4870"/><g transform="translate(197.298 87.016)"><path d="M268.041,495.366c.528.2.5.165.5.165s5.017,3.07,1.931,6.4c-1.056,1.139-2.525.3-3.07-.99l-.3-.71C267.1,500.219,267.529,495.152,268.041,495.366Z" transform="translate(-267.1 -495.36)" fill="#ffe3ca"/></g></g></svg>