<svg xmlns="http://www.w3.org/2000/svg" width="49.563" height="59.798" viewBox="0 0 49.563 59.798"><path d="M-197.8-607.46l1.368,1.036q-.539,1.16-1.036,2.031t-1.2,2.113q-.7,1.243-1.077,1.865-3.108,5.429-5.843,5.429a2.6,2.6,0,0,1-1.989-.912,3.557,3.557,0,0,1-.829-2.486,17.523,17.523,0,0,1,1.6-6.133,79.471,79.471,0,0,1,4.931-9.593q3.336-5.7,8.392-12.909t11.4-15.209a60.2,60.2,0,0,0-8.661-.539,72.277,72.277,0,0,0-12.826,1.285,98.652,98.652,0,0,0-12.308,2.963q-5.242,1.678-5.242,2.466a.4.4,0,0,0,.207.394,2.324,2.324,0,0,0,.684.166q.477.062,1.222.145,4.848.663,4.849,1.492,0,.414-2.113.394t-5.1-.021a22.012,22.012,0,0,1-3.419-.186,2.061,2.061,0,0,1-1.409-.7,2.874,2.874,0,0,1-.352-1.6,23.49,23.49,0,0,1,.414-3.067,20.266,20.266,0,0,1,2.424-7.045,11.913,11.913,0,0,1,5.014-4.331,34.132,34.132,0,0,1,9.3-2.673,101.283,101.283,0,0,1,16.452-1.7,56.9,56.9,0,0,1,7.584.394,12.021,12.021,0,0,1,4.082,1.14,3.954,3.954,0,0,1,1.658,1.471,22.213,22.213,0,0,1,.932,2.507l1.285,3.813q.124.373.207.6a4.805,4.805,0,0,1,.145.477,1.891,1.891,0,0,1,.062.456,5.8,5.8,0,0,1-.725,2.9,40.412,40.412,0,0,1-2.652,3.854q-1.927,2.569-2.839,4.02Q-193.908-615.79-197.8-607.46Z" transform="translate(226.563 654.785)" fill="#5f6893"/></svg>